<svg width="122" height="92" viewBox="0 0 122 92" fill="none" xmlns="http://www.w3.org/2000/svg">
<path d="M9.61084 10.2874C12.2816 3.89175 18.6429 0 25.5737 0H95.2395C102.033 0 108.291 3.73489 111.016 9.95749C115.483 20.1554 121.433 36.2426 120.996 48.76C120.616 59.6137 115.243 73.2793 111.097 82.3097C108.307 88.3863 102.128 92 95.4412 92H25.3083C18.5169 92 12.2588 88.2719 9.50982 82.0617C5.48098 72.9602 0.31482 59.3369 0.0151627 48.76C-0.330947 36.5435 5.32013 20.5625 9.61084 10.2874Z" fill="#EDE3FF"/>
<path d="M72.2227 26.8335H49.2227C46.041 26.8335 43.4727 29.3827 43.4727 32.526V53.4368C43.4727 56.5802 46.041 59.1293 49.2227 59.1293H50.6793C52.2127 59.1293 53.6693 59.7235 54.7427 60.7968L58.0202 64.036C59.5152 65.5118 61.9493 65.5118 63.4443 64.036L66.7218 60.7968C67.7952 59.7235 69.271 59.1293 70.7852 59.1293H72.2227C75.4043 59.1293 77.9727 56.5802 77.9727 53.4368V32.526C77.9727 29.3827 75.4043 26.8335 72.2227 26.8335ZM69.6927 43.1252L67.4502 49.9485C67.1627 51.0793 65.9552 51.9993 64.7285 51.9993H61.1827C60.5693 51.9993 59.7068 51.7885 59.3235 51.4052L56.506 49.201C56.4485 50.4277 55.8927 50.9452 54.5318 50.9452H53.6118C52.1935 50.9452 51.6185 50.3893 51.6185 49.0477V39.9052C51.6185 38.5635 52.1935 38.0077 53.6118 38.0077H54.551C55.9693 38.0077 56.5443 38.5635 56.5443 39.9052V40.5952L60.2627 35.0752C60.646 34.481 61.6235 34.0593 62.4477 34.3852C63.3485 34.6918 63.9235 35.6885 63.7318 36.5702L63.2718 39.5602C63.2143 39.8093 63.2718 40.0777 63.4443 40.2502C63.5977 40.4227 63.8277 40.5377 64.0768 40.5377H67.8143C68.5427 40.5377 69.156 40.8252 69.5202 41.3427C69.8652 41.841 69.9227 42.4735 69.6927 43.1252Z" fill="#5243FE"/>
</svg>
