<svg width="40" height="40" viewBox="0 0 40 40" fill="none" xmlns="http://www.w3.org/2000/svg">
<path d="M27.9164 5.93331V3.33331C27.9164 2.64998 27.3497 2.08331 26.6664 2.08331C25.983 2.08331 25.4164 2.64998 25.4164 3.33331V5.83331H14.5831V3.33331C14.5831 2.64998 14.0164 2.08331 13.3331 2.08331C12.6497 2.08331 12.0831 2.64998 12.0831 3.33331V5.93331C7.58305 6.34998 5.39973 9.03331 5.0664 13.0166C5.03306 13.5 5.43306 13.9 5.89973 13.9H34.0997C34.583 13.9 34.983 13.4833 34.933 13.0166C34.5997 9.03331 32.4164 6.34998 27.9164 5.93331Z" fill="#5243FE"/>
<path opacity="0.4" d="M33.3333 16.4C34.25 16.4 35 17.15 35 18.0666V28.3333C35 33.3333 32.5 36.6666 26.6667 36.6666H13.3333C7.5 36.6666 5 33.3333 5 28.3333V18.0666C5 17.15 5.75 16.4 6.66667 16.4H33.3333Z" fill="#5243FE"/>
<path d="M14.1667 25C13.95 25 13.7333 24.95 13.5333 24.8667C13.3333 24.7834 13.15 24.6667 12.9833 24.5167C12.8333 24.35 12.7166 24.1667 12.6333 23.9667C12.55 23.7667 12.5 23.55 12.5 23.3333C12.5 23.1167 12.55 22.9 12.6333 22.7C12.7166 22.5 12.8333 22.3167 12.9833 22.15C13.15 22 13.3333 21.8833 13.5333 21.8C13.9333 21.6333 14.4 21.6333 14.8 21.8C15 21.8833 15.1833 22 15.35 22.15C15.5 22.3167 15.6167 22.5 15.7 22.7C15.7834 22.9 15.8333 23.1167 15.8333 23.3333C15.8333 23.55 15.7834 23.7667 15.7 23.9667C15.6167 24.1667 15.5 24.35 15.35 24.5167C15.1833 24.6667 15 24.7834 14.8 24.8667C14.6 24.95 14.3833 25 14.1667 25Z" fill="#5243FE"/>
<path d="M19.9987 25.0001C19.782 25.0001 19.5654 24.9501 19.3654 24.8667C19.1654 24.7834 18.982 24.6667 18.8154 24.5167C18.5154 24.2 18.332 23.7667 18.332 23.3334C18.332 22.9001 18.5154 22.4667 18.8154 22.1501C18.982 22.0001 19.1654 21.8834 19.3654 21.8C19.7654 21.6167 20.232 21.6167 20.632 21.8C20.832 21.8834 21.0154 22.0001 21.182 22.1501C21.482 22.4667 21.6654 22.9001 21.6654 23.3334C21.6654 23.7667 21.482 24.2 21.182 24.5167C21.0154 24.6667 20.832 24.7834 20.632 24.8667C20.432 24.9501 20.2154 25.0001 19.9987 25.0001Z" fill="#5243FE"/>
<path d="M14.1667 30.8334C13.95 30.8334 13.7333 30.7834 13.5333 30.7001C13.3333 30.6167 13.15 30.5 12.9833 30.35C12.6833 30.0334 12.5 29.6001 12.5 29.1667C12.5 28.7334 12.6833 28.3001 12.9833 27.9834C13.15 27.8334 13.3333 27.7167 13.5333 27.6334C13.9333 27.4667 14.4 27.4667 14.8 27.6334C15 27.7167 15.1833 27.8334 15.35 27.9834C15.65 28.3001 15.8333 28.7334 15.8333 29.1667C15.8333 29.6001 15.65 30.0334 15.35 30.35C15.1833 30.5 15 30.6167 14.8 30.7001C14.6 30.7834 14.3833 30.8334 14.1667 30.8334Z" fill="#5243FE"/>
</svg>
