<svg width="24" height="25" viewBox="0 0 24 25" fill="none" xmlns="http://www.w3.org/2000/svg">
<path d="M16.7502 3.76605V2.20605C16.7502 1.79605 16.4102 1.45605 16.0002 1.45605C15.5902 1.45605 15.2502 1.79605 15.2502 2.20605V3.70605H8.75023V2.20605C8.75023 1.79605 8.41023 1.45605 8.00023 1.45605C7.59023 1.45605 7.25023 1.79605 7.25023 2.20605V3.76605C4.55023 4.01605 3.24023 5.62605 3.04023 8.01605C3.02023 8.30605 3.26023 8.54605 3.54023 8.54605H20.4602C20.7502 8.54605 20.9902 8.29605 20.9602 8.01605C20.7602 5.62605 19.4502 4.01605 16.7502 3.76605Z" fill="url(#paint0_linear_5070_59618)"/>
<path d="M19 15.2061C16.79 15.2061 15 16.9961 15 19.2061C15 19.9561 15.21 20.6661 15.58 21.2661C16.27 22.4261 17.54 23.2061 19 23.2061C20.46 23.2061 21.73 22.4261 22.42 21.2661C22.79 20.6661 23 19.9561 23 19.2061C23 16.9961 21.21 15.2061 19 15.2061ZM21.07 18.7761L18.94 20.7461C18.8 20.8761 18.61 20.9461 18.43 20.9461C18.24 20.9461 18.05 20.8761 17.9 20.7261L16.91 19.7361C16.62 19.4461 16.62 18.9661 16.91 18.6761C17.2 18.3861 17.68 18.3861 17.97 18.6761L18.45 19.1561L20.05 17.6761C20.35 17.3961 20.83 17.4161 21.11 17.7161C21.39 18.0161 21.37 18.4861 21.07 18.7761Z" fill="url(#paint1_linear_5070_59618)"/>
<path d="M20 10.0461H4C3.45 10.0461 3 10.4961 3 11.0461V17.2061C3 20.2061 4.5 22.2061 8 22.2061H12.93C13.62 22.2061 14.1 21.5361 13.88 20.8861C13.68 20.3061 13.51 19.6661 13.51 19.2061C13.51 16.1761 15.98 13.7061 19.01 13.7061C19.3 13.7061 19.59 13.7261 19.87 13.7761C20.47 13.8661 21.01 13.3961 21.01 12.7961V11.0561C21 10.4961 20.55 10.0461 20 10.0461ZM9.21 18.4161C9.02 18.5961 8.76 18.7061 8.5 18.7061C8.24 18.7061 7.98 18.5961 7.79 18.4161C7.61 18.2261 7.5 17.9661 7.5 17.7061C7.5 17.4461 7.61 17.1861 7.79 16.9961C7.89 16.9061 7.99 16.8361 8.12 16.7861C8.49 16.6261 8.93 16.7161 9.21 16.9961C9.39 17.1861 9.5 17.4461 9.5 17.7061C9.5 17.9661 9.39 18.2261 9.21 18.4161ZM9.21 14.9161C9.16 14.9561 9.11 14.9961 9.06 15.0361C9 15.0761 8.94 15.1061 8.88 15.1261C8.82 15.1561 8.76 15.1761 8.7 15.1861C8.63 15.1961 8.56 15.2061 8.5 15.2061C8.24 15.2061 7.98 15.0961 7.79 14.9161C7.61 14.7261 7.5 14.4661 7.5 14.2061C7.5 13.9461 7.61 13.6861 7.79 13.4961C8.02 13.2661 8.37 13.1561 8.7 13.2261C8.76 13.2361 8.82 13.2561 8.88 13.2861C8.94 13.3061 9 13.3361 9.06 13.3761C9.11 13.4161 9.16 13.4561 9.21 13.4961C9.39 13.6861 9.5 13.9461 9.5 14.2061C9.5 14.4661 9.39 14.7261 9.21 14.9161ZM12.71 14.9161C12.52 15.0961 12.26 15.2061 12 15.2061C11.74 15.2061 11.48 15.0961 11.29 14.9161C11.11 14.7261 11 14.4661 11 14.2061C11 13.9461 11.11 13.6861 11.29 13.4961C11.67 13.1261 12.34 13.1261 12.71 13.4961C12.89 13.6861 13 13.9461 13 14.2061C13 14.4661 12.89 14.7261 12.71 14.9161Z" fill="url(#paint2_linear_5070_59618)"/>
<defs>
<linearGradient id="paint0_linear_5070_59618" x1="3.03906" y1="7.46713" x2="38.3256" y2="6.50311" gradientUnits="userSpaceOnUse">
<stop stop-color="#0065FF"/>
<stop offset="0.594131" stop-color="#952BDA"/>
<stop offset="0.978815" stop-color="#FE02BF"/>
</linearGradient>
<linearGradient id="paint1_linear_5070_59618" x1="15" y1="21.9887" x2="30.7596" y2="21.8183" gradientUnits="userSpaceOnUse">
<stop stop-color="#0065FF"/>
<stop offset="0.594131" stop-color="#952BDA"/>
<stop offset="0.978815" stop-color="#FE02BF"/>
</linearGradient>
<linearGradient id="paint2_linear_5070_59618" x1="3" y1="20.3557" x2="38.4738" y2="19.7879" gradientUnits="userSpaceOnUse">
<stop stop-color="#0065FF"/>
<stop offset="0.594131" stop-color="#952BDA"/>
<stop offset="0.978815" stop-color="#FE02BF"/>
</linearGradient>
</defs>
</svg>
