<svg width="357" height="328" viewBox="0 0 357 328" fill="none" xmlns="http://www.w3.org/2000/svg">
<path d="M337.084 142.538C337.084 142.538 337.084 142.46 337.084 142.324C337.084 142.189 337.084 141.969 337.084 141.72C337.084 141.172 337.084 140.403 337.084 139.414C337.084 137.386 337.041 134.476 337.005 130.804L337.141 130.939L292.781 131.025C292.881 130.925 292.554 131.252 293.009 130.804V136.76C293.009 138.717 293.009 140.645 293.009 142.531L292.789 142.31L324.404 142.41L333.732 142.474H336.258H336.913H337.148C337.079 142.481 337.01 142.481 336.941 142.474H336.308H333.839L324.589 142.538L292.724 142.758H292.504V142.538C292.504 140.652 292.504 138.724 292.504 136.767V130.811L292.732 130.583L337.091 130.669H337.233V130.811C337.198 134.518 337.169 137.457 337.155 139.499C337.155 140.474 337.155 141.236 337.119 141.784C337.119 142.018 337.119 142.211 337.119 142.36C337.119 142.509 337.091 142.545 337.084 142.538Z" fill="#EDE3FF"/>
<path d="M73.753 257.129H32.0195V268.172H73.753V257.129Z" fill="#EDE3FF"/>
<path d="M56.1063 279.799C56.1063 279.799 56.1063 279.728 56.1063 279.6C56.1063 279.472 56.1063 279.266 56.1063 279.031C56.1063 278.511 56.1063 277.786 56.1063 276.861C56.1063 274.954 56.0636 272.214 56.0351 268.756L56.1632 268.884L14.4297 268.969L14.6432 268.756V274.399C14.6432 276.242 14.6432 278.049 14.6432 279.828L14.4368 279.622L44.1804 279.714L52.954 279.771H55.3306H55.9497H56.1703C56.1065 279.778 56.042 279.778 55.9782 279.771H55.3805H53.0536L44.3227 279.828L14.4368 279.92H14.2305V279.714C14.2305 277.935 14.2305 276.156 14.2305 274.285V268.678C14.6574 268.258 14.3514 268.564 14.4439 268.464L56.1774 268.55H56.3055V268.678C56.3055 272.164 56.2557 274.932 56.2343 276.861C56.2343 277.771 56.2343 278.49 56.2343 278.995C56.2343 279.216 56.2343 279.394 56.2343 279.536C56.2104 279.632 56.1667 279.721 56.1063 279.799Z" fill="#EDE3FF"/>
<path d="M331.247 302.641C331.241 302.574 331.241 302.508 331.247 302.441C331.247 302.292 331.247 302.107 331.247 301.879C331.247 301.36 331.247 300.634 331.247 299.702C331.247 297.795 331.247 295.055 331.19 291.604L331.297 291.732L298.565 291.818C298.636 291.718 298.394 292.024 298.728 291.604V297.197C298.728 299.04 298.728 300.855 298.728 302.627L298.572 302.42L321.876 302.513L328.757 302.577H330.614H331.098H331.276C331.276 302.577 331.226 302.577 331.119 302.577H330.656H328.828L321.99 302.634L298.572 302.733H298.408V302.52C298.408 300.748 298.408 298.962 298.408 297.091V291.619C298.743 291.192 298.501 291.498 298.579 291.405L331.311 291.49H331.411V291.619C331.411 295.105 331.368 297.873 331.354 299.794C331.354 300.712 331.354 301.424 331.354 301.929C331.354 302.157 331.354 302.335 331.354 302.477C331.323 302.534 331.287 302.589 331.247 302.641Z" fill="#EDE3FF"/>
<path d="M49.2402 131.736C49.2402 131.736 49.2402 131.665 49.2402 131.537C49.2402 131.409 49.2402 131.203 49.2402 130.968C49.2402 130.448 49.2402 129.73 49.2402 128.797C49.2402 126.89 49.2402 124.151 49.1833 120.7L49.2829 120.828L16.5864 120.906L16.75 120.7V126.293C16.75 128.136 16.75 129.95 16.75 131.722L16.5864 131.516L39.8974 131.608L46.7711 131.672H48.6354H49.1193H49.2901C49.2901 131.672 49.2474 131.672 49.1406 131.672H48.6781H46.8494L40.0112 131.729L16.5864 131.822H16.3516V120.7C16.686 120.273 16.4441 120.579 16.5223 120.486L49.2545 120.565H49.3612V120.7C49.3612 124.187 49.3185 126.947 49.3043 128.876C49.3043 129.794 49.3043 130.505 49.3043 131.01C49.3043 131.238 49.3043 131.416 49.3043 131.558C49.3043 131.701 49.2474 131.743 49.2402 131.736Z" fill="#EDE3FF"/>
<path d="M273.939 34.4649C273.934 34.3962 273.934 34.3273 273.939 34.2586V33.6964C273.939 33.177 273.939 32.4512 273.939 31.519C273.939 29.6191 273.939 26.8725 273.889 23.4214L273.989 23.5495L241.256 23.6349C241.328 23.5352 241.086 23.8483 241.42 23.4214V34.4578L241.256 34.2515L264.56 34.3511L271.441 34.408H273.298H273.789C273.846 34.3986 273.904 34.3986 273.96 34.408H273.811H273.341H271.519L264.674 34.4649L241.207 34.6713H241.043V29.0285C241.043 28.1106 241.043 27.1785 241.043 26.2463V23.4C241.377 22.9731 241.143 23.2791 241.214 23.1866L273.946 23.272H274.046V23.4C274.046 26.8867 274.003 29.6547 273.989 31.576C273.989 32.4939 273.989 33.2054 273.989 33.7107C273.989 33.9384 273.989 34.1163 273.989 34.2586C273.977 34.3284 273.96 34.3973 273.939 34.4649Z" fill="#EDE3FF"/>
<path d="M331.247 229.57C331.241 229.503 331.241 229.437 331.247 229.37C331.247 229.221 331.247 229.036 331.247 228.801C331.247 228.282 331.247 227.563 331.247 226.631C331.247 224.724 331.247 221.984 331.19 218.533L331.297 218.661L298.565 218.747C298.636 218.647 298.394 218.953 298.728 218.533V224.126C298.728 225.969 298.728 227.784 298.728 229.555L298.572 229.349L321.876 229.442L328.757 229.506H330.614H331.098H331.276C331.276 229.506 331.226 229.506 331.119 229.506H330.656H328.828L321.99 229.563L298.572 229.655H298.408V229.57C298.408 227.798 298.408 226.012 298.408 224.14V218.548C298.743 218.121 298.501 218.427 298.579 218.334L331.311 218.412H331.411V218.548C331.411 222.034 331.368 224.802 331.354 226.723C331.354 227.641 331.354 228.353 331.354 228.858C331.354 229.086 331.354 229.264 331.354 229.406C331.323 229.463 331.287 229.518 331.247 229.57Z" fill="#EDE3FF"/>
<path d="M344.719 118.821H306.43V130.555H344.719V118.821Z" fill="#EDE3FF"/>
<path d="M92.1261 30.7576H50.3926V41.8011H92.1261V30.7576Z" fill="#EDE3FF"/>
<path d="M74.4781 53.4211C74.4677 53.3551 74.4677 53.2878 74.4781 53.2218C74.4781 53.0795 74.4781 52.8874 74.4781 52.6597C74.4781 52.1402 74.4781 51.4144 74.4425 50.4823C74.4425 48.5753 74.4425 45.8357 74.3713 42.3846L74.5065 42.5127L32.7161 42.5981C32.8086 42.4985 32.5027 42.8116 32.9225 42.3846V53.414L32.709 53.2076L62.4526 53.3072L71.2333 53.3641H73.6028H74.229H74.4496C74.3836 53.3753 74.3163 53.3753 74.2504 53.3641H73.6598H71.3258L62.602 53.5349L32.7161 53.6345H32.5098V42.4273L32.7232 42.2139L74.4567 42.2993H74.5848V42.4273C74.5492 45.914 74.5279 48.682 74.5136 50.6033C74.5136 51.5212 74.5136 52.2327 74.5136 52.738C74.5136 52.9657 74.5136 53.1436 74.5136 53.2859C74.5043 53.3316 74.4924 53.3767 74.4781 53.4211Z" fill="#EDE3FF"/>
<path d="M172.996 331.794C254.541 331.794 320.646 266.443 320.646 185.83C320.646 105.216 254.541 39.8657 172.996 39.8657C91.451 39.8657 25.3457 105.216 25.3457 185.83C25.3457 266.443 91.451 331.794 172.996 331.794Z" fill="#5243FE"/>
<g opacity="0.7">
<path d="M172.996 331.794C254.541 331.794 320.646 266.443 320.646 185.83C320.646 105.216 254.541 39.8657 172.996 39.8657C91.451 39.8657 25.3457 105.216 25.3457 185.83C25.3457 266.443 91.451 331.794 172.996 331.794Z" fill="white"/>
</g>
<path d="M189.218 204.836C189.218 205.694 188.964 206.533 188.487 207.247C188.01 207.961 187.332 208.517 186.539 208.846C185.746 209.174 184.873 209.26 184.031 209.093C183.189 208.925 182.415 208.512 181.808 207.905C181.201 207.298 180.788 206.524 180.621 205.682C180.453 204.84 180.539 203.968 180.868 203.174C181.196 202.381 181.752 201.703 182.466 201.226C183.18 200.75 184.019 200.495 184.878 200.495C186.029 200.495 187.133 200.952 187.947 201.766C188.761 202.58 189.218 203.684 189.218 204.836Z" fill="white"/>
<path d="M160.865 220.725C160.858 221.144 160.728 221.552 160.49 221.897C160.253 222.243 159.919 222.511 159.531 222.668C159.142 222.825 158.716 222.865 158.305 222.781C157.894 222.698 157.517 222.495 157.221 222.199C156.925 221.902 156.722 221.525 156.638 221.114C156.555 220.704 156.594 220.277 156.751 219.889C156.909 219.5 157.177 219.166 157.522 218.929C157.868 218.692 158.275 218.562 158.695 218.555C159.27 218.557 159.82 218.786 160.227 219.192C160.634 219.599 160.863 220.15 160.865 220.725Z" fill="white"/>
<path d="M152.76 45.6791C152.76 45.8214 150.625 46.3053 146.726 47.2659C141.243 48.6235 135.833 50.2574 130.516 52.1615C128.815 52.7308 127.093 53.4566 125.265 54.1468C123.436 54.837 121.6 55.6767 119.665 56.5021C117.729 57.3275 115.772 58.2525 113.787 59.2843C112.791 59.7895 111.766 60.2876 110.749 60.8213L107.675 62.4864C89.6799 72.3988 73.9245 85.9183 61.3943 102.199L59.2596 104.981C58.548 105.906 57.9361 106.838 57.2814 107.749C55.9579 109.549 54.8123 111.4 53.6311 113.136C52.4499 114.872 51.4252 116.622 50.4432 118.309C49.4613 119.995 48.5007 121.603 47.6824 123.19C44.9897 128.157 42.5483 133.256 40.3674 138.468C38.8305 142.161 38.0193 144.231 37.877 144.16C37.9251 143.62 38.0522 143.091 38.2541 142.588C38.5672 141.577 38.9657 140.069 39.6772 138.183C41.6104 132.821 43.8923 127.592 46.5083 122.528C47.291 120.906 48.2516 119.277 49.1838 117.548C50.1159 115.818 51.2189 114.082 52.3147 112.261C53.4105 110.439 54.6059 108.603 55.9223 106.767C56.5698 105.842 57.2103 104.889 57.8934 103.921L60.0281 101.075C72.5674 84.4885 88.5347 70.8001 106.842 60.9423L109.966 59.2843C111.005 58.7578 112.044 58.2739 113.054 57.7758C115.075 56.7511 117.11 55.9257 119.038 55.0434C120.967 54.161 122.888 53.4495 124.731 52.7664C126.574 52.0832 128.339 51.4073 130.068 50.8736C135.469 49.0791 140.981 47.6387 146.569 46.5615C148.54 46.1488 150.127 45.9638 151.144 45.8072C151.673 45.6795 152.218 45.6362 152.76 45.6791Z" fill="white"/>
<path d="M31.4226 182.955C30.9316 182.99 30.2129 177.504 31.0454 170.787C31.878 164.07 33.8917 158.904 34.3329 159.06C34.774 159.217 33.6711 164.461 32.9097 171.008C32.1484 177.554 31.9562 182.926 31.4226 182.955Z" fill="white"/>
<path d="M127.67 267.432C127.77 261.918 129.898 256.634 133.647 252.589C135.454 260.039 127.67 267.432 127.67 267.432Z" fill="#5243FE"/>
<path d="M136.344 263.227C141.442 261.125 147.134 260.968 152.34 262.786C146.235 267.418 136.344 263.227 136.344 263.227Z" fill="#5243FE"/>
<path d="M137.318 258.402C136.493 254.132 137.268 249.707 139.495 245.971C142.128 251.429 137.318 258.402 137.318 258.402Z" fill="#5243FE"/>
<path d="M103.789 240.99C116.469 244.37 123.272 255.393 123.272 255.393C112.413 255.4 103.789 240.99 103.789 240.99Z" fill="#5243FE"/>
<path d="M124.041 246.192C123.386 232.523 136.742 217.053 136.742 217.053C134.722 234.024 124.041 246.192 124.041 246.192Z" fill="#5243FE"/>
<path d="M123.976 207.262C124.239 214.11 122.575 220.895 119.173 226.844C117.287 218.049 123.976 207.262 123.976 207.262Z" fill="#5243FE"/>
<path d="M118.817 235.035C108.855 233.96 103.391 224.02 103.391 224.02C115.48 227.435 118.817 235.035 118.817 235.035Z" fill="#5243FE"/>
<path d="M97.2715 276.818C101.959 273.914 107.552 272.837 112.983 273.794C107.703 279.379 97.2715 276.818 97.2715 276.818Z" fill="#5243FE"/>
<path d="M123.164 281.308C121.891 284.545 119.511 287.225 116.447 288.872C116.874 284.261 123.164 281.308 123.164 281.308Z" fill="#5243FE"/>
<path d="M121.884 279.835C118.274 281.93 114.042 282.686 109.93 281.97C113.779 277.956 121.884 279.835 121.884 279.835Z" fill="#5243FE"/>
<path d="M126.992 298.229C126.992 298.229 126.992 298.165 126.992 298.03C126.992 297.894 126.992 297.674 126.992 297.432C126.992 296.87 126.992 296.108 126.992 295.141C126.992 294.173 126.992 292.935 126.992 291.519C126.992 290.103 126.992 288.502 126.892 286.723C126.807 283.165 126.558 278.945 126.181 274.263C125.804 269.581 125.206 264.444 124.423 259.078C122.844 248.341 120.688 238.749 118.951 231.861C118.076 228.41 117.336 225.628 116.817 223.713C116.568 222.788 116.368 222.048 116.219 221.508C116.162 221.273 116.112 221.081 116.077 220.924C116.052 220.861 116.04 220.793 116.041 220.725C116.076 220.785 116.103 220.849 116.119 220.917C116.169 221.066 116.233 221.251 116.304 221.479C116.475 222.013 116.696 222.746 117.016 223.671C117.607 225.571 118.396 228.339 119.307 231.776C121.675 240.745 123.547 249.839 124.914 259.014C125.697 264.387 126.252 269.538 126.643 274.228C127.035 278.917 127.198 283.158 127.248 286.716C127.305 288.495 127.248 290.103 127.248 291.519C127.248 292.935 127.248 294.152 127.191 295.148C127.134 296.144 127.127 296.877 127.113 297.432C127.113 297.674 127.113 297.866 127.113 298.03C127.085 298.103 127.044 298.17 126.992 298.229Z" fill="#5243FE"/>
<path d="M108.649 269.304C108.721 269.197 112.762 271.844 117.672 275.21C122.582 278.575 126.51 281.393 126.439 281.493C126.367 281.592 122.333 278.953 117.416 275.58C112.499 272.207 108.578 269.418 108.649 269.304Z" fill="#5243FE"/>
<path d="M126.439 270.755C126.616 270.504 126.824 270.277 127.059 270.079L128.859 268.343L134.864 262.714L140.87 257.079L142.692 255.371C142.903 255.147 143.142 254.95 143.403 254.788C143.239 255.048 143.043 255.287 142.82 255.499C142.428 255.94 141.838 256.552 141.098 257.307C139.618 258.815 137.54 260.864 135.178 263.042C132.815 265.219 130.666 267.19 129.079 268.578C128.29 269.289 127.656 269.83 127.187 270.207C126.965 270.425 126.714 270.609 126.439 270.755Z" fill="#5243FE"/>
<path d="M95.8184 262.821C95.8184 262.821 106.143 262.629 110.512 270.755C107.614 270.671 104.776 269.909 102.224 268.531C99.6727 267.154 97.479 265.198 95.8184 262.821Z" fill="#5243FE"/>
<path d="M109.923 258.68C109.923 258.68 118.334 264.678 116.996 273.808C114.72 272.012 112.895 269.708 111.667 267.082C110.439 264.455 109.842 261.578 109.923 258.68Z" fill="#5243FE"/>
<path d="M154.219 243.901C154.219 243.901 150.896 255.456 140.357 257.534C141.445 254.338 143.264 251.441 145.671 249.074C148.078 246.706 151.005 244.935 154.219 243.901Z" fill="#5243FE"/>
<path d="M105.334 200.922C105.334 200.922 118.512 209.518 117.054 223.493C113.476 220.905 110.553 217.516 108.518 213.597C106.483 209.678 105.393 205.337 105.334 200.922Z" fill="#5243FE"/>
<path d="M149.186 277.366C148.931 277.636 148.644 277.875 148.332 278.077C147.763 278.49 146.951 279.102 145.969 279.885C140.831 283.947 136.422 288.856 132.934 294.401C132.265 295.461 131.738 296.336 131.389 296.941C131.227 297.27 131.029 297.58 130.799 297.866C130.907 297.517 131.052 297.18 131.233 296.863C131.539 296.222 132.023 295.326 132.656 294.237C136.023 288.553 140.479 283.591 145.77 279.636C146.781 278.881 147.62 278.298 148.225 277.935C148.526 277.714 148.848 277.524 149.186 277.366Z" fill="#5243FE"/>
<path d="M137.724 285.954C136.769 280.524 137.846 274.931 140.748 270.243C142.164 280.041 137.724 285.954 137.724 285.954Z" fill="#5243FE"/>
<path d="M146.568 281.123C150.052 279.135 154.145 278.499 158.067 279.337C151.727 282.71 146.568 281.123 146.568 281.123Z" fill="#5243FE"/>
<path d="M107.781 299.303L110.628 318.174C121.166 322.849 131.647 326.514 142.029 328.656L148.084 299.773L107.781 299.303Z" fill="#5243FE"/>
<path d="M104.486 292.899V298.976C104.485 299.29 104.547 299.602 104.666 299.892C104.786 300.183 104.962 300.447 105.185 300.669C105.407 300.891 105.671 301.067 105.961 301.187C106.252 301.307 106.563 301.368 106.877 301.367H148.461C148.776 301.368 149.087 301.307 149.378 301.187C149.669 301.067 149.934 300.891 150.156 300.669C150.379 300.447 150.556 300.183 150.677 299.893C150.797 299.602 150.859 299.291 150.859 298.976V292.899H104.486Z" fill="#5243FE"/>
<g opacity="0.6">
<path d="M133.647 252.589C129.898 256.634 127.77 261.918 127.67 267.432C127.67 267.432 135.454 260.039 133.647 252.589Z" fill="white"/>
</g>
<g opacity="0.6">
<path d="M152.34 262.786C147.134 260.968 141.442 261.125 136.344 263.227C136.344 263.227 146.235 267.418 152.34 262.786Z" fill="white"/>
</g>
<g opacity="0.6">
<path d="M139.51 245.971C137.277 249.705 136.497 254.13 137.318 258.402C137.318 258.402 142.128 251.429 139.51 245.971Z" fill="white"/>
</g>
<g opacity="0.6">
<path d="M103.789 240.99C103.789 240.99 112.413 255.4 123.272 255.393C123.272 255.393 116.469 244.37 103.789 240.99Z" fill="white"/>
</g>
<g opacity="0.6">
<path d="M136.742 217.053C136.742 217.053 123.386 232.523 124.041 246.192C124.041 246.192 134.722 234.024 136.742 217.053Z" fill="white"/>
</g>
<g opacity="0.6">
<path d="M123.976 207.262C123.976 207.262 117.287 218.049 119.173 226.844C122.575 220.895 124.239 214.11 123.976 207.262Z" fill="white"/>
</g>
<g opacity="0.6">
<path d="M103.398 224.02C103.398 224.02 108.835 233.981 118.825 235.035C118.818 235.035 115.481 227.435 103.398 224.02Z" fill="white"/>
</g>
<g opacity="0.6">
<path d="M97.2715 276.818C97.2715 276.818 107.703 279.344 112.983 273.794C107.552 272.837 101.959 273.914 97.2715 276.818Z" fill="white"/>
</g>
<g opacity="0.6">
<path d="M123.164 281.308C123.164 281.308 116.874 284.261 116.447 288.872C119.511 287.225 121.891 284.545 123.164 281.308Z" fill="white"/>
</g>
<g opacity="0.6">
<path d="M109.93 281.97C114.042 282.686 118.274 281.93 121.884 279.835C121.884 279.835 113.779 277.956 109.93 281.97Z" fill="white"/>
</g>
<g opacity="0.6">
<path d="M134.864 262.715L128.859 268.343L127.059 270.079C126.824 270.277 126.616 270.504 126.439 270.755C126.701 270.607 126.94 270.422 127.151 270.207C127.606 269.83 128.254 269.275 129.044 268.578C130.631 267.19 132.794 265.241 135.142 263.042C137.49 260.843 139.511 258.879 140.984 257.349C151.003 254.93 154.191 243.865 154.191 243.865C150.977 244.899 148.05 246.671 145.643 249.038C143.236 251.405 141.417 254.303 140.329 257.499L134.864 262.715Z" fill="white"/>
</g>
<g opacity="0.6">
<path d="M110.515 270.755C112.116 271.915 114.606 273.666 117.424 275.594C122.341 278.967 126.376 281.614 126.447 281.507C126.518 281.4 122.59 278.597 117.68 275.224C114.585 273.089 111.838 271.275 110.209 270.243C105.683 262.672 95.8281 262.85 95.8281 262.85C97.4911 265.221 99.685 267.17 102.235 268.542C104.785 269.915 107.62 270.673 110.515 270.755Z" fill="white"/>
</g>
<g opacity="0.6">
<path d="M116.996 273.808C118.334 264.678 109.923 258.68 109.923 258.68C109.842 261.578 110.439 264.455 111.667 267.082C112.895 269.708 114.72 272.012 116.996 273.808Z" fill="white"/>
</g>
<g opacity="0.6">
<path d="M138.834 286.566C141.017 284.14 143.397 281.898 145.949 279.863C146.931 279.081 147.743 278.44 148.312 278.056C148.624 277.854 148.911 277.615 149.166 277.344C148.831 277.496 148.512 277.679 148.212 277.892C147.607 278.255 146.789 278.839 145.757 279.593C143.117 281.565 140.679 283.794 138.478 286.246C136.644 288.313 134.978 290.523 133.497 292.856H127.192C127.192 292.422 127.192 291.974 127.192 291.497C127.192 290.074 127.192 288.473 127.192 286.694C127.143 283.136 126.929 278.903 126.588 274.206C126.246 269.51 125.641 264.365 124.859 258.993C123.492 249.817 121.62 240.724 119.251 231.754C118.341 228.317 117.551 225.549 116.96 223.649L116.861 223.315L117.095 223.471C118.518 209.496 105.376 200.901 105.376 200.901C105.436 205.221 106.479 209.471 108.425 213.329C110.372 217.187 113.171 220.551 116.611 223.165C116.654 223.336 116.704 223.507 116.754 223.692C117.287 225.606 118.027 228.388 118.888 231.84C120.625 238.727 122.781 248.319 124.36 259.057C125.143 264.422 125.712 269.56 126.118 274.242C126.524 278.924 126.73 283.151 126.83 286.701C126.908 288.48 126.908 290.088 126.929 291.497C126.929 291.974 126.929 292.422 126.929 292.856H104.486V298.933C104.485 299.248 104.547 299.559 104.666 299.849C104.786 300.14 104.962 300.404 105.185 300.626C105.407 300.848 105.671 301.024 105.961 301.144C106.252 301.264 106.563 301.325 106.877 301.324H108.087L110.649 318.16C120.679 322.846 131.216 326.363 142.05 328.641L147.743 301.324H148.454C148.769 301.325 149.08 301.264 149.371 301.144C149.662 301.024 149.927 300.848 150.149 300.626C150.372 300.404 150.549 300.14 150.669 299.85C150.79 299.559 150.852 299.248 150.852 298.933V292.899H133.917C135.409 290.678 137.052 288.563 138.834 286.566Z" fill="white"/>
</g>
<g opacity="0.6">
<path d="M137.724 285.954C137.724 285.954 142.164 280.041 140.748 270.243C137.846 274.931 136.769 280.524 137.724 285.954Z" fill="white"/>
</g>
<g opacity="0.6">
<path d="M158.089 279.337C154.16 278.494 150.058 279.13 146.568 281.123C146.568 281.123 151.727 282.71 158.089 279.337Z" fill="white"/>
</g>
<path d="M151.215 74.0991H107.66V119.504H151.215V74.0991Z" fill="#5243FE"/>
<g opacity="0.6">
<path d="M151.215 74.0991H107.66V119.504H151.215V74.0991Z" fill="white"/>
</g>
<path d="M145.152 80.2898H113.516V113.072H145.152V80.2898Z" fill="#5243FE"/>
<g opacity="0.7">
<path d="M145.152 80.2898H113.516V113.072H145.152V80.2898Z" fill="white"/>
</g>
<path d="M134.751 91.4829H124.127V102.107H134.751V91.4829Z" fill="#5243FE"/>
<g opacity="0.6">
<path d="M134.751 91.4829H124.127V102.107H134.751V91.4829Z" fill="white"/>
</g>
<path d="M197.04 61.3833H167.432V92.2511H197.04V61.3833Z" fill="#5243FE"/>
<g opacity="0.6">
<path d="M197.04 61.3833H167.432V92.2511H197.04V61.3833Z" fill="white"/>
</g>
<path d="M192.919 65.5959H171.408V87.8823H192.919V65.5959Z" fill="#5243FE"/>
<g opacity="0.7">
<path d="M192.919 65.5959H171.408V87.8823H192.919V65.5959Z" fill="white"/>
</g>
<path d="M185.847 73.2026H178.625V80.4251H185.847V73.2026Z" fill="#5243FE"/>
<g opacity="0.6">
<path d="M185.847 73.2026H178.625V80.4251H185.847V73.2026Z" fill="white"/>
</g>
<path d="M61.8282 154.428C60.5519 153.738 59.4888 152.712 58.7542 151.461C58.0191 150.158 57.6328 148.687 57.6328 147.191C57.6328 145.695 58.0191 144.225 58.7542 142.922C59.4867 141.662 60.5562 140.632 61.8424 139.948C63.1973 139.218 64.7156 138.846 66.2541 138.866C67.4469 138.851 68.6312 139.069 69.7408 139.506C70.7754 139.918 71.6991 140.566 72.4376 141.399L70.922 142.822C70.3386 142.196 69.6294 141.701 68.8408 141.368C68.0522 141.036 67.2021 140.874 66.3466 140.894C65.2033 140.881 64.076 141.163 63.0734 141.712C62.1189 142.233 61.3281 143.009 60.7893 143.954C60.244 144.933 59.9579 146.035 59.9579 147.156C59.9579 148.276 60.244 149.379 60.7893 150.358C61.3281 151.302 62.1189 152.078 63.0734 152.599C64.0747 153.152 65.2029 153.434 66.3466 153.418C67.2043 153.434 68.0556 153.268 68.8443 152.93C69.633 152.593 70.3412 152.092 70.922 151.461L72.4376 152.927C71.6936 153.772 70.7629 154.432 69.7194 154.855C68.6084 155.297 67.4214 155.517 66.2256 155.502C64.6919 155.528 63.1775 155.158 61.8282 154.428Z" fill="#263238"/>
<path d="M78.3057 154.428C77.021 153.735 75.9505 152.704 75.2104 151.447C74.461 150.148 74.0664 148.676 74.0664 147.177C74.0664 145.678 74.461 144.206 75.2104 142.908C75.9505 141.65 77.021 140.619 78.3057 139.926C79.6729 139.216 81.191 138.845 82.7317 138.845C84.2724 138.845 85.7905 139.216 87.1576 139.926C88.4438 140.611 89.5133 141.641 90.2458 142.901C90.9809 144.203 91.3672 145.674 91.3672 147.17C91.3672 148.666 90.9809 150.137 90.2458 151.439C89.5096 152.694 88.4409 153.721 87.1576 154.407C85.7905 155.117 84.2724 155.488 82.7317 155.488C81.191 155.488 79.6729 155.117 78.3057 154.407V154.428ZM85.9622 152.628C86.9025 152.098 87.6819 151.323 88.2179 150.386C88.7631 149.407 89.0492 148.305 89.0492 147.184C89.0492 146.063 88.7631 144.961 88.2179 143.982C87.6819 143.045 86.9025 142.271 85.9622 141.741C84.9806 141.19 83.8713 140.908 82.7459 140.922C81.6139 140.909 80.498 141.191 79.5083 141.741C78.5573 142.264 77.7693 143.04 77.2312 143.982C76.686 144.961 76.3999 146.063 76.3999 147.184C76.3999 148.305 76.686 149.407 77.2312 150.386C77.7693 151.329 78.5573 152.105 79.5083 152.628C80.4967 153.18 81.6135 153.463 82.7459 153.446C83.8717 153.464 84.982 153.182 85.9622 152.628Z" fill="#263238"/>
<path d="M109.993 155.325V143.477L104.115 153.354H103.048L97.1706 143.548V155.325H94.9434V139.065H96.8432L103.624 150.493L110.313 139.065H112.22V155.325H109.993Z" fill="#263238"/>
<path d="M119.421 141.086V146.779H127.576V148.771H119.421V155.346H117.102V139.065H128.572V141.086H119.421Z" fill="#263238"/>
<path d="M134.571 154.428C133.282 153.738 132.209 152.706 131.468 151.446C130.725 150.146 130.334 148.675 130.334 147.177C130.334 145.679 130.725 144.208 131.468 142.908C132.209 141.648 133.282 140.616 134.571 139.926C135.936 139.216 137.453 138.845 138.993 138.845C140.533 138.845 142.049 139.216 143.415 139.926C144.701 140.614 145.772 141.643 146.511 142.901C147.241 144.205 147.625 145.675 147.625 147.17C147.625 148.665 147.241 150.135 146.511 151.439C145.77 152.693 144.699 153.719 143.415 154.407C142.049 155.117 140.533 155.488 138.993 155.488C137.453 155.488 135.936 155.117 134.571 154.407V154.428ZM142.22 152.628C143.162 152.1 143.942 151.325 144.476 150.386C145.021 149.407 145.307 148.305 145.307 147.184C145.307 146.063 145.021 144.961 144.476 143.982C143.942 143.044 143.162 142.269 142.22 141.741C141.238 141.19 140.129 140.908 139.004 140.922C137.872 140.91 136.756 141.192 135.766 141.741C134.815 142.264 134.027 143.04 133.489 143.982C132.944 144.961 132.658 146.063 132.658 147.184C132.658 148.305 132.944 149.407 133.489 150.386C134.027 151.329 134.815 152.105 135.766 152.628C136.755 153.179 137.871 153.462 139.004 153.446C140.129 153.464 141.24 153.182 142.22 152.628Z" fill="#263238"/>
<path d="M162.045 155.325L158.537 150.344C158.103 150.379 157.769 150.393 157.52 150.393H153.499V155.339H151.18V139.065H157.52C159.307 138.96 161.073 139.495 162.501 140.574C163.103 141.082 163.58 141.721 163.894 142.443C164.209 143.165 164.353 143.95 164.315 144.736C164.348 145.875 164.022 146.995 163.383 147.939C162.728 148.846 161.801 149.522 160.736 149.867L164.593 155.325H162.045ZM160.8 147.448C161.168 147.099 161.462 146.678 161.662 146.212C161.862 145.746 161.966 145.244 161.966 144.736C161.966 144.229 161.862 143.727 161.662 143.261C161.462 142.795 161.168 142.374 160.8 142.025C159.819 141.335 158.631 141.004 157.434 141.086H153.485V148.401H157.434C158.633 148.486 159.824 148.149 160.8 147.448Z" fill="#263238"/>
<path d="M171.059 141.086H165.48V139.065H178.929V141.086H173.358V155.318H171.059V141.086Z" fill="#263238"/>
<path d="M83.2387 186.62V193.095H57.3945V187.986L71.9461 170.716H57.7645V164.241H82.6196V169.35L68.0681 186.62H83.2387Z" fill="#263238"/>
<path d="M92.9004 191.736C90.5171 190.485 88.5212 188.606 87.1286 186.303C85.7361 184 85 181.359 85 178.668C85 175.976 85.7361 173.336 87.1286 171.033C88.5212 168.729 90.5171 166.851 92.9004 165.6C95.4557 164.327 98.2715 163.665 101.126 163.665C103.981 163.665 106.797 164.327 109.352 165.6C111.735 166.851 113.731 168.729 115.124 171.033C116.516 173.336 117.252 175.976 117.252 178.668C117.252 181.359 116.516 184 115.124 186.303C113.731 188.606 111.735 190.485 109.352 191.736C106.797 193.008 103.981 193.671 101.126 193.671C98.2715 193.671 95.4557 193.008 92.9004 191.736ZM105.082 185.88C106.268 185.191 107.239 184.185 107.886 182.976C108.564 181.641 108.918 180.165 108.918 178.668C108.918 177.17 108.564 175.694 107.886 174.359C107.237 173.152 106.267 172.147 105.082 171.456C103.874 170.779 102.512 170.424 101.126 170.424C99.7408 170.424 98.3786 170.779 97.1699 171.456C95.9842 172.145 95.0135 173.15 94.3663 174.359C93.6882 175.694 93.3347 177.17 93.3347 178.668C93.3347 180.165 93.6882 181.641 94.3663 182.976C95.0113 184.187 95.9825 185.193 97.1699 185.88C98.3786 186.556 99.7408 186.912 101.126 186.912C102.512 186.912 103.874 186.556 105.082 185.88Z" fill="#263238"/>
<path d="M148.902 164.241V193.095H142.177L129.44 177.718V193.095H121.449V164.241H128.166L140.875 179.618V164.241H148.902Z" fill="#263238"/>
<path d="M177.835 186.79V193.095H154.666V164.241H177.301V170.545H162.749V175.412H175.558V181.51H162.749V186.79H177.835Z" fill="#263238"/>
<path d="M50.7479 289.469C51.8742 289.559 52.9709 289.875 53.9723 290.398C54.9737 290.921 55.8591 291.641 56.5756 292.515C57.9995 294.277 59.0022 296.341 59.5073 298.549C60.596 302.769 59.8631 307.735 58.6249 311.919C54.078 310.247 51.3029 305.359 50.0861 302.79C48.108 298.734 47.005 290.195 50.7977 289.469" fill="#5243FE"/>
<path d="M65.1424 317.093C64.463 316.027 64.0799 314.799 64.0324 313.536C63.9849 312.273 64.2747 311.02 64.872 309.906C65.4828 308.801 66.3077 307.829 67.2986 307.047C68.2895 306.265 69.4264 305.689 70.6428 305.352C71.7528 305.017 73.0479 304.882 74.0085 305.537C74.4409 305.872 74.7763 306.316 74.9801 306.824C75.184 307.332 75.249 307.884 75.1684 308.426C74.9884 309.504 74.5269 310.515 73.8306 311.357C71.5821 314.346 68.8496 316.822 65.1424 317.093Z" fill="#5243FE"/>
<path d="M65.5258 331.167C65.4334 330.882 65.3667 330.589 65.3265 330.292C65.2127 329.666 65.0561 328.869 64.8782 327.88C64.3009 325.231 64.1567 322.506 64.4513 319.811C64.791 317.103 65.8445 314.534 67.5039 312.368C68.0138 311.722 68.5991 311.139 69.2473 310.632C69.475 310.447 69.6742 310.333 69.7952 310.247C69.9161 310.162 69.9944 310.126 70.0015 310.133C69.1489 310.842 68.3716 311.636 67.6818 312.503C66.0928 314.667 65.0791 317.198 64.7359 319.861C64.4514 322.524 64.5641 325.214 65.0704 327.844C65.2269 328.869 65.3479 329.694 65.419 330.271C65.4822 330.566 65.5179 330.866 65.5258 331.167Z" fill="#263238"/>
<path d="M52.1641 295.895C52.2403 296.003 52.3025 296.12 52.3491 296.244C52.4629 296.507 52.6195 296.841 52.8045 297.261C53.203 298.151 53.758 299.439 54.434 301.04C55.7788 304.242 57.5791 308.696 59.4149 313.656C61.2508 318.615 62.8874 323.148 63.9974 326.464C64.5525 328.115 64.9865 329.452 65.2783 330.378L65.6056 331.445C65.6531 331.568 65.6842 331.698 65.6981 331.829C65.6365 331.713 65.5864 331.592 65.5487 331.466L65.1644 330.413C64.8229 329.467 64.3532 328.15 63.784 326.542C62.6241 323.269 60.9946 318.75 59.1232 313.798C57.2518 308.845 55.4871 304.348 54.2276 301.125L52.6906 297.311C52.527 296.877 52.3918 296.535 52.285 296.265C52.2367 296.144 52.1963 296.021 52.1641 295.895Z" fill="#263238"/>
<path d="M60.1906 321.803C58.8392 319.509 56.9611 317.57 54.7116 316.146C52.4621 314.722 49.9059 313.853 47.2543 313.613C45.9023 313.499 44.2799 313.713 43.6965 314.922C43.113 316.132 43.8744 317.569 44.7852 318.573C46.7222 320.632 49.2255 322.072 51.9796 322.712C54.7337 323.351 57.6154 323.161 60.2618 322.166" fill="#5243FE"/>
<path d="M49.2754 317.235C49.556 317.221 49.8374 317.235 50.1151 317.278C50.4467 317.3 50.7769 317.34 51.1042 317.398C51.5376 317.462 51.9674 317.547 52.3921 317.655C52.9096 317.774 53.4204 317.921 53.922 318.096C54.504 318.282 55.0743 318.503 55.6297 318.758C56.8924 319.347 58.0857 320.075 59.1876 320.928C60.2857 321.805 61.2789 322.805 62.1477 323.909C62.5225 324.392 62.8694 324.896 63.1866 325.418C63.4683 325.878 63.7249 326.353 63.9551 326.841C64.1533 327.232 64.3291 327.633 64.4816 328.044C64.6113 328.349 64.7206 328.663 64.809 328.983C64.907 329.248 64.9785 329.522 65.0224 329.801C64.9513 329.801 64.6382 328.655 63.7558 326.955C63.5197 326.487 63.2559 326.033 62.966 325.596C62.645 325.086 62.2958 324.594 61.92 324.123C61.07 323.041 60.1062 322.053 59.0453 321.177C57.9363 320.344 56.744 319.629 55.4874 319.042C54.911 318.786 54.356 318.537 53.8152 318.331C53.2744 318.124 52.7763 317.996 52.3138 317.861C50.5064 317.377 49.2683 317.306 49.2754 317.235Z" fill="#263238"/>
<path d="M277.234 72.3984L283.226 71.6868C286.596 75.0989 291.121 77.1271 295.91 77.3729C300.7 77.6186 305.408 76.0641 309.11 73.0148C312.812 69.9655 315.239 65.6419 315.915 60.8939C316.591 56.1458 315.467 51.3166 312.763 47.3554C310.06 43.3941 305.972 40.5872 301.304 39.4864C296.637 38.3856 291.726 39.0704 287.537 41.4063C283.348 43.7421 280.185 47.5602 278.668 52.11C277.152 56.6598 277.391 61.6123 279.341 65.9943L277.234 72.3984Z" fill="white"/>
<path d="M277.236 72.3984C277.236 72.3984 277.292 72.2561 277.385 71.9785C277.477 71.701 277.62 71.267 277.798 70.7475C278.168 69.666 278.701 68.0792 279.392 66.0085H279.292C279.297 66.0146 279.304 66.0194 279.311 66.0227C279.319 66.0261 279.327 66.0278 279.335 66.0278C279.343 66.0278 279.351 66.0261 279.358 66.0227C279.365 66.0194 279.372 66.0146 279.377 66.0085C279.377 66.0085 279.377 65.9658 279.377 65.9373C278.104 63.0195 277.576 59.831 277.84 56.6585C277.927 55.6732 278.086 54.6957 278.317 53.7339C278.587 52.71 278.929 51.7065 279.342 50.7311C280.989 46.8855 283.854 43.6871 287.495 41.6276C291.137 39.568 295.354 38.7611 299.498 39.3309C303.643 39.9007 307.486 41.8157 310.437 44.7816C313.387 47.7474 315.282 51.6002 315.831 55.7477C316.203 58.6901 315.899 61.6787 314.941 64.4857C314.033 67.1251 312.547 69.5291 310.594 71.5231C307.12 75.0848 302.396 77.1545 297.423 77.294H296.604C296.337 77.3118 296.068 77.3118 295.8 77.294L294.235 77.1517C293.25 76.9971 292.276 76.7832 291.317 76.5112C288.264 75.5973 285.487 73.9339 283.241 71.6726C283.225 71.6672 283.207 71.6672 283.191 71.6726L278.758 72.2276L277.606 72.377L277.207 72.4268H277.584L278.723 72.3059L283.206 71.8149H283.156C285.405 74.1113 288.194 75.8068 291.268 76.7461C292.233 77.0253 293.214 77.2463 294.206 77.4078L295.786 77.5573C296.059 77.5751 296.332 77.5751 296.604 77.5573H297.43C302.456 77.4186 307.231 75.3284 310.743 71.7295C312.724 69.7134 314.233 67.2832 315.162 64.6138C316.137 61.7663 316.446 58.7333 316.066 55.7477C315.66 52.618 314.489 49.6364 312.657 47.0665C312.443 46.7394 312.205 46.4279 311.946 46.1344L311.234 45.2378L310.416 44.4124C310.153 44.1315 309.87 43.8699 309.569 43.6297L308.68 42.9181C308.388 42.6691 308.054 42.4841 307.74 42.2635C307.427 42.0429 307.121 41.8223 306.787 41.6373L305.791 41.1036C303.173 39.7477 300.277 39.017 297.33 38.9689C293.471 38.8898 289.676 39.9687 286.436 42.0664C283.195 44.1642 280.657 47.1846 279.15 50.7382C278.735 51.7243 278.395 52.7399 278.132 53.7766C277.14 57.9114 277.548 62.2585 279.292 66.1366L279.392 66.0725C279.38 66.062 279.365 66.0562 279.349 66.0562C279.333 66.0562 279.318 66.062 279.306 66.0725C278.637 68.1645 278.125 69.7798 277.776 70.8756L277.385 72.0995C277.271 72.2703 277.236 72.3984 277.236 72.3984Z" fill="#263238"/>
<path d="M287.453 58.9284L289.823 56.3952L294.697 60.4369L303.67 51.1936L306.032 53.5631L294.505 65.1759L287.453 58.9284Z" fill="#5243FE"/>
<path d="M191.331 232.231C191.331 232.338 183.504 232.423 173.926 232.423C164.349 232.423 156.521 232.338 156.521 232.231C156.521 232.124 164.313 232.046 173.926 232.046C183.54 232.046 191.331 232.131 191.331 232.231Z" fill="#263238"/>
<path d="M209.813 226.816C209.813 226.915 199.04 227.001 185.755 227.001C172.47 227.001 161.689 226.915 161.689 226.816C161.689 226.716 172.463 226.631 185.755 226.631C199.047 226.631 209.813 226.723 209.813 226.816Z" fill="#263238"/>
<path d="M283.773 306.248L286.84 322.209C286.84 322.209 304.565 327.901 304.7 331.182L271.036 331.794L268.389 306.348L283.773 306.248Z" fill="#5243FE"/>
<g opacity="0.6">
<path d="M273.762 321.796C273.429 321.892 273.143 322.107 272.957 322.399C272.771 322.691 272.698 323.041 272.751 323.383C272.831 323.721 273.039 324.015 273.331 324.203C273.623 324.391 273.976 324.46 274.317 324.393C274.671 324.293 274.975 324.065 275.171 323.754C275.367 323.442 275.44 323.069 275.377 322.707C275.251 322.366 275 322.086 274.674 321.925C274.349 321.763 273.974 321.733 273.627 321.839" fill="white"/>
</g>
<path d="M287.401 322.074C287.401 322.237 286.548 322.301 285.708 322.828C284.868 323.354 284.413 324.052 284.285 323.981C284.157 323.909 284.406 322.942 285.43 322.323C286.455 321.704 287.458 321.889 287.401 322.074Z" fill="#263238"/>
<path d="M291.016 323.611C291.052 323.774 290.305 324.045 289.729 324.749C289.152 325.454 288.967 326.172 288.796 326.172C288.626 326.172 288.54 325.212 289.287 324.351C290.035 323.49 291.016 323.447 291.016 323.611Z" fill="#263238"/>
<path d="M292.96 327.98C292.803 328.015 292.59 327.168 293.038 326.258C293.486 325.347 294.283 324.991 294.355 325.133C294.426 325.276 293.928 325.752 293.565 326.514C293.202 327.275 293.152 327.965 292.96 327.98Z" fill="#263238"/>
<path d="M285.973 318.331C285.902 318.48 285.133 318.231 284.18 318.281C283.226 318.331 282.479 318.608 282.394 318.466C282.308 318.324 283.034 317.754 284.158 317.69C285.282 317.626 286.037 318.196 285.973 318.331Z" fill="#263238"/>
<path d="M201.851 302.42L187.79 312.176C187.79 312.176 197.795 327.873 195.788 330.499L168.855 308.917L190.295 291.163L201.851 302.42Z" fill="#5243FE"/>
<g opacity="0.6">
<path d="M180.722 304.071C180.404 303.932 180.046 303.914 179.716 304.02C179.386 304.126 179.106 304.349 178.928 304.647C178.778 304.96 178.752 305.318 178.856 305.648C178.961 305.979 179.188 306.257 179.491 306.426C179.827 306.574 180.206 306.592 180.554 306.477C180.903 306.361 181.196 306.12 181.376 305.8C181.498 305.459 181.484 305.084 181.339 304.752C181.193 304.42 180.927 304.156 180.594 304.014" fill="white"/>
</g>
<g opacity="0.6">
<path d="M168.855 308.917L171.04 307.109L195.945 328.542C196.106 328.904 196.173 329.301 196.141 329.697C196.109 330.092 195.978 330.473 195.76 330.804L168.855 308.917Z" fill="white"/>
</g>
<path d="M188.324 312.411C188.21 312.539 187.52 312.04 186.545 311.912C185.57 311.784 184.759 312.026 184.688 311.87C184.617 311.713 185.442 311.158 186.63 311.329C187.819 311.5 188.452 312.318 188.324 312.411Z" fill="#263238"/>
<path d="M190.081 315.911C190.003 316.061 189.263 315.798 188.366 315.968C187.47 316.139 186.851 316.594 186.73 316.474C186.609 316.353 187.149 315.57 188.267 315.385C189.384 315.2 190.188 315.79 190.081 315.911Z" fill="#263238"/>
<path d="M188.807 320.537C188.665 320.458 189.035 319.668 189.967 319.256C190.899 318.843 191.739 319.078 191.696 319.256C191.653 319.434 190.984 319.462 190.209 319.811C189.433 320.159 188.942 320.65 188.807 320.537Z" fill="#263238"/>
<path d="M190.757 309.137C190.601 309.208 190.167 308.525 189.405 307.949C188.644 307.373 187.882 307.116 187.911 306.953C187.939 306.789 188.872 306.796 189.761 307.486C190.65 308.177 190.907 309.095 190.757 309.137Z" fill="#263238"/>
<path d="M232.831 83.3565C231.569 80.1694 230.583 76.8792 229.886 73.5227C229.192 70.1507 229.346 66.6593 230.334 63.3615C230.497 62.8705 231.921 59.5475 232.469 59.583C232.839 59.583 231.999 62.6855 232.198 62.9986C234.091 65.9943 234.703 69.6517 234.546 73.1953C234.362 76.6344 233.797 80.0424 232.86 83.3565" fill="#263238"/>
<path d="M233.935 101.601L232.668 70.5129C232.078 61.974 235.92 54.2464 244.502 53.8906H245.434C249.257 53.9506 252.918 55.4483 255.687 58.0855C258.456 60.7227 260.13 64.306 260.377 68.122C260.846 75.5863 261.28 83.8832 261.159 87.8893C260.91 96.1293 252.621 97.2678 252.621 97.2678C252.621 97.2678 252.969 103.245 253.033 105.664C253.033 105.664 252.158 106.298 244.495 106.568C236.831 106.838 233.935 101.601 233.935 101.601Z" fill="#B56760"/>
<path d="M252.642 97.3105C248.837 97.2335 245.133 96.068 241.969 93.9519C241.969 93.9519 244.481 99.9931 252.721 99.3954L252.642 97.3105Z" fill="#8A4A43"/>
<path d="M257.573 75.6504C257.569 75.9563 257.447 76.2489 257.232 76.4666C257.017 76.6842 256.726 76.81 256.42 76.8173C256.27 76.8269 256.12 76.8064 255.978 76.7569C255.836 76.7074 255.705 76.6299 255.594 76.5291C255.482 76.4282 255.392 76.3061 255.329 76.1698C255.265 76.0335 255.23 75.886 255.225 75.7358C255.226 75.4286 255.348 75.1342 255.563 74.915C255.778 74.6958 256.07 74.5691 256.377 74.5617C256.528 74.553 256.678 74.5745 256.82 74.6248C256.962 74.6752 257.093 74.7533 257.204 74.8547C257.315 74.9561 257.405 75.0787 257.469 75.2154C257.532 75.352 257.567 75.4999 257.573 75.6504Z" fill="#263238"/>
<path d="M258.285 72.7044C258.135 72.8538 257.253 72.1778 255.986 72.1636C254.72 72.1494 253.78 72.7613 253.645 72.6048C253.51 72.4482 253.731 72.2561 254.143 71.9715C254.698 71.6011 255.355 71.4122 256.022 71.4307C256.679 71.4388 257.317 71.6556 257.843 72.0497C258.235 72.3557 258.363 72.6404 258.285 72.7044Z" fill="#263238"/>
<path d="M246.743 75.6504C246.739 75.9563 246.617 76.2489 246.402 76.4666C246.187 76.6842 245.896 76.81 245.59 76.8173C245.44 76.8269 245.29 76.8064 245.148 76.7569C245.006 76.7074 244.875 76.6299 244.764 76.5291C244.652 76.4282 244.562 76.3061 244.499 76.1698C244.435 76.0335 244.4 75.886 244.395 75.7358C244.396 75.4286 244.518 75.1342 244.733 74.915C244.948 74.6958 245.24 74.5691 245.547 74.5617C245.698 74.553 245.848 74.5745 245.99 74.6248C246.132 74.6752 246.263 74.7533 246.374 74.8547C246.485 74.9561 246.575 75.0787 246.639 75.2154C246.702 75.352 246.737 75.4999 246.743 75.6504Z" fill="#263238"/>
<path d="M246.707 72.8967C246.565 73.0461 245.683 72.3701 244.416 72.3488C243.149 72.3274 242.21 72.9465 242.075 72.7899C241.94 72.6334 242.16 72.4484 242.573 72.1566C243.127 71.7894 243.78 71.6006 244.444 71.6158C245.105 71.626 245.745 71.8452 246.273 72.242C246.657 72.548 246.785 72.8255 246.707 72.8967Z" fill="#263238"/>
<path d="M250.565 82.6877C251.239 82.4933 251.935 82.381 252.636 82.3533C252.956 82.3533 253.262 82.2679 253.347 82.0473C253.386 81.7117 253.316 81.3726 253.148 81.0796C252.863 80.2969 252.557 79.4715 252.237 78.6033C250.971 75.0455 250.06 72.1992 250.202 72.121C250.344 72.0427 251.49 74.8961 252.757 78.4254C253.063 79.2936 253.347 80.1261 253.625 80.9159C253.824 81.3095 253.877 81.7608 253.774 82.1896C253.726 82.3031 253.652 82.4038 253.558 82.484C253.464 82.5642 253.353 82.6217 253.233 82.6522C253.055 82.7008 252.871 82.7247 252.686 82.7233C251.98 82.7996 251.268 82.7877 250.565 82.6877Z" fill="#263238"/>
<path d="M246.487 69.467C246.295 69.7801 245.064 69.3674 243.598 69.2464C242.133 69.1254 240.845 69.2464 240.717 68.9404C240.66 68.7839 240.923 68.5064 241.464 68.2715C242.179 67.9951 242.949 67.8903 243.712 67.9656C244.47 68.0314 245.201 68.2752 245.847 68.6771C246.359 68.9689 246.573 69.2891 246.487 69.467Z" fill="#263238"/>
<path d="M258.79 67.9656C258.598 68.3 257.538 68.2217 256.342 68.4708C255.147 68.7198 254.208 69.1397 253.887 68.8906C253.752 68.7768 253.852 68.4565 254.236 68.0936C254.781 67.6281 255.443 67.3205 256.15 67.2042C256.84 67.0593 257.557 67.1086 258.221 67.3465C258.669 67.5457 258.868 67.8019 258.79 67.9656Z" fill="#263238"/>
<path d="M233.245 76.5825C233.109 76.5185 227.609 74.8036 227.694 80.4464C227.78 86.0891 233.387 84.8367 233.43 84.7158C233.472 84.5948 233.245 76.5825 233.245 76.5825Z" fill="#B56760"/>
<path d="M231.579 82.5741C231.579 82.5741 231.479 82.6452 231.315 82.7235C231.086 82.8104 230.833 82.8104 230.604 82.7235C230.006 82.51 229.487 81.5708 229.444 80.5888C229.42 80.1011 229.508 79.6144 229.7 79.1657C229.749 78.9913 229.84 78.8312 229.964 78.6988C230.087 78.5663 230.241 78.4654 230.412 78.4043C230.523 78.3706 230.644 78.3779 230.751 78.4248C230.858 78.4718 230.944 78.5553 230.995 78.6604C231.073 78.817 231.045 78.9308 231.073 78.9451C231.102 78.9593 231.194 78.8455 231.145 78.6106C231.109 78.4727 231.029 78.3503 230.917 78.262C230.758 78.149 230.562 78.1007 230.369 78.1268C230.138 78.1758 229.924 78.2834 229.747 78.4392C229.57 78.595 229.436 78.7937 229.359 79.0162C229.125 79.5088 229.015 80.0511 229.038 80.5959C229.095 81.7273 229.686 82.7875 230.504 83.0081C230.656 83.0503 230.816 83.0574 230.971 83.0291C231.126 83.0007 231.273 82.9376 231.401 82.8445C231.571 82.7093 231.6 82.5812 231.579 82.5741Z" fill="#8A4A43"/>
<path d="M256.512 59.0424C257.416 58.5158 254.605 55.6269 252.343 54.6591C248.913 53.236 243.718 52.375 240.616 53.3356C236.873 54.4884 233.792 56.4309 231.985 59.9034C230.246 63.434 229.478 67.3631 229.757 71.2885C229.739 72.4892 230.041 73.673 230.633 74.7182C231.451 75.9421 232.981 76.6964 232.952 78.4184C232.926 79.0482 233.152 79.6625 233.578 80.1262C234.639 81.1935 235.877 80.1262 236.425 79.0873C237.613 76.8529 237.691 74.213 237.741 71.6798C237.874 69.8817 237.711 68.074 237.257 66.3289C236.937 65.3825 236.503 64.4859 236.226 63.5609C236.07 63.0907 236.02 62.5924 236.078 62.1007C236.135 61.609 236.3 61.1359 236.56 60.7146C236.695 60.5425 236.845 60.3829 237.008 60.2378C237.778 59.5334 238.722 59.0468 239.743 58.828C240.763 58.6091 241.823 58.6659 242.815 58.9926C246.017 60.0386 251.482 61.5898 252.869 60.4798C254.869 58.8859 255.338 57.8612 255.338 57.8612L256.512 59.0424Z" fill="#263238"/>
<path d="M251.389 86.1175C251.389 86.2029 251.097 86.3879 250.535 86.459C249.802 86.5243 249.065 86.3916 248.4 86.0748C247.724 85.7643 247.147 85.2715 246.735 84.6517C246.429 84.1678 246.38 83.812 246.465 83.7693C246.55 83.7266 247.333 84.7869 248.714 85.4202C250.094 86.0535 251.346 85.904 251.389 86.1175Z" fill="#263238"/>
<path d="M210.823 126.165C210.823 126.165 193.667 137.386 192.863 144.822C192.059 152.258 189.305 168.104 192.187 177.775C195.069 187.445 197.879 198.638 205.792 198.83C210.412 198.997 214.976 197.78 218.899 195.336L228.47 166.162L225.353 133.394L224.236 121.611L210.823 126.165Z" fill="#263238"/>
<path d="M212.247 198.133C212.21 198.086 212.179 198.036 212.154 197.983L211.919 197.542C211.72 197.143 211.435 196.56 211.073 195.806C210.361 194.29 209.343 192.084 208.184 189.309C207.024 186.534 205.729 183.218 204.476 179.447C203.069 175.371 202.052 171.17 201.438 166.902C200.963 162.617 200.804 158.302 200.961 153.994C201.068 150.031 201.31 146.458 201.559 143.47C201.808 140.481 202.085 138.069 202.27 136.404C202.377 135.6 202.463 134.981 202.527 134.49C202.562 134.291 202.583 134.127 202.605 133.999C202.61 133.94 202.625 133.883 202.648 133.828C202.657 133.885 202.657 133.942 202.648 133.999C202.648 134.134 202.648 134.298 202.605 134.504C202.553 134.978 202.489 135.619 202.413 136.425C202.249 138.09 202.021 140.503 201.801 143.491C201.58 146.48 201.367 150.045 201.281 154.001C201.144 158.291 201.313 162.586 201.787 166.852C202.393 171.099 203.396 175.28 204.782 179.34C206.006 183.104 207.287 186.456 208.411 189.209C209.536 191.963 210.503 194.19 211.186 195.742L211.969 197.506C212.047 197.691 212.119 197.841 212.168 197.969C212.218 198.097 212.254 198.125 212.247 198.133Z" fill="#5243FE"/>
<path d="M201.927 169.086C201.435 169.431 200.914 169.731 200.369 169.983C199.401 170.517 198.063 171.257 196.633 172.118C195.203 172.979 193.929 173.854 193.018 174.48C192.546 174.85 192.041 175.177 191.51 175.455C191.915 175.01 192.368 174.611 192.862 174.267C194.003 173.383 195.191 172.561 196.42 171.805C197.654 171.044 198.93 170.353 200.241 169.734C200.774 169.449 201.34 169.231 201.927 169.086Z" fill="#5243FE"/>
<path d="M218.302 191.102C218.193 192.388 218.255 193.682 218.487 194.952C219.198 198.873 218.544 205.234 221.881 210.094C226.99 217.516 235.657 226.574 235.657 226.574L252.592 267.994L267.656 322.031L288.37 318.971L277.647 252.909L260.441 190.818L218.302 191.102Z" fill="#263238"/>
<path d="M177.672 297.553L214.431 250.589L221.754 206.799L250.045 219.807L241.016 258.566C239.901 263.35 237.392 267.696 233.807 271.054L193.639 313.037L177.672 297.553Z" fill="#263238"/>
<path d="M247.826 256.211C247.784 256.157 247.751 256.097 247.726 256.033L247.463 255.499C247.242 255.03 246.901 254.339 246.509 253.429C245.705 251.621 244.638 248.953 243.457 245.601C242.275 242.25 240.98 238.244 239.258 233.896C237.536 229.548 235.21 224.888 231.367 221.088C229.503 219.138 227.603 217.302 225.895 215.395C225.461 214.926 225.056 214.435 224.664 213.937C224.273 213.438 223.953 212.919 223.575 212.421C223.198 211.923 222.907 211.396 222.572 210.898L222.095 210.137L221.661 209.361C220.557 207.42 219.71 205.344 219.142 203.185C218.678 201.296 218.479 199.351 218.552 197.407C218.552 196.51 218.687 195.671 218.765 194.874C218.844 194.077 219.007 193.337 219.192 192.654C219.377 191.97 219.505 191.33 219.69 190.754C219.875 190.177 220.011 189.644 220.181 189.181C220.494 188.235 220.772 187.523 220.964 187.046C221.057 186.819 221.128 186.634 221.192 186.491C221.256 186.349 221.27 186.306 221.277 186.313C221.267 186.379 221.25 186.443 221.227 186.506L221.035 187.068C220.864 187.559 220.608 188.285 220.324 189.202C220.167 189.672 220.025 190.199 219.868 190.782C219.712 191.366 219.548 191.992 219.399 192.682C219.249 193.372 219.15 194.105 219.007 194.888C218.903 195.719 218.841 196.555 218.822 197.393C218.766 199.31 218.977 201.226 219.448 203.085C220.024 205.21 220.871 207.253 221.967 209.162L222.394 209.93L222.878 210.685C223.205 211.183 223.504 211.702 223.874 212.193L224.963 213.688C225.34 214.178 225.746 214.655 226.173 215.111C227.866 216.996 229.766 218.832 231.638 220.803C235.523 224.646 237.885 229.399 239.586 233.739C241.286 238.08 242.539 242.143 243.706 245.487C244.873 248.832 245.883 251.507 246.645 253.315C247.015 254.233 247.356 254.93 247.541 255.414L247.762 255.962L247.826 256.211Z" fill="#5243FE"/>
<path d="M254.676 108.866L261.172 116.601C261.172 116.601 277.788 152.635 277.674 157.047C277.56 161.458 267.712 166.632 267.712 166.632L254.676 108.866Z" fill="#5243FE"/>
<path d="M233.316 94.8413L233.309 92.7849L254.229 104.704L254.677 108.866L262.504 129.979L267.684 186.321L265.77 198.837H245.932L240.36 109.243L233.316 94.8413Z" fill="#EDE3FF"/>
<path d="M230.482 98.6413L221.944 103.48L220.385 148.771L222.043 168.197L215.803 200.054L216.016 204.516L264.837 204.331L265.292 187.167C265.292 187.167 265.733 178.629 265.769 176.188C265.854 169.072 263.136 149.682 261.813 139.407C260.02 125.467 250.897 109.628 250.897 109.628L232.397 94.0659L230.482 98.6413Z" fill="#5243FE"/>
<path d="M262.51 155.296C262.51 155.296 262.475 155.246 262.425 155.14C262.375 155.033 262.29 154.862 262.204 154.67L261.393 152.841L258.475 146.081L248.983 123.731C248.272 122.002 247.56 120.301 246.848 118.65V118.601V118.544C247.112 117.256 247.375 115.989 247.631 114.765L247.838 114.979L245.39 115.427H245.304L245.24 115.363L233.784 103.942L230.511 100.641L229.65 99.7511C229.547 99.6518 229.452 99.5447 229.365 99.4309C229.484 99.5115 229.594 99.6046 229.693 99.7084L230.589 100.555L233.934 103.786L245.475 115.135L245.319 115.085L247.766 114.623L248.023 114.573L247.973 114.836C247.724 116.067 247.46 117.327 247.197 118.615V118.508C247.909 120.159 248.62 121.852 249.332 123.589L258.725 145.982L261.535 152.784C261.848 153.567 262.097 154.207 262.247 154.641C262.325 154.834 262.382 154.997 262.432 155.125C262.465 155.179 262.492 155.236 262.51 155.296Z" fill="#263238"/>
<g opacity="0.3">
<path d="M220.793 174.601L240.788 175.597C240.788 175.597 252.031 184.008 256.286 184.072C258.551 184.176 260.773 183.427 262.512 181.973L265.771 177.341V174.38L253.305 175.249L246.708 172.587L220.999 172.075L220.793 174.601Z" fill="black"/>
</g>
<path d="M250.037 123.859L227.744 159.715C227.388 160.285 227.15 160.919 227.043 161.582C226.936 162.245 226.962 162.922 227.12 163.575C227.278 164.227 227.564 164.842 227.962 165.383C228.359 165.923 228.861 166.379 229.437 166.724L254.214 181.994C255.405 182.726 256.83 182.976 258.198 182.693C259.567 182.41 260.776 181.616 261.579 180.471L285.125 146.188C285.507 145.628 285.772 144.996 285.905 144.332C286.038 143.667 286.035 142.982 285.898 142.318C285.76 141.654 285.491 141.024 285.105 140.467C284.719 139.909 284.225 139.435 283.652 139.072L257.637 122.237C257.031 121.844 256.354 121.575 255.645 121.444C254.935 121.313 254.207 121.323 253.501 121.473C252.795 121.624 252.126 121.912 251.532 122.322C250.937 122.731 250.429 123.253 250.037 123.859Z" fill="#EDE3FF"/>
<path d="M250.037 123.859C250.037 123.859 250.115 123.731 250.286 123.475C250.987 122.516 251.989 121.82 253.132 121.497C254.102 121.216 255.13 121.203 256.107 121.461C257.231 121.739 258.242 122.543 259.387 123.247L263.116 125.645L272.203 131.494L283.21 138.61C283.724 138.921 284.202 139.289 284.634 139.706C285.073 140.147 285.428 140.666 285.68 141.236C286.21 142.41 286.283 143.739 285.886 144.964C285.676 145.579 285.368 146.155 284.975 146.672C284.619 147.199 284.264 147.725 283.886 148.259L281.673 151.489L262.191 179.895C261.787 180.561 261.288 181.165 260.711 181.688C260.113 182.198 259.411 182.572 258.654 182.784C257.908 183 257.126 183.062 256.356 182.966C255.585 182.871 254.842 182.62 254.171 182.229L246.728 177.625L232.59 168.894L229.252 166.831C228.135 166.113 227.326 165.004 226.982 163.721C226.662 162.473 226.814 161.15 227.409 160.007C228.035 158.932 228.683 157.95 229.302 156.94L236.226 145.804L246.294 129.73L249.048 125.368L249.76 124.243C249.923 123.987 250.016 123.859 250.016 123.859C250.016 123.859 249.945 124.001 249.795 124.258C249.646 124.514 249.404 124.912 249.084 125.41C248.465 126.428 247.561 127.908 246.394 129.808L236.432 145.939L229.537 157.075C228.925 158.078 228.263 159.096 227.665 160.128C227.107 161.199 226.968 162.439 227.274 163.607C227.592 164.812 228.355 165.852 229.409 166.518L232.739 168.574L246.899 177.284L254.399 181.895C255.026 182.261 255.721 182.495 256.441 182.585C257.162 182.674 257.893 182.616 258.59 182.414C259.298 182.217 259.954 181.867 260.511 181.389C261.068 180.888 261.547 180.308 261.935 179.667L281.432 151.297L283.652 148.067L284.74 146.487C285.114 145.996 285.407 145.448 285.608 144.865C285.983 143.716 285.919 142.469 285.431 141.364C285.192 140.834 284.859 140.352 284.449 139.941C284.029 139.536 283.563 139.183 283.061 138.887L272.074 131.772L263.016 125.873L259.302 123.454C258.149 122.742 257.167 121.931 256.085 121.66C255.136 121.396 254.132 121.396 253.182 121.66C252.483 121.843 251.829 122.167 251.261 122.614C250.8 122.974 250.389 123.392 250.037 123.859Z" fill="#263238"/>
<path d="M259.459 150.066C259.459 150.788 259.245 151.494 258.844 152.094C258.443 152.694 257.872 153.162 257.205 153.439C256.538 153.715 255.805 153.787 255.096 153.646C254.388 153.505 253.738 153.158 253.227 152.647C252.717 152.137 252.369 151.486 252.228 150.778C252.088 150.07 252.16 149.336 252.436 148.669C252.712 148.002 253.18 147.432 253.781 147.031C254.381 146.63 255.087 146.416 255.809 146.416C256.777 146.416 257.705 146.8 258.39 147.485C259.074 148.17 259.459 149.098 259.459 150.066Z" fill="white"/>
<g opacity="0.3">
<path d="M241.612 114.481L243.476 117.199L245.931 116.43L244.75 118.721L247.859 127.374L249.567 124.628L247.012 118.579L247.788 114.801L245.347 115.256L241.334 111.293L241.612 114.481Z" fill="black"/>
</g>
<g opacity="0.3">
<path d="M233.978 151.639L256.499 155.296L261.999 155.816L270.737 149.469L270.161 152.514L265.771 157.523L262.512 164.347L261.551 168.112L236.739 166.632L232.533 163.679L233.978 151.639Z" fill="black"/>
</g>
<path d="M221.504 103.736C222.92 102.336 224.44 101.044 226.051 99.8722C226.991 99.2896 228.044 98.9129 229.141 98.7669C230.237 98.621 231.352 98.7091 232.412 99.0255C233.572 99.4809 239.414 101.16 241.613 112.602C242.965 119.647 233.408 153.724 233.408 153.724L226.378 152.72C226.378 152.72 232.932 126.079 233.544 120.501C234.156 114.922 236.112 100.854 221.504 103.736Z" fill="#263238"/>
<path d="M225.908 101.146C225.908 101.245 225.531 101.374 225.047 101.423C224.563 101.473 224.165 101.423 224.143 101.331C224.122 101.238 224.506 101.103 225.004 101.053C225.503 101.004 225.908 101.046 225.908 101.146Z" fill="#5243FE"/>
<path d="M232.611 102.291C232.046 102.208 231.494 102.055 230.967 101.836C230.4 101.734 229.851 101.55 229.338 101.288C229.923 101.192 230.524 101.259 231.074 101.48C232.006 101.751 232.668 102.199 232.611 102.291Z" fill="#5243FE"/>
<path d="M236.744 107.586C236.375 107.141 236.077 106.642 235.862 106.106C235.539 105.622 235.298 105.088 235.15 104.526C235.236 104.469 235.727 105.081 236.168 105.949C236.5 106.435 236.699 106.999 236.744 107.586Z" fill="#5243FE"/>
<path d="M237.784 114.296C237.64 113.739 237.587 113.162 237.627 112.588C237.536 112.018 237.536 111.436 237.627 110.866C237.885 111.397 238 111.985 237.962 112.574C238.054 113.153 237.993 113.747 237.784 114.296Z" fill="#5243FE"/>
<path d="M236.653 121.098C236.59 120.521 236.651 119.936 236.831 119.383C236.898 118.805 237.082 118.246 237.371 117.74C237.438 118.318 237.377 118.903 237.194 119.455C237.132 120.035 236.948 120.595 236.653 121.098Z" fill="#5243FE"/>
<path d="M235.01 127.773C235.041 126.615 235.325 125.479 235.842 124.443C235.809 125.6 235.525 126.736 235.01 127.773Z" fill="#5243FE"/>
<path d="M233.301 134.433C233.344 133.274 233.638 132.138 234.162 131.103C234.195 131.686 234.107 132.27 233.906 132.818C233.821 133.393 233.615 133.944 233.301 134.433Z" fill="#5243FE"/>
<path d="M231.564 141.093C231.612 139.934 231.908 138.798 232.433 137.763C232.383 138.922 232.087 140.057 231.564 141.093Z" fill="#5243FE"/>
<path d="M229.823 147.739C229.796 147.158 229.885 146.577 230.087 146.032C230.176 145.455 230.387 144.905 230.706 144.416C230.738 144.998 230.648 145.579 230.442 146.124C230.353 146.7 230.142 147.251 229.823 147.739Z" fill="#5243FE"/>
<path d="M228.469 152.784C228.369 152.784 228.391 152.35 228.519 151.881C228.647 151.411 228.825 151.041 228.924 151.069C229.024 151.098 229.002 151.503 228.874 151.973C228.746 152.443 228.568 152.813 228.469 152.784Z" fill="#5243FE"/>
<path d="M230.206 185.317C230.151 185.458 230.085 185.594 230.006 185.723L229.394 186.833C228.832 187.822 228.05 189.203 227.082 190.925L226.975 190.74C231.728 190.811 238.929 190.946 246.963 191.124L249.148 191.174L248.955 191.373C248.806 189.38 248.657 187.459 248.521 185.68L248.692 185.844L235.464 185.538L231.614 185.424L230.576 185.381C230.451 185.383 230.327 185.371 230.206 185.346H230.547H231.558H235.386L248.699 185.502H248.856V185.659C248.998 187.466 249.155 189.388 249.311 191.351V191.558H249.105L246.927 191.515C238.894 191.337 231.693 191.152 226.947 191.003H226.74L226.84 190.832L229.288 186.762C229.558 186.321 229.772 185.965 229.942 185.695C230.019 185.561 230.107 185.435 230.206 185.317Z" fill="#263238"/>
<path d="M271.015 127.531C270.894 127.018 270.611 126.557 270.207 126.219C269.803 125.88 269.3 125.681 268.773 125.652C268.454 125.666 268.143 125.766 267.876 125.943C267.609 126.119 267.395 126.365 267.257 126.654C267.119 126.943 267.062 127.263 267.092 127.582C267.122 127.901 267.239 128.205 267.429 128.463L270.986 130.662C271.227 129.633 271.237 128.564 271.015 127.531Z" fill="#B56760"/>
<path d="M282.023 136.112C281.865 135.497 281.531 134.94 281.062 134.511C280.853 134.332 280.601 134.208 280.331 134.154C280.06 134.099 279.781 134.114 279.518 134.198C279.399 133.778 279.219 133.378 278.984 133.01C278.726 132.571 278.338 132.223 277.874 132.014C277.637 131.911 277.375 131.882 277.121 131.93C276.867 131.978 276.634 132.101 276.451 132.284V132.426C276.266 132.098 276.025 131.804 275.739 131.558C275.251 131.129 274.627 130.886 273.977 130.869C273.327 130.852 272.692 131.063 272.182 131.466C272.758 131.886 273.309 132.34 273.832 132.825C274.06 133.593 273.761 134.426 273.783 135.23C273.804 136.034 274.195 136.945 274.985 137.101C275.224 137.138 275.468 137.114 275.694 137.03C275.921 136.947 276.123 136.807 276.28 136.625C276.341 136.554 276.398 136.48 276.451 136.404C276.485 136.606 276.54 136.804 276.615 136.995C276.715 137.274 276.891 137.52 277.124 137.705C277.356 137.89 277.636 138.006 277.931 138.041C278.201 138.03 278.463 137.948 278.69 137.803C278.918 137.658 279.103 137.455 279.226 137.215V138.097C279.226 138.973 279.61 139.663 280.386 139.699C280.772 139.683 281.144 139.548 281.45 139.312C281.755 139.076 281.981 138.751 282.094 138.382C282.312 137.637 282.287 136.842 282.023 136.112Z" fill="#B56760"/>
<path d="M276.424 136.561C276.317 136.518 276.644 135.614 276.616 134.426C276.587 133.238 276.239 132.377 276.338 132.334C276.747 132.955 276.971 133.678 276.986 134.421C277.001 135.164 276.806 135.896 276.424 136.532V136.561Z" fill="#8A4A43"/>
<path d="M279.298 137.336C279.184 137.336 279.362 136.568 279.476 135.685C279.59 134.803 279.391 134.099 279.476 134.063C279.562 134.027 279.974 134.775 279.839 135.728C279.814 136.304 279.627 136.862 279.298 137.336Z" fill="#8A4A43"/>
<path d="M271.22 148.451C271.272 148.365 271.344 148.293 271.43 148.241C271.515 148.188 271.612 148.157 271.712 148.149C271.812 148.142 271.913 148.158 272.005 148.197C272.098 148.236 272.18 148.296 272.245 148.372C272.885 149.162 273.589 150.735 272.515 152.969C271.891 154.344 270.964 155.561 269.804 156.527L276.208 159.822C276.208 159.822 278.343 161.38 277.425 162.668C276.507 163.956 276.258 163.742 276.258 163.742C276.467 163.847 276.653 163.993 276.803 164.172C276.954 164.351 277.066 164.559 277.132 164.783C277.199 165.008 277.219 165.243 277.191 165.475C277.163 165.707 277.087 165.931 276.969 166.133C276.514 167.094 275.069 167.364 275.069 167.364C275.069 167.364 274.785 169.214 274.358 169.499C273.627 169.726 272.867 169.848 272.102 169.862C272.102 169.862 271.995 171.086 271.113 171.342C270.231 171.598 266.289 171.107 266.289 171.107C266.289 171.107 261.913 169.684 260.262 169.072L257.629 168.83L258.582 158.157C259.503 158.181 260.423 158.093 261.322 157.893C262.389 157.324 266.559 153.816 266.559 153.816C266.559 153.816 268.9 152.464 269.804 151.091C270.558 150.023 270.878 149.056 271.22 148.451Z" fill="#B56760"/>
<path d="M272.381 162.191C273.017 162.512 273.676 162.786 274.352 163.01C275.01 163.281 275.688 163.502 276.38 163.671C275.743 163.356 275.084 163.084 274.409 162.86C273.748 162.593 273.071 162.37 272.381 162.191Z" fill="#8A4A43"/>
<path d="M270.16 165.906C270.384 166.032 270.623 166.13 270.872 166.198C271.313 166.361 271.932 166.568 272.615 166.767C273.298 166.966 273.939 167.123 274.401 167.222C274.644 167.296 274.895 167.339 275.148 167.35C274.919 167.248 274.681 167.17 274.437 167.115L272.672 166.61L270.914 166.098C270.67 166.008 270.417 165.944 270.16 165.906Z" fill="#8A4A43"/>
<path d="M269.336 169.357C269.797 169.511 270.275 169.611 270.759 169.656C271.226 169.76 271.704 169.81 272.182 169.805C271.271 169.546 270.332 169.396 269.386 169.357H269.336Z" fill="#8A4A43"/>
<path d="M254.647 156.904L258.71 157.331L258.411 170.09L253.85 169.641L254.647 156.904Z" fill="#EDE3FF"/>
<path d="M254.65 156.904C254.667 157.238 254.667 157.573 254.65 157.908C254.65 158.619 254.579 159.487 254.529 160.59C254.422 162.86 254.266 166.019 254.052 169.648L253.889 169.463L258.194 169.876H258.443L258.236 170.054C258.364 164.916 258.5 160.327 258.613 157.303L258.72 157.424L255.767 157.047C255.056 156.947 254.679 156.89 254.664 156.876C254.65 156.862 255.013 156.876 255.71 156.933L258.742 157.189H258.848V157.303C258.848 160.327 258.734 164.916 258.613 170.054V170.253H258.414H258.165L253.86 169.826H253.689V169.648C253.931 165.941 254.173 162.732 254.351 160.469C254.437 159.395 254.508 158.512 254.565 157.836C254.571 157.524 254.599 157.212 254.65 156.904Z" fill="#263238"/>
<path d="M223.417 102.704C223.417 102.704 215.647 105.657 213.612 115.513C211.577 125.368 202.227 158.726 204.134 164.739C206.041 170.752 212.495 171.506 225.623 172.41C238.752 173.313 253.545 174.203 253.545 174.203L254.726 156.52L226.584 152.514C226.584 152.514 234.781 123.34 235.386 119.07C235.991 114.801 237.364 99.5806 223.417 102.704Z" fill="#5243FE"/>
<path d="M204.141 164.746C204.184 164.826 204.222 164.909 204.254 164.995L204.553 165.707C204.71 166.013 204.916 166.418 205.18 166.81L205.678 167.457C205.856 167.678 206.097 167.877 206.325 168.112C207.537 169.143 208.96 169.896 210.495 170.318C212.531 170.897 214.615 171.292 216.721 171.499C221.396 172.04 227.018 172.317 233.251 172.723L253.566 174.011L253.374 174.181C253.374 173.875 253.374 173.541 253.438 173.206C253.822 167.35 254.199 161.715 254.548 156.492L254.698 156.677L226.562 152.599H226.626L221.417 155.446L220.051 156.157L219.695 156.335L219.575 156.392C219.575 156.392 219.575 156.392 219.681 156.314L220.023 156.115L221.368 155.339L226.534 152.429L254.726 156.342H254.883V156.506C254.541 161.729 254.171 167.365 253.794 173.221C253.794 173.555 253.744 173.89 253.723 174.203V174.388H253.538L233.222 173.071C226.989 172.644 221.368 172.36 216.678 171.769C214.563 171.539 212.472 171.12 210.431 170.517C208.875 170.074 207.436 169.291 206.218 168.226C205.991 167.984 205.749 167.777 205.571 167.514L205.08 166.852C204.824 166.411 204.624 166.027 204.475 165.714C204.326 165.401 204.276 165.152 204.212 164.967C204.182 164.895 204.158 164.821 204.141 164.746Z" fill="#263238"/>
<g opacity="0.6">
<path d="M231.622 103.622C231.622 103.622 234.91 105.173 227.695 109.891C224.471 112.026 221.504 115.769 224.322 125.119C227.047 134.17 221.17 136.675 219.718 144.68C218.266 152.685 222.386 155.588 231.587 164.796C240.787 174.003 234.803 183.567 234.803 183.567C232.925 189.003 232.569 188.484 233.658 200.488C234.746 212.492 242.808 212.841 243.157 219.43C243.506 226.019 241.513 223.55 242.445 234.024C243.378 244.498 252.052 266.571 252.052 266.571L243.84 246.448L241.029 258.502C239.918 263.284 237.411 267.627 233.828 270.983L193.66 312.966L190.714 310.119L188.082 311.948C188.302 312.154 188.402 312.332 188.345 312.375C188.288 312.418 188.124 312.375 187.882 312.261C188.117 312.631 188.921 313.919 189.946 315.655C190.067 315.748 190.131 315.833 190.102 315.876C192.308 319.64 195.404 325.318 195.994 328.485C196.153 328.848 196.22 329.245 196.187 329.64C196.155 330.035 196.025 330.415 195.809 330.748L168.891 308.86L171.082 307.052L179.977 299.688L177.714 297.503L214.474 250.54L221.383 209.212C220.554 207.732 219.963 206.13 219.633 204.466H216.075L215.861 200.004L216.523 196.624C213.173 198.136 209.523 198.866 205.849 198.759C197.901 198.567 195.133 187.374 192.244 177.704C189.355 168.033 192.116 152.18 192.92 144.744C193.724 137.308 210.873 126.086 210.873 126.086L211.179 125.987C212.261 121.582 213.179 117.825 213.67 115.448C214.107 113.045 215.031 110.757 216.384 108.723C217.737 106.69 219.492 104.954 221.54 103.622C222.948 102.228 224.461 100.944 226.065 99.7797C227.368 98.9816 228.871 98.5719 230.399 98.5985L232.391 94.0303L231.622 103.622Z" fill="white"/>
</g>
<g opacity="0.6">
<path d="M250.864 198.837C250.866 199.655 250.624 200.455 250.171 201.136C249.717 201.817 249.072 202.348 248.317 202.662C247.562 202.976 246.73 203.059 245.928 202.9C245.125 202.741 244.388 202.348 243.809 201.77C243.23 201.192 242.836 200.455 242.676 199.653C242.516 198.851 242.597 198.02 242.91 197.264C243.222 196.508 243.752 195.862 244.432 195.407C245.112 194.953 245.912 194.71 246.73 194.71C247.825 194.71 248.876 195.145 249.651 195.918C250.426 196.692 250.862 197.742 250.864 198.837Z" fill="white"/>
</g>
</svg>
