<svg width="24" height="24" viewBox="0 0 24 24" fill="none" xmlns="http://www.w3.org/2000/svg">
<path d="M20.6009 4.10001V6.30001C20.6009 7.10001 20.1009 8.10001 19.6009 8.60001L15.3009 12.4C14.7009 12.9 14.3009 13.9 14.3009 14.7V19C14.3009 19.6 13.9009 20.4 13.4009 20.7L12.0009 21.6C10.7009 22.4 8.90086 21.5 8.90086 19.9V14.6C8.90086 13.9 8.50086 13 8.10086 12.5L7.63086 12.01C7.32086 11.68 7.26086 11.18 7.51086 10.79L12.6309 2.57001C12.8109 2.28001 13.1309 2.10001 13.4809 2.10001H18.6009C19.7009 2.10001 20.6009 3.00001 20.6009 4.10001Z" fill="url(#paint0_linear_4962_58720)"/>
<path d="M10.3504 3.63001L6.80039 9.32001C6.46039 9.87001 5.68039 9.95001 5.23039 9.48001L4.30039 8.50001C3.80039 8.00001 3.40039 7.10001 3.40039 6.50001V4.20001C3.40039 3.00001 4.30039 2.10001 5.40039 2.10001H9.50039C10.2804 2.10001 10.7604 2.96001 10.3504 3.63001Z" fill="url(#paint1_linear_4962_58720)"/>
<defs>
<linearGradient id="paint0_linear_4962_58720" x1="7.35547" y1="18.8844" x2="33.4499" y2="18.6957" gradientUnits="userSpaceOnUse">
<stop stop-color="#0065FF"/>
<stop offset="0.594131" stop-color="#952BDA"/>
<stop offset="0.978815" stop-color="#FE02BF"/>
</linearGradient>
<linearGradient id="paint1_linear_4962_58720" x1="3.40039" y1="8.6179" x2="17.3869" y2="8.4783" gradientUnits="userSpaceOnUse">
<stop stop-color="#0065FF"/>
<stop offset="0.594131" stop-color="#952BDA"/>
<stop offset="0.978815" stop-color="#FE02BF"/>
</linearGradient>
</defs>
</svg>
