<svg width="24" height="25" viewBox="0 0 24 25" fill="none" xmlns="http://www.w3.org/2000/svg">
<path d="M12 2.20605C9.38 2.20605 7.25 4.33605 7.25 6.95605C7.25 9.52605 9.26 11.6061 11.88 11.6961C11.96 11.6861 12.04 11.6861 12.1 11.6961C12.12 11.6961 12.13 11.6961 12.15 11.6961C12.16 11.6961 12.16 11.6961 12.17 11.6961C14.73 11.6061 16.74 9.52605 16.75 6.95605C16.75 4.33605 14.62 2.20605 12 2.20605Z" fill="url(#paint0_linear_5070_30810)"/>
<path d="M17.0809 14.3559C14.2909 12.4959 9.74094 12.4959 6.93094 14.3559C5.66094 15.2059 4.96094 16.3559 4.96094 17.5859C4.96094 18.8159 5.66094 19.9559 6.92094 20.7959C8.32094 21.7359 10.1609 22.2059 12.0009 22.2059C13.8409 22.2059 15.6809 21.7359 17.0809 20.7959C18.3409 19.9459 19.0409 18.8059 19.0409 17.5659C19.0309 16.3359 18.3409 15.1959 17.0809 14.3559Z" fill="url(#paint1_linear_5070_30810)"/>
<defs>
<linearGradient id="paint0_linear_5070_30810" x1="7.25" y1="10.2519" x2="25.9645" y2="10.0495" gradientUnits="userSpaceOnUse">
<stop stop-color="#0065FF"/>
<stop offset="0.594131" stop-color="#952BDA"/>
<stop offset="0.978815" stop-color="#FE02BF"/>
</linearGradient>
<linearGradient id="paint1_linear_5070_30810" x1="4.96094" y1="20.7991" x2="32.6935" y2="20.3426" gradientUnits="userSpaceOnUse">
<stop stop-color="#0065FF"/>
<stop offset="0.594131" stop-color="#952BDA"/>
<stop offset="0.978815" stop-color="#FE02BF"/>
</linearGradient>
</defs>
</svg>
