<svg width="122" height="92" viewBox="0 0 122 92" fill="none" xmlns="http://www.w3.org/2000/svg">
<path d="M9.61084 10.2874C12.2816 3.89175 18.6429 0 25.5737 0H95.2395C102.033 0 108.291 3.73489 111.016 9.95749C115.483 20.1554 121.433 36.2426 120.996 48.76C120.616 59.6137 115.243 73.2793 111.097 82.3097C108.307 88.3863 102.128 92 95.4412 92H25.3083C18.5169 92 12.2588 88.2719 9.50982 82.0617C5.48098 72.9602 0.31482 59.3369 0.0151627 48.76C-0.330947 36.5435 5.32013 20.5625 9.61084 10.2874Z" fill="#EDE3FF"/>
<path d="M70.3066 27.6577H51.14C45.39 27.6577 41.5566 31.491 41.5566 37.241V48.741C41.5566 54.491 45.39 58.3244 51.14 58.3244V62.4069C51.14 63.9402 52.8458 64.8602 54.1108 63.9977L62.64 58.3244H70.3066C76.0566 58.3244 79.89 54.491 79.89 48.741V37.241C79.89 31.491 76.0566 27.6577 70.3066 27.6577ZM60.7233 50.9835C59.9183 50.9835 59.2858 50.3319 59.2858 49.546C59.2858 48.7602 59.9183 48.1085 60.7233 48.1085C61.5283 48.1085 62.1608 48.7602 62.1608 49.546C62.1608 50.3319 61.5283 50.9835 60.7233 50.9835ZM63.1383 43.0294C62.3908 43.5277 62.1608 43.8535 62.1608 44.3902V44.7927C62.1608 45.5785 61.5091 46.2302 60.7233 46.2302C59.9375 46.2302 59.2858 45.5785 59.2858 44.7927V44.3902C59.2858 42.1669 60.915 41.0744 61.5283 40.6527C62.2375 40.1735 62.4675 39.8477 62.4675 39.3494C62.4675 38.391 61.6816 37.6052 60.7233 37.6052C59.765 37.6052 58.9791 38.391 58.9791 39.3494C58.9791 40.1352 58.3275 40.7869 57.5416 40.7869C56.7558 40.7869 56.1041 40.1352 56.1041 39.3494C56.1041 36.8002 58.1741 34.7302 60.7233 34.7302C63.2725 34.7302 65.3425 36.8002 65.3425 39.3494C65.3425 41.5344 63.7325 42.6269 63.1383 43.0294Z" fill="#5243FE"/>
</svg>
