<svg width="357" height="333" viewBox="0 0 357 333" fill="none" xmlns="http://www.w3.org/2000/svg">
<path d="M71.9744 201.826C73.4901 194.874 68.8791 187.154 62.0125 185.183C55.1459 183.212 47.2048 187.296 44.821 193.999C38.239 189.58 27.9213 192.861 25.0963 200.268C22.2714 207.675 27.8003 216.99 35.6489 218.057C31.6712 222.633 32.3686 230.467 37.072 234.267C41.7755 238.066 49.5956 237.07 53.2104 232.21C50.2645 238.315 55.644 246.249 62.3896 246.925C69.1353 247.601 75.5323 242.265 77.4393 235.761C79.3463 229.257 77.4393 222.106 73.8032 216.385C75.4335 215.698 76.7831 214.48 77.632 212.928C78.4809 211.375 78.7791 209.582 78.4778 207.838C78.1765 206.095 77.2937 204.506 75.9731 203.328C74.6525 202.151 72.9722 201.456 71.206 201.357" fill="#EDE3FF"/>
<path d="M331.733 311.059C329.314 306.891 325.826 303.446 321.628 301.079C317.431 298.712 312.678 297.509 307.86 297.596C313.346 283.201 307.276 265.319 294.169 257.236C281.062 249.153 262.355 251.771 251.959 263.135C244.772 254.39 229.829 256.795 222.002 264.978C214.175 273.161 211.634 284.902 209.407 295.988C202.106 290.537 191.063 293.284 184.645 299.745C178.226 306.206 175.394 315.328 173.146 324.159C171.061 313.87 159.199 306.74 149.13 309.735C153.072 296.885 144.526 281.607 131.505 278.249C126.943 277.067 122.062 277.181 117.679 275.466C110.307 272.577 105.682 265.106 98.68 261.406C85.8718 254.646 68.9649 263.633 63.3791 276.989C60.853 283.016 59.9209 289.961 55.5519 294.828C52.5135 298.215 51.1472 295.504 42.4661 299.589C32.1697 304.449 24.8406 316.958 36.4178 337.736H331.306C336.564 329.659 336.436 319.434 331.733 311.059Z" fill="#EDE3FF"/>
<path d="M250.921 65.6249L255.759 67.5248L251.07 69.4816L249.277 74.7259L247.206 69.631L242.033 67.9375L247.057 65.7743L249.063 60.6439L250.921 65.6249Z" fill="#F4F3FF"/>
<path d="M233.13 209.981L237.969 211.881L233.28 213.838L231.487 219.082L229.423 213.987L224.25 212.293L229.274 210.13L231.28 205.007L233.13 209.981Z" fill="#F4F3FF"/>
<path d="M80.0219 149.896L85.8354 152.18L80.1998 154.528L78.0508 160.826L75.5675 154.706L69.3555 152.678L75.3896 150.074L77.7947 143.926L80.0219 149.896Z" fill="#F4F3FF"/>
<path d="M268.416 42.6554L271.056 43.6943L268.494 44.7617L267.52 47.6222L266.388 44.847L263.57 43.922L266.31 42.7408L267.406 39.9443L268.416 42.6554Z" fill="#F4F3FF"/>
<path d="M56.0001 122.116L58.64 123.155L56.0855 124.223L55.1035 127.083L53.9792 124.301L51.1543 123.376L53.8938 122.195L54.9896 119.405L56.0001 122.116Z" fill="#F4F3FF"/>
<path d="M260.867 185.289L263.506 186.328L260.945 187.396L259.963 190.256L258.839 187.474L256.014 186.549L258.76 185.368L259.849 182.571L260.867 185.289Z" fill="#F4F3FF"/>
<path d="M119.686 48.3625L122.326 49.3943L119.771 50.4616L118.789 53.3292L117.665 50.547L114.84 49.622L117.579 48.4408L118.675 45.6443L119.686 48.3625Z" fill="#F4F3FF"/>
<path d="M257.117 88.0322L259.757 89.0639L257.203 90.1313L256.221 92.9918L255.096 90.2167L252.271 89.2916L255.011 88.1104L256.107 85.314L257.117 88.0322Z" fill="#F4F3FF"/>
<path d="M35.051 174.587L37.513 175.555L35.1221 176.551L34.2113 179.22L33.1582 176.629L30.5254 175.761L33.0799 174.658L34.1046 172.047L35.051 174.587Z" fill="#F4F3FF"/>
<path d="M74.3523 233.847C72.4725 234.278 70.515 234.236 68.6557 233.723C66.7963 233.211 65.0935 232.245 63.7 230.911C62.3066 229.578 61.2663 227.919 60.6727 226.084C60.079 224.249 59.9505 222.295 60.2988 220.398C67.0729 222.376 73.2778 225.906 74.3523 233.847Z" fill="white"/>
<path d="M77.5967 235.348C76.9119 235.197 76.2494 234.957 75.6257 234.637C74.08 233.962 72.6106 233.125 71.2424 232.139C69.877 231.15 68.6179 230.022 67.4853 228.773C66.993 228.278 66.5672 227.721 66.2188 227.115C66.2614 227.08 66.7809 227.685 67.6775 228.588C70.0143 230.968 72.7379 232.934 75.7324 234.402C76.3714 234.681 76.9938 234.997 77.5967 235.348Z" fill="#F4F3FF"/>
<path d="M270.689 149.739C270.202 147.873 270.187 145.916 270.645 144.043C271.104 142.169 272.021 140.44 273.314 139.009C274.607 137.578 276.235 136.492 278.053 135.847C279.87 135.202 281.819 135.02 283.725 135.316C281.946 142.14 278.587 148.444 270.689 149.739Z" fill="white"/>
<path d="M269.244 153.034C269.366 152.346 269.577 151.676 269.87 151.042C271.141 147.915 273.062 145.094 275.506 142.766C275.989 142.264 276.532 141.822 277.121 141.45C276.675 141.976 276.2 142.478 275.698 142.951C274.548 144.156 273.499 145.453 272.56 146.829C271.629 148.207 270.813 149.658 270.119 151.17C269.861 151.806 269.569 152.429 269.244 153.034Z" fill="#F4F3FF"/>
<path d="M95.0173 80.4112C93.1023 80.1778 91.2754 79.4716 89.7013 78.3561C88.1273 77.2407 86.8555 75.7511 86.0007 74.0216C85.1458 72.2922 84.7347 70.3772 84.8045 68.4492C84.8742 66.5213 85.4226 64.641 86.4002 62.9778C92.0928 67.1476 96.7179 72.584 95.0173 80.4112Z" fill="white"/>
<path d="M97.541 82.9943C96.9472 82.628 96.4021 82.1881 95.9186 81.685C93.4745 79.3476 91.5516 76.5202 90.2759 73.3881C89.9879 72.751 89.7753 72.0823 89.6426 71.3958C89.9703 72.0094 90.2625 72.6414 90.5178 73.2885C91.2154 74.799 92.034 76.2506 92.9656 77.6291C93.9042 79.0007 94.9537 80.2929 96.1036 81.4929C96.6114 81.9652 97.0913 82.4665 97.541 82.9943Z" fill="#F4F3FF"/>
<path d="M247.027 240.842C242.999 237.768 248.108 228.944 252.15 225.899C256.192 222.853 261.514 220.918 263.805 216.421C266.097 211.923 264.517 206.58 265.065 201.606C265.99 193.067 274.038 185.916 282.626 185.994C277.254 176.907 281.915 163.85 291.379 159.189C300.843 154.528 313.21 158.043 319.806 166.305C326.402 174.566 327.398 186.499 323.449 196.29C319.308 206.537 308.357 214.926 297.619 212.308C299.106 222.327 291.108 232.765 281.04 233.932C274.635 234.644 268.352 232.146 261.927 231.762C255.501 231.378 247.795 234.509 247.027 240.891" fill="#EDE3FF"/>
<path d="M287.239 79.6642C279.028 75.6581 274.623 81.557 273.534 85.0009C273.031 86.7423 273.095 88.5986 273.716 90.3013C274.338 92.004 275.485 93.4647 276.992 94.4719C276.116 94.9859 275.35 95.6673 274.738 96.4774C274.125 97.2875 273.678 98.2103 273.422 99.1931C272.905 101.178 273.197 103.287 274.235 105.056C275.273 106.826 276.971 108.11 278.956 108.627C280.941 109.144 283.05 108.852 284.82 107.814C284.825 110.309 285.686 112.726 287.259 114.662C288.832 116.599 291.021 117.937 293.461 118.454C295.902 118.972 298.446 118.636 300.669 117.504C302.892 116.371 304.659 114.511 305.676 112.233C306.33 110.76 306.693 109.088 307.811 107.921C309.525 106.135 312.322 106.156 314.691 105.459C317.264 104.602 319.433 102.831 320.787 100.483C322.142 98.1339 322.588 95.3701 322.042 92.7143C320.775 87.4559 315.004 83.7272 309.689 84.7234C309.988 82.7211 309.76 80.6755 309.028 78.7878C308.297 76.9002 307.086 75.2355 305.516 73.9575C303.946 72.6795 302.07 71.8323 300.073 71.4992C298.076 71.1661 296.027 71.3585 294.127 72.0575C289.68 73.6941 286.478 78.4616 287.282 79.6642" fill="#EDE3FF"/>
<path d="M66.7687 96.0587C72.4613 99.3533 75.891 95.3472 76.8517 92.9563C77.3068 91.7369 77.3603 90.4041 77.0044 89.1521C76.6486 87.9002 75.9019 86.7948 74.8735 85.9972C76.142 85.3193 77.0978 84.1755 77.5396 82.8068C77.9814 81.4381 77.8746 79.9513 77.2418 78.6598C76.6089 77.3683 75.4994 76.3728 74.1471 75.8832C72.7947 75.3936 71.3051 75.4481 69.9921 76.0352C70.1173 74.2507 69.6275 72.4772 68.6041 71.01C67.5808 69.5427 66.0858 68.4703 64.368 67.9711C62.6502 67.472 60.8133 67.5764 59.163 68.2668C57.5128 68.9572 56.1488 70.1921 55.2983 71.7658C54.7504 72.7833 54.4088 73.9574 53.5478 74.733C52.2314 75.9213 50.2319 75.7648 48.4957 76.1562C46.5671 76.5647 44.8704 77.7013 43.7589 79.3294C42.6474 80.9575 42.2067 82.9516 42.5285 84.8965C42.8504 86.8414 43.91 88.5872 45.4868 89.7704C47.0635 90.9536 49.0359 91.4831 50.9933 91.2485C50.672 92.6668 50.7259 94.1442 51.1495 95.5353C51.5732 96.9264 52.352 98.1831 53.4093 99.1814C54.4666 100.18 55.7658 100.885 57.1789 101.229C58.5919 101.572 60.07 101.541 61.4676 101.139C64.7337 100.207 67.2739 96.9624 66.7687 96.0587Z" fill="#EDE3FF"/>
<path d="M234.812 142.951C234.829 143.011 234.841 143.073 234.847 143.136C234.847 143.278 234.89 143.456 234.919 143.684C234.947 143.912 234.983 144.218 235.011 144.573C235.04 144.929 235.011 145.335 235.061 145.79C235.079 148.395 234.729 150.989 234.022 153.496C232.946 157.205 231.391 160.757 229.397 164.063C226.915 168.069 224.234 171.947 221.363 175.683C218.496 179.405 215.931 183.35 213.693 187.481C211.892 190.864 210.615 194.502 209.907 198.268C209.455 200.813 209.395 203.412 209.729 205.975C209.807 206.423 209.871 206.821 209.928 207.177C209.985 207.533 210.071 207.81 210.12 208.045C210.17 208.28 210.206 208.444 210.234 208.579C210.246 208.643 210.246 208.708 210.234 208.771C210.206 208.715 210.185 208.655 210.17 208.593C210.135 208.451 210.085 208.28 210.021 208.06C209.957 207.839 209.871 207.54 209.793 207.199C209.715 206.857 209.651 206.444 209.565 205.996C209.176 203.419 209.195 200.797 209.622 198.226C210.284 194.416 211.53 190.732 213.315 187.303C215.568 183.165 218.152 179.218 221.043 175.498C224.01 171.464 226.878 167.671 229.077 163.921C231.079 160.643 232.648 157.12 233.745 153.44C234.469 150.958 234.854 148.389 234.89 145.804C234.89 145.349 234.89 144.943 234.89 144.588C234.89 144.232 234.84 143.933 234.826 143.698C234.812 143.463 234.826 143.293 234.826 143.143C234.811 143.08 234.806 143.015 234.812 142.951Z" fill="#263238"/>
<path d="M227.404 180.002C227.255 179.846 226.934 179.888 226.692 179.945C224.544 180.441 222.555 181.468 220.907 182.934C219.413 184.234 218.375 185.98 217.947 187.915L218.339 187.78C220.324 187.382 222.158 186.435 223.633 185.047C224.996 183.742 226.213 182.291 227.262 180.721C227.397 180.479 227.568 180.18 227.404 180.002Z" fill="#5243FE"/>
<path d="M219.063 163.515C218.85 163.515 218.665 163.786 218.523 164.02C217.425 165.933 216.828 168.092 216.786 170.297C216.721 172.272 217.295 174.216 218.423 175.84L218.587 175.462C219.644 173.737 220.196 171.75 220.18 169.727C220.149 167.838 219.91 165.958 219.469 164.12C219.412 163.843 219.312 163.515 219.063 163.515Z" fill="#5243FE"/>
<path d="M223.524 182.891C223.402 183.131 223.249 183.353 223.069 183.553C222.608 184.12 222.104 184.651 221.56 185.14C219.72 186.68 217.804 188.126 215.818 189.473C213.862 190.831 212.239 192.614 211.072 194.689C210.645 195.576 210.331 196.513 210.14 197.478C210.112 197.209 210.129 196.938 210.19 196.674C210.302 195.946 210.523 195.238 210.844 194.575C211.972 192.419 213.605 190.569 215.605 189.182C217.874 187.509 220.016 186.164 221.397 184.912C222.777 183.66 223.475 182.849 223.524 182.891Z" fill="#263238"/>
<path d="M240.104 163.964C239.983 163.779 239.663 163.757 239.393 163.771C237.187 163.84 235.035 164.467 233.138 165.593C231.424 166.581 230.073 168.092 229.281 169.905L229.694 169.841C231.71 169.831 233.683 169.254 235.386 168.176C236.976 167.155 238.449 165.962 239.777 164.618C240.012 164.426 240.232 164.17 240.104 163.964Z" fill="#5243FE"/>
<path d="M235.742 166.055C235.58 166.273 235.385 166.465 235.166 166.625C234.603 167.098 234.004 167.527 233.373 167.906C231.793 168.902 229.395 169.862 226.869 171.072C224.748 172.189 222.875 173.724 221.362 175.583C220.173 177.007 219.54 177.946 219.49 177.91C219.591 177.658 219.722 177.419 219.882 177.199C220.159 176.765 220.593 176.146 221.162 175.413C222.646 173.469 224.538 171.876 226.706 170.745C229.267 169.521 231.651 168.61 233.245 167.678C234.839 166.746 235.7 166.006 235.742 166.055Z" fill="#263238"/>
<path d="M246.415 137.707C246.244 137.579 245.938 137.707 245.703 137.785C243.677 138.657 241.903 140.025 240.544 141.763C239.31 143.305 238.601 145.203 238.523 147.178L238.886 146.978C240.768 146.232 242.403 144.972 243.604 143.342C244.711 141.812 245.649 140.166 246.401 138.433C246.5 138.176 246.614 137.849 246.415 137.707Z" fill="#5243FE"/>
<path d="M243.122 141.243C243.084 141.435 243.012 141.618 242.908 141.784C242.672 142.255 242.403 142.709 242.104 143.143C241.091 144.548 239.953 145.858 238.703 147.057C237.991 147.768 237.28 148.48 236.718 149.085C236.199 149.646 235.724 150.246 235.295 150.878C234.583 151.96 234.192 152.7 234.135 152.671C234.171 152.479 234.239 152.294 234.334 152.123C234.553 151.634 234.802 151.158 235.081 150.7C235.499 150.035 235.975 149.409 236.504 148.829C237.095 148.174 237.771 147.484 238.475 146.765C239.711 145.576 240.864 144.304 241.926 142.958C242.695 141.948 243.065 141.215 243.122 141.243Z" fill="#263238"/>
<path d="M218.822 166.618C218.894 166.868 218.932 167.126 218.935 167.386C218.998 168.096 219.025 168.809 219.014 169.521C219.014 170.418 218.971 171.492 218.857 172.673C218.751 174.641 218.237 176.565 217.349 178.323C217.085 178.907 216.836 179.476 216.594 180.017C216.118 181.091 215.712 182.073 215.406 182.913C214.787 184.578 214.524 185.652 214.467 185.638C214.474 185.378 214.515 185.12 214.588 184.87C214.694 184.379 214.887 183.681 215.164 182.827C215.442 181.973 215.826 180.977 216.288 179.881L217 178.181C217.256 177.59 217.548 176.992 217.754 176.359C218.122 175.145 218.372 173.899 218.501 172.638C218.629 171.464 218.701 170.41 218.736 169.521C218.772 168.632 218.772 167.906 218.772 167.386C218.761 167.129 218.778 166.872 218.822 166.618Z" fill="#263238"/>
<path d="M229.119 146.246C228.906 146.281 228.763 146.573 228.671 146.829C227.89 148.893 227.645 151.12 227.959 153.304C228.218 155.264 229.101 157.088 230.478 158.506L230.578 158.107C231.34 156.232 231.559 154.181 231.211 152.187C230.869 150.329 230.328 148.514 229.596 146.772C229.518 146.509 229.368 146.203 229.119 146.246Z" fill="#5243FE"/>
<path d="M229.23 149.362C229.526 149.98 229.741 150.633 229.871 151.305C230.266 152.906 230.533 154.536 230.668 156.179C230.851 157.831 230.716 159.502 230.269 161.103C230.152 161.775 229.974 162.435 229.736 163.074C229.77 162.394 229.862 161.718 230.013 161.053C230.162 160.348 230.274 159.636 230.348 158.919C230.4 158.025 230.386 157.128 230.305 156.236C230.16 154.609 229.923 152.991 229.593 151.39C229.38 150.131 229.181 149.377 229.23 149.362Z" fill="#263238"/>
<path d="M86.4336 111.706C86.5449 111.827 86.6449 111.958 86.7325 112.098L87.5436 113.25C88.2552 114.254 89.2799 115.691 90.5891 117.441C91.8984 119.192 93.4852 121.255 95.2001 123.589C97.0781 126.103 98.8192 128.716 100.416 131.417C101.996 134.147 103.268 137.044 104.209 140.055C104.974 142.515 105.412 145.066 105.511 147.64C105.582 149.378 105.441 151.117 105.091 152.821C105.002 153.282 104.888 153.738 104.749 154.187C104.717 154.348 104.667 154.506 104.6 154.656C104.608 154.492 104.637 154.33 104.685 154.173C104.735 153.852 104.877 153.397 104.956 152.792C105.246 151.096 105.349 149.373 105.262 147.655C105.121 145.111 104.657 142.596 103.881 140.169C102.929 137.195 101.66 134.332 100.096 131.63C98.5067 128.934 96.78 126.321 94.9226 123.803L90.3757 117.612C89.0949 115.84 88.0844 114.382 87.4156 113.343C87.0811 112.838 86.8321 112.425 86.6613 112.154C86.5687 112.014 86.4923 111.864 86.4336 111.706Z" fill="#263238"/>
<path d="M87.2959 126.001C87.4382 125.838 87.7584 125.88 88.0075 125.937C90.1599 126.415 92.157 127.429 93.8139 128.883C95.3152 130.169 96.3651 131.902 96.8096 133.829L96.4182 133.701C94.4286 133.318 92.5868 132.383 91.1028 131.004C89.7324 129.717 88.506 128.286 87.4453 126.734C87.2959 126.471 87.1251 126.179 87.2959 126.001Z" fill="#5243FE"/>
<path d="M95.5125 109.458C95.7331 109.458 95.9181 109.721 96.0604 109.956C97.172 111.862 97.7839 114.018 97.8393 116.225C97.9139 118.197 97.3554 120.142 96.2454 121.775L96.0533 121.419C94.9888 119.711 94.4243 117.739 94.4238 115.726C94.4417 113.836 94.666 111.954 95.0927 110.112C95.171 109.785 95.2706 109.458 95.5125 109.458Z" fill="#5243FE"/>
<path d="M91.1855 128.862C91.2354 128.819 91.8971 129.737 93.3203 130.904C94.7434 132.071 96.8781 133.444 99.1409 135.102C101.15 136.474 102.796 138.312 103.937 140.46C104.262 141.121 104.487 141.826 104.606 142.552C104.661 142.817 104.68 143.087 104.663 143.357C104.455 142.395 104.135 141.461 103.709 140.574C102.523 138.51 100.889 136.737 98.9274 135.387C96.9338 134.061 95.0078 132.636 93.1566 131.118C92.6087 130.634 92.0995 130.108 91.6338 129.545C91.455 129.338 91.3043 129.108 91.1855 128.862Z" fill="#263238"/>
<path d="M74.4859 110.034C74.5998 109.856 74.92 109.835 75.1975 109.842C77.4036 109.897 79.5601 110.509 81.4664 111.621C83.1829 112.592 84.5423 114.088 85.3444 115.89L84.9388 115.833C82.9143 115.839 80.929 115.274 79.2107 114.204C77.6153 113.195 76.1358 112.014 74.799 110.681C74.5784 110.511 74.3507 110.247 74.4859 110.034Z" fill="#5243FE"/>
<path d="M78.8555 112.112C78.8982 112.062 79.752 112.823 81.3673 113.72C82.9826 114.617 85.3521 115.534 87.9208 116.744C90.0968 117.862 92.0012 119.443 93.4995 121.376C94.0759 122.088 94.51 122.721 94.7875 123.155C94.9478 123.377 95.0838 123.616 95.1931 123.867C95.1433 123.902 94.4815 122.956 93.3003 121.554C91.7782 119.704 89.8944 118.183 87.7643 117.086C85.224 115.89 82.826 114.951 81.2392 113.955C80.6049 113.58 80.0006 113.157 79.4318 112.688C79.2152 112.522 79.0214 112.328 78.8555 112.112Z" fill="#263238"/>
<path d="M95.7828 112.553C95.8083 112.813 95.8083 113.075 95.7828 113.336C95.7828 113.834 95.7828 114.552 95.8326 115.47C95.8824 116.388 95.9465 117.42 96.0888 118.587C96.2235 119.849 96.4784 121.095 96.8501 122.308C97.0636 122.935 97.3625 123.532 97.6186 124.123C97.8748 124.714 98.131 125.276 98.3729 125.816C98.8425 126.905 99.2339 127.901 99.5185 128.755C99.8032 129.609 99.9953 130.306 100.109 130.797C100.182 131.048 100.225 131.306 100.237 131.566C100.18 131.566 99.9099 130.506 99.2766 128.841C98.9635 128.008 98.565 127.026 98.074 125.952C97.825 125.411 97.5688 124.849 97.2984 124.272C97.028 123.696 96.7363 123.091 96.5086 122.422C96.1302 121.184 95.8775 119.911 95.7543 118.623C95.6334 117.441 95.5836 116.374 95.5764 115.477C95.5693 114.581 95.5764 113.855 95.6405 113.343C95.6537 113.074 95.7015 112.809 95.7828 112.553Z" fill="#263238"/>
<path d="M132.784 210.415C131.211 205.434 132.449 199.869 134.961 195.273C137.473 190.676 141.159 186.841 144.802 183.069L142.731 170.339C138.861 181.845 125.938 188.306 121.669 199.692C118.894 207.127 120.424 215.794 124.786 222.426C129.148 229.058 136.071 233.754 143.564 236.373C145.699 231.954 143.6 226.653 140.76 222.661C137.921 218.669 134.257 215.09 132.784 210.415Z" fill="#5243FE"/>
<g opacity="0.7">
<path d="M132.784 210.415C131.211 205.434 132.449 199.869 134.961 195.273C137.473 190.676 141.159 186.841 144.802 183.069L142.731 170.339C138.861 181.845 125.938 188.306 121.669 199.692C118.894 207.127 120.424 215.794 124.786 222.426C129.148 229.058 136.071 233.754 143.564 236.373C145.699 231.954 143.6 226.653 140.76 222.661C137.921 218.669 134.257 215.09 132.784 210.415Z" fill="white"/>
</g>
<path d="M160.49 253.771L132.547 211.518L146.259 270.962C146.259 270.962 144.836 286.994 148.144 300.692C150.044 308.597 153.567 317.221 155.054 322.587C155.883 325.69 156.941 328.727 158.22 331.673L167.343 334.057L160.49 253.771Z" fill="#FFBE9D"/>
<path d="M148.804 345.919L167.717 337.245L165.248 312.169L151.522 311.458C154.247 321.313 155.279 325.034 157.093 331.574L146.932 343.514C146.784 343.687 146.675 343.891 146.614 344.111C146.554 344.331 146.542 344.562 146.581 344.787C146.62 345.012 146.708 345.225 146.839 345.412C146.969 345.599 147.14 345.755 147.338 345.869C147.559 345.998 147.809 346.069 148.065 346.078C148.32 346.087 148.574 346.032 148.804 345.919Z" fill="#FFBE9D"/>
<path d="M137.325 78.8319C136.785 78.5169 136.163 78.3709 135.539 78.4128C134.915 78.4546 134.317 78.6824 133.824 79.0667C132.851 79.8548 132.038 80.8207 131.426 81.913C130.813 83.0067 129.953 83.9423 128.914 84.6454C126.011 86.3247 122.055 84.1758 119.052 85.67C116.81 86.7872 115.736 89.6477 113.359 90.4518C115.753 91.0581 118.289 90.6976 120.418 89.4485C121.152 88.8856 121.992 88.4766 122.887 88.2459C124.31 88.0609 125.534 89.0286 126.829 89.5908C128.423 90.2327 130.19 90.2997 131.827 89.7803C133.465 89.2609 134.87 88.1875 135.802 86.7445C136.621 85.3854 137.033 83.699 138.293 82.7242C138.933 82.2332 139.716 82.0126 140.342 81.4362C140.968 80.8598 141.231 79.8423 140.62 79.3015" fill="#5243FE"/>
<path d="M132.566 83.1509C132.731 82.299 133.159 81.5201 133.79 80.924C134.42 80.3279 135.222 79.9446 136.082 79.8279C135.362 80.2191 134.681 80.6765 134.046 81.1941C133.488 81.7945 132.992 82.4502 132.566 83.1509Z" fill="#263238"/>
<path d="M127.102 87.2637C127.705 87.2643 128.309 87.2311 128.909 87.1641C130.341 86.9251 131.633 86.1647 132.538 85.0294C133.591 83.713 134.267 82.2685 135.021 81.4004C135.383 80.8826 135.873 80.468 136.444 80.1979C136.48 80.2548 135.897 80.6533 135.249 81.557C134.922 82.0053 134.58 82.5816 134.203 83.222C133.805 83.9402 133.351 84.6255 132.844 85.2714C131.879 86.4617 130.488 87.2278 128.966 87.4061C128.515 87.4706 128.058 87.4706 127.607 87.4061C127.43 87.3989 127.256 87.3501 127.102 87.2637Z" fill="#263238"/>
<g opacity="0.4">
<path d="M135.736 79.9418C134.421 80.4745 133.274 81.355 132.421 82.4892C132.357 82.5512 132.309 82.6273 132.281 82.7114C132.252 82.7955 132.244 82.8852 132.257 82.973C132.282 83.0255 132.318 83.072 132.362 83.1094C132.407 83.1468 132.459 83.1741 132.515 83.1897C132.571 83.2052 132.63 83.2085 132.687 83.1993C132.744 83.1902 132.799 83.1688 132.847 83.1367C133.041 82.9958 133.187 82.7999 133.267 82.5746C133.268 82.9638 133.185 83.3486 133.023 83.7024C132.861 84.0562 132.624 84.3706 132.328 84.6239C131.735 85.1273 131.058 85.5224 130.329 85.7908C129.599 86.0561 128.896 86.3897 128.229 86.787C128.08 86.8795 127.923 87.029 127.966 87.1926C128.009 87.3563 128.286 87.4132 128.486 87.3848C130.151 87.0828 131.674 86.2489 132.826 85.0081C133.964 83.7705 134.963 82.4129 135.808 80.9593C135.919 80.7999 136.001 80.6215 136.05 80.4327C136.068 80.3372 136.06 80.2383 136.024 80.1476C135.989 80.0569 135.929 79.9781 135.85 79.9204" fill="black"/>
</g>
<path d="M139.596 75.9215C138.656 75.6866 137.625 75.4589 136.749 75.9215C135.682 76.4765 135.326 77.8285 135.326 79.031C135.326 79.5149 135.533 79.5433 135.81 79.9418C136.209 80.4826 136.785 81.1159 137.447 81.0021C137.99 80.9101 138.501 80.6813 138.931 80.3372C139.362 79.9931 139.697 79.545 139.907 79.0353C140.116 78.5255 140.192 77.9709 140.128 77.4236C140.063 76.8763 139.861 76.3545 139.539 75.9072" fill="#5243FE"/>
<path d="M141.018 83.6135C139.823 84.4745 139.773 86.2392 140.115 87.6695C140.456 89.0997 141.075 90.5157 140.826 91.9887C140.179 95.4327 134.999 96.7633 134.792 100.257C134.671 102.207 136.215 104.263 135.29 105.95C134.579 107.223 132.899 107.465 131.533 107.971C130.106 108.527 128.874 109.489 127.988 110.739C127.103 111.988 126.604 113.47 126.552 115.001C126.552 117.086 127.264 119.384 126.147 121.113C125.214 122.536 123.343 122.977 122.233 124.237C120.411 126.293 121.464 129.887 123.848 131.246C126.232 132.605 129.327 132.1 131.675 130.698C134.415 129.061 136.514 126.322 139.553 125.34C142.968 124.23 146.618 125.617 150.07 126.621C153.521 127.624 157.676 128.044 160.295 125.632C163.262 122.857 162.743 117.719 165.567 114.802C167.19 113.129 169.581 112.525 171.708 111.571C173.836 110.618 175.978 108.874 175.978 106.547C175.978 104.334 174.007 102.349 174.455 100.179C174.732 98.8268 175.878 97.8449 176.59 96.621C177.65 94.7353 177.508 92.4227 177.301 90.2667L176.881 85.1719" fill="#263238"/>
<path d="M142.342 60.7579C142.342 64.5221 137.44 66.9984 137.653 70.7199C137.746 72.328 138.806 73.7369 139.076 75.3309C139.432 77.4656 138.308 79.5504 137.945 81.6923C137.233 86.104 139.937 90.6153 143.801 92.8568C147.665 95.0982 152.425 95.3686 156.83 94.5859" fill="#263238"/>
<path d="M172.549 58.6302C172.478 60.6511 173.887 62.4016 175.289 63.8603C176.69 65.319 178.249 66.8346 178.619 68.8413C179.273 72.3991 175.929 75.7933 176.79 79.28C177.245 81.1443 178.846 82.5959 179.202 84.4886C179.558 86.3814 178.626 88.1532 177.459 89.6048C176.292 91.0564 174.869 90.8999 173.851 92.4511C172.665 94.2 171.126 95.681 169.333 96.7988C165.526 99.09 160.73 96.1939 158.83 95.7172" fill="#263238"/>
<path d="M141.675 62.9495C141.554 61.1279 143.183 59.6407 144.863 58.9078C146.542 58.1749 148.42 57.8404 149.9 56.7731C151.203 55.8124 152.035 54.368 153.145 53.1654C154.492 51.6863 156.208 50.5923 158.117 49.9957C160.027 49.399 162.06 49.3213 164.01 49.7704C165.959 50.2195 167.754 51.1793 169.209 52.5513C170.665 53.9232 171.73 55.6579 172.293 57.5771C173.048 60.153 172.728 63.2697 170.742 65.0628C168.437 67.1975 164.886 66.8631 161.812 66.365C158.738 65.8669 155.251 65.383 152.775 67.2758C151.281 68.4214 150.47 70.2146 149.594 71.8797C148.719 73.5447 147.609 75.2525 145.852 75.9356C144.094 76.6187 141.646 75.6581 141.504 73.8009" fill="#263238"/>
<path d="M174.144 68.1297C173.596 62.9211 169.875 56.6593 164.687 57.4562L148.62 62.2451C147.862 62.3577 147.174 62.7506 146.692 63.3461C146.209 63.9417 145.968 64.6965 146.016 65.4614L150.143 107.593L168.238 108.703L167.135 95.518C167.135 95.518 173.753 94.1304 174.77 85.371C175.275 80.9949 174.756 73.9077 174.144 68.1297Z" fill="#FFBE9D"/>
<path d="M173.162 74.8896C173.177 75.1806 173.078 75.4661 172.885 75.6844C172.692 75.9027 172.421 76.0364 172.13 76.0565C171.989 76.0753 171.845 76.0653 171.708 76.0271C171.571 75.9888 171.443 75.9232 171.332 75.834C171.221 75.7449 171.129 75.6342 171.062 75.5085C170.995 75.3829 170.954 75.2449 170.941 75.103C170.924 74.812 171.021 74.5257 171.213 74.306C171.405 74.0863 171.675 73.9508 171.966 73.929C172.108 73.9122 172.252 73.9238 172.389 73.9632C172.526 74.0026 172.654 74.069 172.765 74.1584C172.877 74.2479 172.969 74.3586 173.037 74.4841C173.105 74.6097 173.147 74.7475 173.162 74.8896Z" fill="#263238"/>
<path d="M173.04 72.698C172.912 72.8474 172.037 72.2568 170.842 72.3137C169.646 72.3707 168.785 73.0253 168.65 72.8617C168.515 72.698 168.714 72.5343 169.084 72.2355C169.587 71.8546 170.196 71.6384 170.827 71.6164C171.453 71.5869 172.071 71.759 172.592 72.1074C172.976 72.3707 173.111 72.6268 173.04 72.698Z" fill="#263238"/>
<path d="M161.083 75.5158C161.095 75.8059 160.995 76.0894 160.802 76.3069C160.61 76.5244 160.341 76.6591 160.052 76.6828C159.911 76.6995 159.768 76.6881 159.632 76.649C159.495 76.61 159.368 76.5442 159.257 76.4554C159.147 76.3666 159.055 76.2567 158.987 76.132C158.92 76.0073 158.877 75.8704 158.863 75.7293C158.846 75.4382 158.943 75.1519 159.135 74.9322C159.327 74.7125 159.597 74.5771 159.888 74.5552C160.03 74.5384 160.174 74.55 160.311 74.5894C160.448 74.6288 160.576 74.6952 160.687 74.7846C160.799 74.8741 160.891 74.9848 160.959 75.1103C161.027 75.2359 161.069 75.3737 161.083 75.5158Z" fill="#263238"/>
<path d="M161.249 73.424C161.113 73.5734 160.245 72.9828 159.043 73.0326C157.84 73.0824 156.986 73.7442 156.851 73.5876C156.716 73.4311 156.915 73.2532 157.285 72.9614C157.79 72.5788 158.402 72.3624 159.036 72.3424C159.66 72.3142 160.277 72.4835 160.8 72.8262C161.177 73.0966 161.313 73.3528 161.249 73.424Z" fill="#263238"/>
<path d="M165.98 82.1405C166.605 81.9186 167.255 81.7729 167.915 81.7064C168.221 81.6637 168.513 81.5926 168.556 81.3791C168.569 81.0602 168.485 80.7449 168.314 80.4754C167.994 79.7638 167.659 78.9811 167.303 78.1841C165.88 74.9109 164.877 72.2141 165.012 72.1572C165.147 72.1002 166.386 74.7117 167.787 77.9849C168.122 78.789 168.442 79.5575 168.755 80.2975C168.961 80.6599 169.034 81.0826 168.961 81.4929C168.92 81.6021 168.856 81.7008 168.772 81.782C168.688 81.8632 168.588 81.9249 168.478 81.9626C168.309 82.0139 168.134 82.0449 167.958 82.0551C167.305 82.1672 166.64 82.1959 165.98 82.1405Z" fill="#263238"/>
<path d="M167.133 95.4967C163.084 95.8092 159.031 94.9443 155.463 93.0062C155.563 93.0062 159.021 99.0546 167.346 97.8093L167.133 95.4967Z" fill="#EB996E"/>
<path d="M165.68 84.8372C165.423 84.5118 165.09 84.2546 164.71 84.0884C164.331 83.9221 163.916 83.8518 163.502 83.8837C163.218 83.9051 162.941 83.9913 162.695 84.1355C162.448 84.2798 162.238 84.4784 162.079 84.7163C161.93 84.969 161.855 85.259 161.864 85.5525C161.873 85.8459 161.965 86.1309 162.129 86.3742C162.338 86.6197 162.616 86.7969 162.927 86.8831C163.237 86.9694 163.567 86.9606 163.872 86.8581C164.463 86.6293 164.995 86.272 165.431 85.8121C165.57 85.6998 165.684 85.5591 165.765 85.3994C165.805 85.3177 165.822 85.2266 165.813 85.1362C165.804 85.0457 165.77 84.9595 165.715 84.887" fill="#EB996E"/>
<path d="M161.659 70.0369C161.552 70.3713 160.35 70.2646 158.948 70.4923C157.546 70.72 156.422 71.1541 156.222 70.8694C156.13 70.7342 156.315 70.4212 156.763 70.0796C157.357 69.6598 158.043 69.3889 158.763 69.2898C159.477 69.1732 160.208 69.2269 160.897 69.4463C161.431 69.6313 161.701 69.8804 161.659 70.0369Z" fill="#263238"/>
<path d="M172.457 69.2399C172.258 69.5245 171.418 69.2399 170.422 69.3039C169.426 69.368 168.593 69.5672 168.387 69.3039C168.294 69.1687 168.387 68.8912 168.771 68.5924C169.251 68.2574 169.822 68.0785 170.408 68.08C170.992 68.0613 171.567 68.2282 172.051 68.5568C172.414 68.8272 172.542 69.1047 172.457 69.2399Z" fill="#263238"/>
<path d="M146.384 92.2946C148.796 92.6859 148.96 91.4549 150.653 89.7258C151.509 88.8476 152.147 87.7817 152.518 86.613C152.889 85.4443 152.981 84.2051 152.788 82.9944C152.432 80.8597 151.194 78.725 151.849 76.6899C152.724 73.9788 156.438 73.004 157.328 70.2858C157.847 68.7132 157.249 66.92 157.847 65.3759C158.445 63.8318 159.875 63.0349 161.32 62.4514C162.764 61.8679 164.315 61.4339 165.511 60.4305C166.706 59.4272 167.396 57.5843 166.55 56.2821C160.093 57.3199 153.782 59.1209 147.75 61.6473C146.327 62.2379 144.904 62.9353 144.1 64.2303C143.296 65.5254 143.388 67.3256 143.516 68.9267L145.544 92.323" fill="#263238"/>
<path d="M140.337 65.2763C140.268 65.1562 140.224 65.0229 140.209 64.885C140.164 64.4802 140.249 64.0715 140.451 63.718C140.775 63.1522 141.275 62.7075 141.874 62.4514C142.674 62.1621 143.539 62.1005 144.372 62.2735C145.29 62.4087 146.25 62.736 147.296 62.8926C147.831 63.0182 148.386 63.028 148.925 62.9212C149.464 62.8144 149.974 62.5936 150.42 62.2735C151.317 61.5619 151.729 60.2953 152.156 59.0643C152.584 57.7521 153.215 56.5154 154.028 55.3997C155.602 53.2246 157.855 51.635 160.432 50.8813C161.568 50.5668 162.766 50.5497 163.911 50.8315C164.906 51.0965 165.804 51.6396 166.502 52.3969C167.085 53.0223 167.454 53.8174 167.555 54.6668C167.637 55.2987 167.564 55.9412 167.341 56.5383C167.206 56.9179 166.995 57.2664 166.722 57.5629C166.637 57.6705 166.533 57.7621 166.416 57.8333C166.758 57.4374 167.024 56.9814 167.199 56.4884C167.386 55.9102 167.435 55.2959 167.341 54.6953C167.23 53.8915 166.866 53.1438 166.302 52.5606C165.62 51.8604 164.755 51.3671 163.805 51.1375C162.712 50.8861 161.574 50.9155 160.496 51.2228C158 51.9664 155.821 53.5151 154.298 55.6275C153.51 56.7116 152.895 57.912 152.477 59.1853C152.042 60.4021 151.623 61.7042 150.612 62.5368C150.126 62.928 149.539 63.1746 148.919 63.2483C148.35 63.3177 147.774 63.301 147.211 63.1985C146.129 63.0206 145.183 62.6791 144.293 62.5297C143.508 62.3545 142.689 62.3938 141.924 62.6435C141.36 62.866 140.883 63.2655 140.565 63.782C140.357 64.1061 140.253 64.4859 140.266 64.8707C140.302 65.1411 140.359 65.2763 140.337 65.2763Z" fill="#455A64"/>
<path d="M138.748 74.719C139.204 74.477 153.321 72.2925 159.91 71.4102C164.719 70.8409 169.556 70.5463 174.398 70.5278C174.863 71.8676 175.169 73.2577 175.309 74.6692C175.593 77.2806 175.131 77.8712 175.131 77.8712L138.592 78.8034L138.748 74.719Z" fill="#5243FE"/>
<path d="M138.75 78.6467C137.953 81.2297 136.956 85.492 134.971 86.8867C133.776 87.7192 132.303 88.0465 130.951 88.5945C129.599 89.1424 128.233 90.0176 127.848 91.4407C127.137 94.0451 130.097 96.6423 129.314 99.2253C128.809 100.883 126.987 101.716 125.351 102.285C123.714 102.854 121.864 103.502 121.124 105.074C120.306 106.796 121.188 108.789 121.75 110.61C122.312 112.432 122.305 114.88 120.576 115.698C121.914 116.58 123.785 115.506 124.497 114.069C125.208 112.631 125.208 110.959 125.6 109.408C125.991 107.857 127.101 106.241 128.702 106.184C129.62 106.184 130.474 106.647 131.392 106.732C132.858 106.875 134.238 105.942 135.178 104.804C136.117 103.665 136.764 102.313 137.668 101.154C138.913 99.5455 140.621 98.3074 141.845 96.7134C143.069 95.1195 143.731 92.7358 142.557 91.0209" fill="#263238"/>
<path d="M152.605 78.4474L147.695 78.6466C146.827 81.315 148.719 84.2467 148.029 86.9649C147.733 87.9059 147.286 88.7927 146.706 89.5905L140.131 99.6877C141.411 99.9396 142.73 99.9178 144.002 99.6237C144.636 99.4701 145.233 99.1891 145.755 98.7976C146.278 98.4062 146.715 97.9125 147.04 97.3466C147.638 96.2081 147.624 94.8419 148.108 93.6536C149.161 91.035 152.377 89.6973 153.188 87.0076C153.999 84.3178 152.27 81.2225 152.605 78.4474Z" fill="#263238"/>
<path d="M175.375 75.6224C175.257 75.6598 175.135 75.6883 175.012 75.7078L173.959 75.8786C173.041 76.028 171.711 76.1988 170.06 76.3696C166.758 76.7183 162.176 76.9673 157.117 77.01C152.057 77.0527 147.475 76.9317 144.166 76.8606L140.238 76.7538L139.171 76.7111C139.046 76.7149 138.921 76.7005 138.801 76.6684C138.924 76.6535 139.048 76.6535 139.171 76.6684H140.238C141.17 76.6684 142.508 76.6684 144.166 76.6684C147.482 76.6684 152.057 76.7467 157.117 76.7111C162.176 76.6756 166.737 76.4621 170.039 76.1775C171.682 76.0423 173.02 75.9142 173.938 75.8074L174.998 75.7007C175.119 75.6539 175.246 75.6275 175.375 75.6224Z" fill="#263238"/>
<path d="M175.323 73.6087C175.2 73.6192 175.076 73.6192 174.953 73.6087L173.886 73.6514L169.958 73.7582C166.649 73.8507 162.074 74.0357 157.036 74.3986C151.998 74.7615 147.437 75.2525 144.157 75.6865L140.264 76.2131L139.211 76.3554C139.086 76.3742 138.959 76.3742 138.834 76.3554C138.951 76.3078 139.072 76.2744 139.197 76.2558L140.243 76.0494C141.154 75.8715 142.477 75.6509 144.121 75.4019C147.401 74.9109 151.948 74.3701 157.007 73.9787C162.067 73.5874 166.642 73.4735 169.958 73.4451C171.616 73.4451 172.954 73.4451 173.886 73.4451L174.953 73.4806C175.083 73.5023 175.208 73.5456 175.323 73.6087Z" fill="#263238"/>
<g opacity="0.4">
<path d="M141.504 76.0638C141.504 76.0638 152.647 75.3949 158.29 75.3522C163.933 75.3095 169.789 75.6155 175.076 73.6587C175.076 73.6871 153.095 73.189 141.504 76.0638Z" fill="black"/>
</g>
<path d="M138.039 80.9521C137.585 81.086 137.097 81.0348 136.68 80.8098C136.205 80.6042 135.8 80.2657 135.513 79.835C135.161 79.3 135.014 78.6553 135.1 78.0205C135.164 77.4441 135.416 76.9046 135.815 76.4844C136.215 76.0642 136.741 75.7865 137.313 75.6937C137.541 75.6337 137.777 75.6204 138.01 75.6547C138.242 75.6889 138.465 75.77 138.665 75.8929C138.231 75.8575 137.793 75.8766 137.363 75.9498C136.918 76.0644 136.51 76.2896 136.175 76.6045C135.784 76.985 135.533 77.4866 135.463 78.0276C135.39 78.5783 135.505 79.1377 135.791 79.6144C136.034 80.0059 136.378 80.3253 136.787 80.5394C137.187 80.7251 137.607 80.8635 138.039 80.9521Z" fill="#263238"/>
<path d="M138.672 78.9954C138.486 78.3317 138.426 77.6391 138.494 76.9533C138.431 76.2641 138.496 75.5692 138.686 74.9039C138.861 75.572 138.922 76.265 138.864 76.9533C138.917 77.64 138.852 78.3307 138.672 78.9954Z" fill="#263238"/>
<path d="M138.465 79.337C138.365 79.337 138.087 78.5471 137.269 77.9779C136.742 77.6822 136.177 77.4595 135.59 77.3161C135.59 77.2663 135.803 77.1951 136.166 77.2094C136.639 77.2388 137.095 77.3989 137.483 77.6719C137.873 77.9469 138.18 78.3234 138.372 78.7606C138.507 79.095 138.507 79.3227 138.465 79.337Z" fill="#263238"/>
<path d="M166.135 86.1679C165.319 86.1475 164.511 86.006 163.737 85.7481C162.927 85.6123 162.154 85.3094 161.467 84.8586C162.269 84.9625 163.059 85.1387 163.829 85.3852C164.634 85.5254 165.411 85.7894 166.135 86.1679Z" fill="#263238"/>
<path d="M175.387 101.993L189.205 93.0274L203.928 64.8564L208.24 43.7869H215.597C215.597 43.7869 217.12 64.6358 214.58 71.723C212.04 78.8103 199.886 103.836 199.886 103.836L183.52 119.355L175.387 101.993Z" fill="#FFBE9D"/>
<path d="M167.611 101.26C167.924 101.26 174.969 101.68 174.969 101.68L182.604 98.9335C182.604 98.9335 184.668 126.649 184.668 126.023C184.668 125.397 139.085 138.497 139.085 138.497C139.085 138.497 124.184 167.052 122.946 170.361C121.708 173.669 104.944 197.671 104.944 197.671L97.2871 193.743L115.268 158.776C115.268 158.776 128.411 122.778 129.728 119.007C132.951 109.756 142.536 107.181 142.536 107.181L150.135 103.21L167.611 101.26Z" fill="#FFBE9D"/>
<path d="M188.252 104.882C188.294 104.925 187.668 105.544 186.829 106.675C184.631 109.647 183.433 113.24 183.406 116.936C183.406 118.359 183.534 119.22 183.463 119.227C183.386 119.033 183.336 118.83 183.313 118.623C183.215 118.066 183.158 117.502 183.143 116.936C183.084 115.063 183.356 113.193 183.947 111.414C184.545 109.638 185.448 107.979 186.615 106.512C186.969 106.072 187.355 105.658 187.768 105.274C188.06 105.003 188.23 104.861 188.252 104.882Z" fill="#EB996E"/>
<path d="M140.122 126.293C140.015 126.293 139.68 125.197 139.068 123.902C138.456 122.607 137.809 121.64 137.894 121.576C138.563 122.168 139.081 122.912 139.403 123.746C139.836 124.528 140.082 125.4 140.122 126.293Z" fill="#EB996E"/>
<path d="M201.8 20.2412H197.723V60.7579H201.8V20.2412Z" fill="#455A64"/>
<path d="M213.462 39.354C212.038 37.881 206.282 29.6268 206.282 29.6268C206.282 29.6268 195.537 30.6088 195.537 33.0779V34.7501L196.619 36.8208L196.32 38.5997C196.32 38.5997 196.32 40.8625 196.419 41.261C196.519 41.6594 197.7 42.3426 197.7 42.3426L198.099 40.6704L200.098 39.8805L202.076 42.613L207.769 44.5698L208.481 45.566H214.792L215.596 44.0005C215.596 44.0005 214.963 40.834 213.462 39.354Z" fill="#FFBE9D"/>
<path d="M200.314 78.5328C198.509 78.5328 196.746 77.9978 195.246 76.9954C193.745 75.9931 192.576 74.5684 191.886 72.9015C191.195 71.2346 191.015 69.4004 191.367 67.6308C191.719 65.8613 192.588 64.2359 193.863 62.9601C195.139 61.6843 196.764 60.8155 198.534 60.4635C200.304 60.1115 202.138 60.2922 203.805 60.9826C205.472 61.6731 206.896 62.8423 207.899 64.3424C208.901 65.8426 209.436 67.6063 209.436 69.4105C209.434 71.8293 208.472 74.1485 206.762 75.8589C205.052 77.5692 202.733 78.5309 200.314 78.5328ZM200.314 61.0069C198.65 61.0069 197.024 61.5004 195.64 62.4249C194.257 63.3494 193.179 64.6634 192.543 66.2006C191.906 67.7379 191.74 69.4294 192.065 71.0611C192.39 72.6928 193.192 74.1915 194.369 75.3674C195.546 76.5434 197.045 77.3439 198.677 77.6676C200.309 77.9913 202.001 77.8238 203.537 77.1861C205.074 76.5484 206.387 75.4693 207.31 74.0852C208.234 72.7011 208.726 71.0743 208.724 69.4105C208.721 67.1817 207.833 65.0453 206.256 63.4699C204.68 61.8945 202.543 61.0088 200.314 61.0069Z" fill="#263238"/>
<path d="M227.931 70.3641H178.818V72.8617H227.931V70.3641Z" fill="#455A64"/>
<path d="M202.314 70.3641H178.818V72.8617H202.314V70.3641Z" fill="#263238"/>
<path d="M182.524 72.1571C182.752 72.9897 183.733 76.5048 185.584 83.1295C187.519 90.0886 190.209 99.7873 193.276 110.838L193.34 111.073H173.273L173.33 110.845C175.949 99.7802 178.254 90.0815 179.898 83.0939L182.524 72.1287C182.325 72.9825 181.513 76.5546 179.984 83.3145C178.404 90.2381 176.198 99.8869 173.679 110.902L173.508 110.681H193.098L192.927 110.909C189.967 99.9083 187.37 90.2736 185.512 83.3287C183.705 76.5902 182.744 73.0323 182.524 72.1571Z" fill="#263238"/>
<path d="M171.176 110.069H196.387C196.387 110.069 195.149 119.405 183.699 119.32C172.357 119.284 171.176 110.069 171.176 110.069Z" fill="#455A64"/>
<path d="M186.468 117.961C186.468 117.961 186.276 118.039 185.913 118.11C185.399 118.213 184.878 118.268 184.354 118.274C183.573 118.297 182.792 118.244 182.02 118.117C181.079 117.954 180.156 117.697 179.267 117.349C178.379 116.986 177.533 116.53 176.741 115.99C176.097 115.549 175.499 115.046 174.955 114.488C174.583 114.118 174.243 113.719 173.937 113.293C173.731 112.987 173.624 112.809 173.645 112.795C173.667 112.781 174.179 113.414 175.132 114.303C175.695 114.823 176.297 115.299 176.933 115.726C177.716 116.23 178.542 116.664 179.402 117.022C180.271 117.361 181.169 117.621 182.084 117.797C182.834 117.936 183.593 118.015 184.354 118.032C185.657 118.039 186.461 117.897 186.468 117.961Z" fill="white"/>
<path d="M220.43 72.1571C220.658 72.9897 221.64 76.5048 223.49 83.1295C225.425 90.0886 228.115 99.7873 231.182 110.838L231.246 111.073H211.18L211.237 110.845C213.862 99.7802 216.161 90.0815 217.804 83.0939L220.43 72.1287C220.238 72.9825 219.427 76.5546 217.89 83.3145C216.31 90.2381 214.104 99.8869 211.585 110.902L211.414 110.681H231.004L230.833 110.909C227.873 99.9083 225.283 90.2736 223.419 83.3287C221.611 76.5902 220.651 73.0323 220.43 72.1571Z" fill="#263238"/>
<path d="M209.082 110.069H234.286C234.286 110.069 233.048 119.405 221.599 119.32C210.27 119.284 209.082 110.069 209.082 110.069Z" fill="#455A64"/>
<path d="M224.381 117.961C224.204 118.042 224.013 118.093 223.819 118.11C223.306 118.213 222.784 118.268 222.261 118.274C221.479 118.297 220.698 118.244 219.927 118.117C218.985 117.954 218.063 117.697 217.173 117.349C216.285 116.986 215.439 116.53 214.647 115.99C214.005 115.547 213.407 115.045 212.861 114.488C212.489 114.121 212.151 113.721 211.85 113.293C211.637 112.987 211.53 112.809 211.552 112.795C211.573 112.781 212.085 113.414 213.046 114.303C213.604 114.825 214.204 115.301 214.839 115.726C215.622 116.23 216.448 116.664 217.308 117.022C218.177 117.361 219.075 117.621 219.991 117.797C220.74 117.936 221.499 118.015 222.261 118.032C223.563 118.039 224.367 117.897 224.381 117.961Z" fill="white"/>
<path d="M89.7512 191.95C89.7512 191.95 86.357 194.867 88.3708 197.834L90.783 199.058L99.2364 219.985L105.05 217.21L94.782 197.037C94.782 197.037 95.7497 194.099 94.782 193.024C93.8143 191.95 92.4979 191.153 89.7512 191.95Z" fill="#263238"/>
<path d="M94.7747 197.671C94.7747 197.671 89.6016 204.523 89.3811 205.384C89.1605 206.245 89.9219 208.728 90.3559 209.376C90.79 210.024 90.5338 214.229 92.0637 214.876C93.5935 215.524 94.7747 216.058 95.6215 215.737C96.1881 215.523 96.7396 215.271 97.2724 214.983C97.4375 214.233 97.8186 213.548 98.3687 213.012C98.9187 212.475 99.6136 212.112 100.368 211.966C100.973 211.856 101.598 211.973 102.124 212.295C102.649 212.616 103.037 213.12 103.214 213.709L104.872 213.745C104.872 213.745 104.537 207.149 104.217 206.75C103.897 206.352 101.954 203.228 101.954 203.228L107.647 193.743L98.7382 190.897L94.7747 197.671Z" fill="#FFBE9D"/>
<path d="M143.731 336.149L97.7637 219.801L108.153 217.566L149.737 333.666C149.737 333.666 151.53 340.589 149.48 341.095C145.866 342.005 143.731 336.149 143.731 336.149Z" fill="#F4F3FF"/>
<path d="M143.729 336.149L143.836 336.391C143.907 336.547 144.014 336.789 144.17 337.102C144.617 338.026 145.189 338.883 145.871 339.65C146.372 340.218 146.998 340.661 147.7 340.945C147.901 341.006 148.105 341.056 148.312 341.094C148.758 341.16 149.214 341.121 149.642 340.98C149.849 340.872 150.012 340.696 150.105 340.482C150.305 340.01 150.407 339.501 150.404 338.988C150.418 338.432 150.395 337.876 150.333 337.323C150.198 336.099 149.977 334.886 149.671 333.694C142.071 312.546 126.531 269.254 108.62 219.381C108.407 218.797 108.201 218.214 107.994 217.63L108.208 217.751L97.7975 219.985L97.9256 219.736L130.537 302.435C134.642 312.895 137.951 321.32 140.228 327.133L142.833 333.815C143.124 334.576 143.352 335.153 143.501 335.558C143.651 335.964 143.722 336.149 143.722 336.149C143.722 336.149 143.63 335.957 143.473 335.565C143.316 335.174 143.075 334.598 142.761 333.843L140.093 327.183L130.295 302.52L97.5626 219.871L97.4844 219.665L97.6978 219.622L108.108 217.388L108.265 217.353L108.322 217.509L108.948 219.26C126.737 269.162 142.249 312.475 149.806 333.63C150.103 334.833 150.317 336.055 150.446 337.287C150.506 337.847 150.528 338.411 150.51 338.974C150.508 339.505 150.399 340.03 150.19 340.518C150.084 340.758 149.898 340.954 149.664 341.073C149.433 341.15 149.194 341.197 148.952 341.215C148.716 341.242 148.477 341.242 148.241 341.215C147.245 341.061 146.351 340.522 145.75 339.714C145.067 338.939 144.502 338.069 144.071 337.131C143.934 336.812 143.819 336.484 143.729 336.149Z" fill="#263238"/>
<path d="M146.578 335.188C146.478 335.224 136.808 309.871 124.967 278.569C113.127 247.267 103.62 221.843 103.706 221.807C103.791 221.772 113.475 247.118 125.316 278.434C137.156 309.75 146.699 335.153 146.578 335.188Z" fill="#263238"/>
<path d="M97.9532 215.474L90.0049 222.462L86.7246 224.084L87.9841 225.998L118.582 215.289L117.493 212.891L113.195 213.916L102.955 213.702L97.9532 215.474Z" fill="#263238"/>
<path d="M204.747 161.929C203.544 159.794 201.744 157.958 200.791 155.681C198.471 150.166 201.58 143.364 198.891 138.02C197.724 135.7 195.617 134.028 193.746 132.228C187.627 126.357 183.656 118.772 180.333 110.881C179.691 118.508 181.812 126.112 186.31 132.306C187.797 134.327 189.569 136.262 190.181 138.71C191.462 143.826 187.171 149.071 188.288 154.229C189.22 158.57 193.782 161.665 193.981 166.098C194.137 169.656 191.412 172.609 189.078 175.313C182.801 182.562 178.113 191.046 175.316 200.218C180.027 196.582 185.406 193.928 190.48 190.818C195.553 187.709 200.442 184.016 203.566 178.935C206.689 173.855 207.636 167.13 204.747 161.929Z" fill="#5243FE"/>
<path d="M177.012 102.541C178.079 105.316 179.146 108.12 180.335 110.888C180.406 110.098 180.491 109.315 180.619 108.533L177.012 102.541Z" fill="#5243FE"/>
<g opacity="0.7">
<path d="M204.747 161.929C203.544 159.794 201.744 157.958 200.791 155.681C198.471 150.166 201.58 143.364 198.891 138.02C197.724 135.7 195.617 134.028 193.746 132.228C187.627 126.357 183.656 118.772 180.333 110.881C179.691 118.508 181.812 126.112 186.31 132.306C187.797 134.327 189.569 136.262 190.181 138.71C191.462 143.826 187.171 149.071 188.288 154.229C189.22 158.57 193.782 161.665 193.981 166.098C194.137 169.656 191.412 172.609 189.078 175.313C182.801 182.562 178.113 191.046 175.316 200.218C180.027 196.582 185.406 193.928 190.48 190.818C195.553 187.709 200.442 184.016 203.566 178.935C206.689 173.855 207.636 167.13 204.747 161.929Z" fill="white"/>
<path d="M177.012 102.541C178.079 105.316 179.146 108.12 180.335 110.888C180.406 110.098 180.491 109.315 180.619 108.533L177.012 102.541Z" fill="white"/>
</g>
<path d="M188.503 205.861C191.84 217.346 196.081 229.99 206.569 235.747C210.127 237.682 214.276 238.764 216.98 241.752C221.541 246.79 220.409 255.55 225.618 259.926C230.827 264.302 238.86 261.569 245.314 263.704C249.235 265.006 252.323 268.031 256.023 269.866C259.724 271.702 264.961 271.909 267.266 268.486C267.786 272.755 264.05 277.067 259.738 277.146L266.768 278.263C264.576 283.158 257.61 283.628 252.636 281.636C247.662 279.643 243.308 275.993 238.028 275.047C232.157 273.993 225.775 276.427 220.296 274.072C212.739 270.82 211.38 260.844 206.641 254.148C202.862 248.79 196.864 245.531 191.698 241.439C186.532 237.348 181.906 231.42 182.711 224.91" fill="#5243FE"/>
<g opacity="0.7">
<path d="M188.503 205.861C191.84 217.346 196.081 229.99 206.569 235.747C210.127 237.682 214.276 238.764 216.98 241.752C221.541 246.79 220.409 255.55 225.618 259.926C230.827 264.302 238.86 261.569 245.314 263.704C249.235 265.006 252.323 268.031 256.023 269.866C259.724 271.702 264.961 271.909 267.266 268.486C267.786 272.755 264.05 277.067 259.738 277.146L266.768 278.263C264.576 283.158 257.61 283.628 252.636 281.636C247.662 279.643 243.308 275.993 238.028 275.047C232.157 273.993 225.775 276.427 220.296 274.072C212.739 270.82 211.38 260.844 206.641 254.148C202.862 248.79 196.864 245.531 191.698 241.439C186.532 237.348 181.906 231.42 182.711 224.91" fill="white"/>
</g>
<path d="M193.539 206.85C199.901 217.979 206.348 229.293 209.4 241.717C210.873 247.708 211.642 254.134 215.271 259.122C218.9 264.11 225.361 267.39 227.261 273.353C228.769 278.057 226.997 283.18 227.495 288.09C227.994 293 230.648 297.34 234.12 300.699C237.593 304.057 241.819 306.576 246.082 308.875C248.721 310.298 251.539 311.806 253.026 314.411C254.514 317.015 254.393 320.16 255.46 322.949C257.346 327.852 262.739 330.706 267.977 331.061C273.214 331.417 278.365 329.716 283.275 327.852C283.275 327.852 280.956 337.7 269.272 337.7C257.588 337.7 237.849 335.601 237.849 335.601L206.81 308.312L196.058 254.746L187.52 208.124L193.539 206.85Z" fill="#5243FE"/>
<g opacity="0.4">
<path d="M191.725 202.353C198.086 213.482 206.341 229.293 209.4 241.745C210.873 247.737 211.642 254.162 215.271 259.15C218.9 264.138 225.361 267.419 227.261 273.382C228.769 278.085 226.997 283.208 227.495 288.118C227.994 293.028 230.648 297.368 234.12 300.727C237.593 304.086 241.819 306.605 246.082 308.903C248.721 310.326 251.539 311.835 253.026 314.439C254.514 317.043 254.393 320.188 255.46 322.978C257.346 327.881 262.739 330.734 267.977 331.09C273.214 331.445 278.365 329.745 283.275 327.881C283.275 327.881 280.998 337.757 269.592 337.729C257.986 337.729 237.849 335.63 237.849 335.63L206.81 308.341L196.058 254.774L187.52 208.152L191.725 202.353Z" fill="black"/>
</g>
<path d="M234.966 328.293L250.962 334.626C251.244 334.754 251.483 334.96 251.651 335.22C251.818 335.48 251.908 335.783 251.909 336.092C251.909 336.311 251.865 336.528 251.778 336.73C251.692 336.931 251.565 337.113 251.406 337.263C251.246 337.414 251.058 337.53 250.852 337.605C250.646 337.68 250.427 337.713 250.208 337.7L231.252 336.668L234.966 328.293Z" fill="#FFBE9D"/>
<path d="M188.913 194.148C189.361 195.572 236.951 334.085 236.951 334.085H222.086L181.441 237.682L187.547 195.87" fill="#FFBE9D"/>
<path d="M224.984 311.458C225.218 293.462 208.24 280.341 203.971 270.628C199.702 260.915 208.475 256.183 209.187 247.182C209.898 238.18 194.251 215.346 194.251 215.346C190.473 210.123 191.682 205.427 191.682 205.427C192.081 204.95 192.493 204.473 192.906 204.004C196.073 200.382 192.742 197.173 192.308 194.789C191.874 192.405 189.27 160.691 183.62 155.909L144.313 156.777C144.313 156.777 132.366 173.94 130.843 188.705C129.32 203.47 132.494 212.692 132.494 212.692C132.494 212.692 161.519 287.52 162.138 288.389C162.757 289.257 172.328 326.678 191.704 337.928L244.203 337.793C241.364 336.22 224.749 329.46 224.984 311.458Z" fill="#5243FE"/>
<path d="M161.761 119.021C161.761 119.021 142.157 122.294 140.129 126.023C139.247 127.645 137.183 139.393 137.183 139.393C137.183 139.393 133.91 148.473 137.183 151.874C139.228 153.966 141.669 155.63 144.363 156.77L183.67 155.902C183.67 155.902 187.342 156.329 187.534 147.484C187.726 138.639 186.822 131.118 183.976 120.679L176.967 100.954L172.192 101.495L161.761 119.021Z" fill="#5243FE"/>
<path d="M183.997 155.766C183.997 155.866 175.06 156.215 164.03 156.542C153.001 156.869 144.057 157.054 144.057 156.955C144.057 156.855 152.994 156.499 164.023 156.172C175.053 155.845 183.997 155.667 183.997 155.766Z" fill="#263238"/>
<path d="M160.004 186.407C160.15 186.024 160.323 185.653 160.523 185.297C160.708 184.941 160.922 184.514 161.157 184.002C161.391 183.489 161.676 182.92 161.939 182.265C162.509 180.977 163.113 179.419 163.704 177.64C164.963 173.796 165.766 169.817 166.095 165.786C166.237 163.928 166.287 162.228 166.266 160.805C166.266 160.093 166.266 159.467 166.209 158.905C166.152 158.342 166.159 157.859 166.131 157.481C166.084 157.073 166.067 156.661 166.081 156.25C166.178 156.65 166.242 157.057 166.273 157.467C166.33 157.859 166.38 158.343 166.415 158.89C166.451 159.438 166.515 160.093 166.522 160.797C166.583 162.458 166.553 164.121 166.429 165.778C166.276 167.809 166.003 169.829 165.611 171.827C165.195 173.819 164.665 175.787 164.024 177.718C163.493 179.292 162.878 180.836 162.181 182.344C161.897 182.998 161.591 183.56 161.342 184.066C161.093 184.571 160.851 184.991 160.63 185.332C160.451 185.707 160.241 186.066 160.004 186.407Z" fill="#263238"/>
<path d="M174.241 165.707C174.134 165.707 174.39 163.572 174.44 160.918C174.49 158.264 174.312 156.137 174.44 156.122C174.594 156.582 174.678 157.061 174.689 157.545C174.801 158.678 174.846 159.816 174.824 160.954C174.803 162.09 174.713 163.223 174.554 164.348C174.518 164.814 174.413 165.272 174.241 165.707Z" fill="#263238"/>
<path d="M178.723 263.733C178.66 263.674 178.601 263.612 178.545 263.548L178.04 262.978L176.125 260.78C174.475 258.858 172.126 256.048 169.294 252.518C163.602 245.467 156.088 235.441 148.488 223.935C144.808 218.575 141.536 212.948 138.697 207.099C136.399 202.299 134.819 197.188 134.008 191.928C133.465 188.382 133.432 184.775 133.908 181.219C134.075 179.918 134.342 178.631 134.705 177.37C134.713 177.455 134.713 177.541 134.705 177.626C134.67 177.811 134.613 178.053 134.556 178.337C134.499 178.622 134.406 179.049 134.328 179.547C134.25 180.045 134.157 180.579 134.086 181.205C133.667 184.756 133.739 188.347 134.299 191.878C135.147 197.104 136.743 202.18 139.039 206.95C141.89 212.771 145.162 218.376 148.83 223.721C156.422 235.249 163.915 245.26 169.536 252.348C172.34 255.905 174.66 258.752 176.275 260.68C177.065 261.641 177.698 262.395 178.132 262.921L178.609 263.512C178.654 263.582 178.692 263.656 178.723 263.733Z" fill="#263238"/>
<path d="M181.443 188.769C181.375 188.933 181.292 189.091 181.194 189.239C180.994 189.566 180.731 189.993 180.411 190.534C179.699 191.651 178.746 193.28 177.6 195.33C174.554 200.631 172.135 206.269 170.392 212.13C168.666 218.001 168.07 224.146 168.634 230.239C168.823 232.081 169.144 233.908 169.595 235.704C169.737 236.344 169.901 236.828 169.979 237.163C170.034 237.332 170.074 237.506 170.1 237.682C170.021 237.522 169.957 237.356 169.908 237.184C169.801 236.857 169.616 236.38 169.453 235.761C168.949 233.968 168.588 232.138 168.371 230.289C167.731 224.151 168.304 217.947 170.057 212.03C171.802 206.14 174.266 200.488 177.394 195.202C178.575 193.166 179.585 191.551 180.311 190.455C180.667 189.9 180.952 189.48 181.151 189.196C181.239 189.047 181.336 188.905 181.443 188.769Z" fill="#263238"/>
<path d="M224.985 309.017C224.948 308.922 224.92 308.825 224.9 308.725C224.85 308.519 224.779 308.234 224.686 307.878C224.494 307.124 224.252 306.014 223.811 304.612C222.626 300.645 221.04 296.809 219.079 293.163C216.166 287.754 212.548 282.756 208.32 278.298C205.832 275.666 203.143 273.23 200.279 271.012C197.312 268.685 194.103 266.451 190.83 264.145C187.556 261.84 184.376 259.534 181.48 257.101C178.686 254.753 176.059 252.213 173.617 249.501C169.511 244.897 165.881 239.891 162.78 234.558C160.688 230.971 158.809 227.265 157.151 223.458C156.561 222.12 156.141 221.06 155.856 220.334L155.543 219.516C155.501 219.424 155.467 219.329 155.443 219.231C155.494 219.318 155.539 219.409 155.579 219.502L155.927 220.306C156.233 221.017 156.639 222.07 157.286 223.401C158.982 227.176 160.883 230.855 162.979 234.423C166.099 239.713 169.739 244.678 173.845 249.245C176.279 251.937 178.894 254.459 181.672 256.795C184.561 259.214 187.734 261.505 191.008 263.811C194.281 266.116 197.49 268.358 200.471 270.692C203.343 272.929 206.039 275.384 208.533 278.035C212.767 282.527 216.38 287.564 219.278 293.014C221.227 296.684 222.779 300.55 223.91 304.548C224.337 305.971 224.558 307.074 224.722 307.829C224.8 308.199 224.857 308.483 224.9 308.69C224.941 308.795 224.97 308.905 224.985 309.017Z" fill="#263238"/>
<g opacity="0.4">
<path d="M136.986 224.241C144.202 238.002 152.819 251.757 163.371 263.156C173.725 274.349 172.43 282.724 175.866 300.414C177.859 310.661 186.54 321.42 200.771 324.294C212.455 326.664 217.415 332.997 218.432 336.974L218.952 337.793L191.407 337.736C191.407 337.736 186.469 335.082 180.911 328.094C176.741 322.753 173.26 316.907 170.551 310.696C165.551 299.511 161.145 288.07 157.351 276.42L136.986 224.241Z" fill="black"/>
</g>
<path d="M135.996 144.111C136.142 143.99 136.299 143.882 136.466 143.791L137.846 142.937L138.849 142.332L140.009 141.564C140.835 141.001 141.802 140.397 142.806 139.635L144.393 138.468C144.948 138.056 145.488 137.593 146.072 137.138C147.239 136.234 148.413 135.174 149.63 134.071C152.295 131.64 154.802 129.043 157.137 126.293C159.448 123.529 161.587 120.625 163.541 117.598C164.388 116.175 165.263 114.851 165.939 113.535L166.971 111.656L167.832 109.885C168.408 108.76 168.842 107.75 169.255 106.789C169.447 106.334 169.632 105.907 169.803 105.516C169.973 105.124 170.094 104.754 170.215 104.42C170.457 103.786 170.657 103.281 170.799 102.904C170.855 102.723 170.931 102.549 171.027 102.385C170.991 102.569 170.939 102.75 170.87 102.925C170.742 103.31 170.571 103.822 170.351 104.47C170.237 104.804 170.109 105.181 169.973 105.58C169.838 105.978 169.632 106.412 169.447 106.875C169.07 107.8 168.643 108.86 168.088 109.991C167.817 110.57 167.533 111.168 167.234 111.784C166.914 112.396 166.572 113.03 166.224 113.684C165.555 115.008 164.687 116.338 163.847 117.783C161.898 120.832 159.759 123.755 157.443 126.535C155.095 129.294 152.571 131.896 149.886 134.327C148.626 135.423 147.438 136.462 146.257 137.372C145.666 137.828 145.118 138.29 144.563 138.696L142.948 139.849C141.938 140.603 140.956 141.194 140.102 141.734L138.921 142.446L137.903 143.029L136.48 143.819C136.326 143.928 136.164 144.025 135.996 144.111Z" fill="#263238"/>
<path d="M172.976 100.947C172.968 101.132 172.944 101.315 172.904 101.495C172.84 101.851 172.755 102.378 172.613 103.046C172.342 104.391 171.901 106.334 171.261 108.703C169.599 114.895 167.138 120.844 163.939 126.4C160.72 131.957 156.562 136.914 151.65 141.051C150.163 142.297 148.594 143.44 146.954 144.474C146.377 144.851 145.9 145.1 145.594 145.285C145.442 145.391 145.277 145.477 145.104 145.541C145.244 145.423 145.394 145.316 145.552 145.221C145.851 145.022 146.313 144.751 146.875 144.353C148.476 143.275 150.013 142.106 151.479 140.852C156.325 136.683 160.44 131.734 163.654 126.208C166.819 120.666 169.291 114.756 171.012 108.611C171.688 106.256 172.164 104.341 172.435 102.997C172.582 102.356 172.703 101.844 172.798 101.46C172.844 101.285 172.904 101.113 172.976 100.947Z" fill="#263238"/>
<path d="M183.777 127.524C183.78 127.824 183.744 128.123 183.67 128.414C183.522 129.216 183.283 129.999 182.958 130.748C182.47 131.865 181.807 132.898 180.994 133.807C179.999 134.936 178.764 135.828 177.38 136.419C175.985 136.996 174.468 137.214 172.968 137.052C171.749 136.926 170.566 136.569 169.481 135.999C168.754 135.617 168.081 135.138 167.482 134.576C167.252 134.383 167.048 134.161 166.877 133.914C167.717 134.624 168.631 135.242 169.602 135.757C170.668 136.273 171.818 136.596 172.996 136.711C174.45 136.843 175.915 136.624 177.266 136.07C178.599 135.5 179.794 134.648 180.767 133.573C181.573 132.696 182.242 131.703 182.752 130.627C183.176 129.622 183.519 128.584 183.777 127.524Z" fill="#263238"/>
<path d="M175.323 102.527C175.333 102.583 175.333 102.641 175.323 102.698L175.288 103.181C175.245 103.644 175.188 104.27 175.11 105.06C174.932 106.697 174.605 109.045 174.05 111.927C171.711 123.588 167.045 134.657 160.33 144.474L158.673 146.779C158.139 147.526 157.577 148.202 157.05 148.914C156.096 150.215 155.003 151.408 153.791 152.472C152.051 154.016 150.077 155.275 147.942 156.2C147.36 156.447 146.763 156.658 146.156 156.834L145.679 156.955H145.516C145.564 156.925 145.617 156.903 145.672 156.891L146.135 156.734C146.54 156.592 147.138 156.371 147.885 156.023C149.978 155.057 151.912 153.778 153.62 152.23C154.808 151.162 155.876 149.969 156.808 148.672C157.321 147.96 157.883 147.292 158.409 146.537L160.039 144.232C166.686 134.428 171.356 123.42 173.786 111.827C174.37 108.981 174.74 106.618 174.96 104.996C175.06 104.206 175.145 103.573 175.202 103.125C175.202 102.932 175.259 102.769 175.281 102.641C175.29 102.601 175.304 102.563 175.323 102.527Z" fill="#263238"/>
<g opacity="0.3">
<path d="M149.422 155.389C153.24 154.39 156.808 152.61 159.902 150.16C162.996 147.71 165.548 144.645 167.396 141.158C171.103 134.178 172.107 126.55 172.292 118.651C170.869 125.219 168.072 131.281 164.528 137.365C160.401 144.417 155.826 151.924 149.422 155.389Z" fill="black"/>
</g>
<g opacity="0.3">
<path d="M153.214 139.109L168.954 115.157C168.001 120.01 165.646 124.507 162.728 128.506C159.71 132.434 156.409 136.137 152.852 139.585" fill="black"/>
</g>
<path d="M181.586 242.621C181.517 242.505 181.464 242.38 181.429 242.251C181.337 242.001 181.194 241.646 181.045 241.162C180.621 239.811 180.307 238.429 180.106 237.028C179.44 232.372 179.928 227.624 181.529 223.202C182.464 220.796 183.657 218.498 185.086 216.349C186.353 214.357 187.541 212.592 188.431 211.048C189.159 209.844 189.799 208.588 190.345 207.291C190.736 206.38 190.907 205.868 190.943 205.868C190.929 206.002 190.898 206.134 190.85 206.259C190.772 206.516 190.665 206.886 190.48 207.355C189.976 208.678 189.367 209.958 188.659 211.183C187.79 212.756 186.623 214.542 185.371 216.542C183.975 218.679 182.807 220.957 181.884 223.337C180.301 227.706 179.775 232.388 180.347 236.999C180.527 238.394 180.798 239.775 181.159 241.133C181.287 241.582 181.393 241.945 181.472 242.236C181.525 242.359 181.563 242.488 181.586 242.621Z" fill="#263238"/>
<path d="M188.914 214.449C188.964 214.492 188.203 215.396 187.157 216.968C185.785 219.022 184.633 221.213 183.72 223.508C182.825 225.806 182.171 228.19 181.77 230.623C181.464 232.502 181.4 233.676 181.336 233.669C181.302 233.395 181.302 233.118 181.336 232.844C181.336 232.31 181.407 231.534 181.521 230.588C181.854 228.114 182.482 225.689 183.392 223.365C184.307 221.044 185.502 218.843 186.95 216.812C187.391 216.195 187.867 215.604 188.373 215.04C188.53 214.823 188.712 214.625 188.914 214.449Z" fill="#263238"/>
<path d="M147.031 174.253C147.138 174.012 147.274 173.785 147.437 173.577L148.632 171.812C149.636 170.318 150.966 168.255 152.311 165.821C153.656 163.387 154.73 161.189 155.478 159.552C155.819 158.784 156.111 158.129 156.353 157.602C156.444 157.352 156.563 157.114 156.709 156.891C156.668 157.151 156.594 157.404 156.488 157.645C156.324 158.122 156.061 158.805 155.72 159.638C153.903 163.989 151.597 168.119 148.846 171.948C148.319 172.659 147.878 173.257 147.558 173.648C147.406 173.87 147.23 174.073 147.031 174.253Z" fill="#263238"/>
<g opacity="0.3">
<path d="M159.029 156.357L157.492 156.784C154.84 161.936 152.191 167.092 149.544 172.253C149.25 172.728 149.082 173.269 149.053 173.826C149.105 174.297 149.319 174.734 149.66 175.063C150 175.392 150.445 175.591 150.917 175.626C151.389 175.644 151.86 175.56 152.296 175.378C152.732 175.196 153.124 174.921 153.443 174.573C154.074 173.869 154.591 173.069 154.973 172.204C157.407 167.258 159.221 161.865 159.029 156.357Z" fill="black"/>
</g>
<g opacity="0.3">
<path d="M157.42 223.01C162.758 234.77 171.497 244.662 182.51 251.408C186.26 253.7 190.273 255.614 193.653 258.424C197.033 261.235 199.794 265.184 199.908 269.582C180.418 260.785 165.207 244.625 157.605 224.639" fill="black"/>
</g>
<path d="M155.64 129.673C155.466 129.948 155.266 130.206 155.042 130.442C154.644 130.926 154.032 131.594 153.256 132.406C151.219 134.51 149.029 136.461 146.703 138.24C144.377 140.021 141.92 141.622 139.352 143.029C138.363 143.57 137.559 143.983 136.983 144.239C136.695 144.391 136.395 144.517 136.086 144.616C136.346 144.421 136.625 144.252 136.918 144.111C137.466 143.812 138.256 143.399 139.224 142.802C141.739 141.332 144.162 139.711 146.482 137.949C148.792 136.187 150.992 134.286 153.071 132.256C153.868 131.473 154.494 130.833 154.935 130.378C155.145 130.118 155.381 129.882 155.64 129.673Z" fill="white"/>
<path d="M154.989 139.521C153.652 140.977 152.226 142.348 150.72 143.627C149.293 144.994 147.784 146.273 146.201 147.455C147.538 146 148.964 144.629 150.471 143.35C151.894 141.979 153.403 140.7 154.989 139.521Z" fill="white"/>
<path d="M140.171 127.503C139.969 129.218 139.64 130.916 139.189 132.584C138.863 134.274 138.416 135.938 137.852 137.565C138.059 135.85 138.387 134.152 138.834 132.484C139.161 130.794 139.608 129.13 140.171 127.503Z" fill="white"/>
<path d="M135.79 185.83C135.717 185.486 135.672 185.136 135.655 184.784C135.591 184.115 135.548 183.133 135.555 181.938C135.566 180.511 135.661 179.085 135.84 177.669C136.071 175.946 136.411 174.239 136.858 172.56C137.326 170.886 137.901 169.243 138.58 167.643C139.142 166.34 139.778 165.072 140.487 163.843C140.958 163.012 141.473 162.206 142.031 161.431C142.217 161.135 142.431 160.859 142.671 160.605C142.527 160.922 142.353 161.225 142.152 161.509C141.789 162.078 141.291 162.932 140.729 163.971C140.056 165.207 139.448 166.478 138.907 167.778C137.574 170.966 136.663 174.315 136.196 177.74C135.999 179.134 135.878 180.538 135.833 181.945C135.79 183.148 135.79 184.123 135.833 184.791C135.851 185.138 135.837 185.486 135.79 185.83Z" fill="white"/>
<path d="M144.305 211.731C144.104 211.49 143.93 211.227 143.785 210.948C143.472 210.436 143.074 209.675 142.547 208.721C141.247 206.228 140.113 203.651 139.153 201.008C138.198 198.365 137.416 195.662 136.812 192.917C136.584 191.864 136.428 191.01 136.335 190.413C136.27 190.106 136.234 189.794 136.229 189.48C136.345 189.771 136.429 190.075 136.478 190.384C136.613 190.968 136.812 191.807 137.068 192.86C137.588 194.945 138.392 197.841 139.502 200.887C140.462 203.513 141.557 206.087 142.782 208.6C143.252 209.568 143.643 210.344 143.913 210.877C144.071 211.149 144.202 211.435 144.305 211.731Z" fill="white"/>
<path d="M136.158 219.025C135.98 218.804 135.825 218.565 135.695 218.313C135.411 217.851 135.041 217.153 134.621 216.278C132.449 211.687 131.324 206.67 131.326 201.591C131.326 200.617 131.369 199.834 131.426 199.293C131.435 199.012 131.473 198.733 131.54 198.46C131.604 198.46 131.54 199.656 131.589 201.584C131.731 206.612 132.843 211.565 134.863 216.171C135.638 217.943 136.215 218.989 136.158 219.025Z" fill="white"/>
<path d="M161.819 246.719C160.346 244.94 158.973 243.08 157.707 241.148C156.334 239.286 155.06 237.352 153.893 235.355C155.364 237.141 156.739 239.003 158.013 240.934C159.383 242.794 160.653 244.725 161.819 246.719Z" fill="white"/>
<path d="M171.417 217.901C171.387 217.686 171.387 217.468 171.417 217.253C171.42 216.663 171.453 216.074 171.517 215.488C171.902 211.602 173.056 207.831 174.911 204.395C175.267 203.74 175.58 203.221 175.815 202.872C176.05 202.524 176.185 202.339 176.206 202.353C176.228 202.367 175.794 203.185 175.146 204.488C174.294 206.217 173.581 208.011 173.011 209.853C172.45 211.698 172.034 213.585 171.766 215.495C171.693 216.303 171.577 217.106 171.417 217.901Z" fill="white"/>
<path d="M166.707 212.251C166.402 212.138 166.109 211.995 165.832 211.824C165.059 211.405 164.309 210.947 163.583 210.45C162.505 209.718 161.469 208.925 160.481 208.074C159.276 207.018 158.138 205.89 157.073 204.694C156.025 203.485 155.057 202.208 154.177 200.873C153.46 199.781 152.809 198.648 152.227 197.479C151.736 196.475 151.373 195.65 151.159 195.066C151.028 194.771 150.926 194.463 150.854 194.148C151.029 194.42 151.177 194.708 151.295 195.009C151.544 195.579 151.942 196.383 152.462 197.358C153.816 199.909 155.459 202.296 157.357 204.473C158.405 205.662 159.522 206.788 160.702 207.846C161.805 208.807 162.836 209.625 163.733 210.265C164.629 210.906 165.384 211.404 165.91 211.731C166.191 211.88 166.458 212.054 166.707 212.251Z" fill="#263238"/>
<path d="M242.097 337.793C242.015 337.805 241.931 337.805 241.848 337.793H241.137C240.206 337.766 239.277 337.688 238.354 337.558C236.894 337.34 235.463 336.963 234.085 336.434C232.254 335.723 230.547 334.729 229.026 333.488C225.617 330.734 222.622 326.407 219.982 321.306C218.717 318.579 217.661 315.76 216.822 312.873C215.897 309.892 215.058 306.775 213.976 303.666C212.96 300.624 211.556 297.725 209.799 295.042C208.101 292.587 206.004 290.434 203.594 288.673C201.324 286.951 199.005 285.514 196.863 284.147C194.849 282.903 192.9 281.559 191.021 280.12C188.243 278.078 185.923 275.477 184.211 272.485C183.905 271.958 183.713 271.453 183.5 271.062C183.286 270.67 183.187 270.258 183.094 269.952C183.002 269.646 182.945 269.425 182.895 269.24C182.871 269.161 182.852 269.08 182.838 268.998C182.879 269.072 182.91 269.151 182.93 269.233L183.165 269.945C183.265 270.251 183.428 270.606 183.599 271.04C183.77 271.474 184.012 271.951 184.311 272.464C186.059 275.399 188.385 277.948 191.149 279.956C193.03 281.378 194.983 282.703 196.998 283.927C199.133 285.286 201.474 286.709 203.772 288.445C206.216 290.211 208.345 292.376 210.07 294.849C211.84 297.558 213.252 300.486 214.268 303.559C215.364 306.69 216.203 309.807 217.114 312.809C217.948 315.679 218.992 318.483 220.238 321.199C222.807 326.272 225.802 330.592 229.14 333.295C230.636 334.536 232.316 335.534 234.121 336.256C235.485 336.793 236.901 337.186 238.347 337.43C239.543 337.6 240.482 337.714 241.115 337.736L241.827 337.785L242.097 337.793Z" fill="#263238"/>
</svg>
