<svg width="528" height="317" viewBox="0 0 528 317" fill="none" xmlns="http://www.w3.org/2000/svg">
<g opacity="0.65">
<g filter="url(#filter0_f_5095_69652)">
<circle cx="262.909" cy="191.091" r="100.909" fill="#A79FFF"/>
</g>
<g filter="url(#filter1_f_5095_69652)">
<circle cx="316.728" cy="137.273" r="67.2727" fill="#FF79EE"/>
</g>
</g>
<path d="M277.217 142.507V175.182C277.217 180.907 272.844 185.562 267.466 185.562C262.115 185.562 257.715 180.907 257.715 175.182C257.715 169.485 262.115 164.83 267.466 164.83C269.747 164.83 271.784 165.668 273.441 167.056V141.515L262.125 152.304L248.426 147.988V180.762C248.426 186.488 244.025 191.143 238.675 191.143C233.297 191.143 228.924 186.488 228.924 180.762C228.924 175.066 233.297 170.411 238.675 170.411C240.929 170.411 242.966 171.249 244.623 172.608V147.047C244.623 142.796 245.74 139.357 250.483 139.789L255.657 141.299L260.832 143.241L268.593 135.474C270.318 133.571 273.591 133.049 275.492 134.61C277.42 136.143 277.217 138.921 277.217 142.507Z" fill="url(#paint0_linear_5095_69652)" stroke="url(#paint1_linear_5095_69652)" stroke-opacity="0.75" stroke-width="0.307637"/>
<path d="M279.693 136.902H282.338V150.503C282.338 152.504 282.842 153.951 283.848 154.844C284.854 155.726 286.171 156.167 287.799 156.167C289.416 156.167 290.722 155.726 291.717 154.844C292.723 153.951 293.226 152.504 293.226 150.503V136.902H295.871V150.503C295.871 152.289 295.538 153.787 294.871 154.997C294.215 156.195 293.282 157.099 292.073 157.71C290.863 158.309 289.438 158.609 287.799 158.609C286.16 158.609 284.73 158.309 283.509 157.71C282.299 157.099 281.361 156.195 280.694 154.997C280.026 153.787 279.693 152.289 279.693 150.503V136.902ZM306.6 158.609C305.175 158.609 303.87 158.354 302.683 157.846C301.495 157.325 300.54 156.562 299.817 155.556C299.093 154.55 298.72 153.306 298.697 151.825H301.275C301.275 152.82 301.518 153.64 302.004 154.284C302.49 154.917 303.135 155.392 303.937 155.709C304.74 156.014 305.616 156.167 306.566 156.167C307.595 156.167 308.488 156.003 309.245 155.675C310.003 155.347 310.585 154.917 310.992 154.386C311.411 153.843 311.62 153.25 311.62 152.605C311.62 151.701 311.343 150.972 310.789 150.418C310.235 149.852 309.415 149.395 308.33 149.044L304.565 147.721C302.801 147.088 301.467 146.365 300.563 145.551C299.658 144.737 299.206 143.595 299.206 142.125C299.206 140.474 299.839 139.129 301.105 138.089C302.383 137.049 304.192 136.529 306.532 136.529C308.703 136.529 310.399 137.032 311.62 138.038C312.841 139.033 313.542 140.373 313.723 142.057H311.111C310.941 141.074 310.478 140.31 309.72 139.768C308.974 139.214 307.911 138.937 306.532 138.937C305.13 138.937 304.039 139.248 303.259 139.87C302.479 140.491 302.089 141.277 302.089 142.227C302.089 143.007 302.332 143.629 302.818 144.092C303.316 144.544 304.09 144.951 305.142 145.313L309.551 146.839C311.077 147.348 312.281 148.06 313.163 148.976C314.056 149.892 314.503 151.079 314.503 152.538C314.503 153.668 314.197 154.691 313.587 155.607C312.988 156.523 312.1 157.252 310.924 157.795C309.749 158.337 308.307 158.609 306.6 158.609ZM317.741 158.202V136.902H320.387V158.202H317.741ZM332.098 158.609C330.221 158.609 328.604 158.139 327.247 157.201C325.891 156.251 324.845 154.94 324.11 153.267C323.375 151.582 323.008 149.632 323.008 147.416C323.008 145.053 323.404 143.063 324.195 141.447C324.998 139.83 326.083 138.609 327.451 137.784C328.83 136.947 330.379 136.529 332.098 136.529C334.37 136.529 336.196 137.1 337.575 138.242C338.966 139.372 339.921 140.847 340.441 142.668L337.592 143.244C337.151 141.922 336.445 140.87 335.472 140.09C334.511 139.299 333.386 138.903 332.098 138.903C330.978 138.903 329.944 139.225 328.994 139.87C328.056 140.503 327.298 141.452 326.722 142.719C326.145 143.985 325.857 145.551 325.857 147.416C325.857 149.112 326.083 150.621 326.535 151.944C326.999 153.267 327.688 154.307 328.604 155.064C329.531 155.822 330.696 156.201 332.098 156.201C333.782 156.201 335.116 155.748 336.1 154.844C337.095 153.939 337.592 152.752 337.592 151.283H340.475C340.475 152.809 340.125 154.12 339.424 155.217C338.723 156.302 337.739 157.139 336.473 157.727C335.218 158.315 333.759 158.609 332.098 158.609ZM280.168 183.202V161.902H282.813V183.202H280.168ZM287.096 161.902H290.25L301.07 179.437H300.832V161.902H303.478V183.202H300.527L289.335 165.09H289.742V183.202H287.096V161.902ZM307.772 161.902H314.012C316.16 161.902 318.026 162.343 319.609 163.225C321.191 164.095 322.418 165.327 323.289 166.922C324.159 168.516 324.594 170.392 324.594 172.552C324.594 174.689 324.159 176.554 323.289 178.148C322.418 179.742 321.191 180.986 319.609 181.879C318.026 182.761 316.16 183.202 314.012 183.202H307.772V161.902ZM310.417 164.242V180.895H314.012C315.618 180.895 316.997 180.534 318.15 179.81C319.315 179.086 320.208 178.097 320.83 176.842C321.463 175.576 321.779 174.146 321.779 172.552C321.779 170.946 321.463 169.522 320.83 168.278C320.208 167.023 319.315 166.04 318.15 165.327C316.997 164.604 315.618 164.242 314.012 164.242H310.417ZM334.436 183.609C333.011 183.609 331.705 183.354 330.518 182.846C329.331 182.325 328.376 181.562 327.652 180.556C326.929 179.55 326.556 178.306 326.533 176.825H329.111C329.111 177.82 329.354 178.64 329.84 179.284C330.326 179.917 330.971 180.392 331.773 180.709C332.576 181.014 333.452 181.167 334.402 181.167C335.431 181.167 336.324 181.003 337.081 180.675C337.839 180.347 338.421 179.917 338.828 179.386C339.246 178.843 339.455 178.25 339.455 177.605C339.455 176.701 339.178 175.972 338.624 175.418C338.07 174.852 337.251 174.395 336.165 174.044L332.401 172.721C330.637 172.088 329.303 171.365 328.398 170.551C327.494 169.737 327.042 168.595 327.042 167.125C327.042 165.474 327.675 164.129 328.941 163.089C330.219 162.049 332.028 161.529 334.368 161.529C336.539 161.529 338.234 162.032 339.455 163.038C340.676 164.033 341.377 165.373 341.558 167.057H338.947C338.777 166.074 338.314 165.31 337.556 164.768C336.81 164.214 335.747 163.937 334.368 163.937C332.966 163.937 331.875 164.248 331.095 164.87C330.315 165.491 329.925 166.277 329.925 167.227C329.925 168.007 330.168 168.629 330.654 169.092C331.151 169.544 331.926 169.951 332.977 170.313L337.386 171.839C338.913 172.348 340.117 173.06 340.999 173.976C341.892 174.892 342.338 176.079 342.338 177.538C342.338 178.668 342.033 179.691 341.423 180.607C340.823 181.523 339.936 182.252 338.76 182.795C337.584 183.337 336.143 183.609 334.436 183.609Z" fill="url(#paint2_linear_5095_69652)"/>
<path d="M279.693 136.902V136.748H279.539V136.902H279.693ZM282.338 136.902H282.492V136.748H282.338V136.902ZM283.848 154.844L283.746 154.959L283.746 154.96L283.848 154.844ZM291.717 154.844L291.819 154.959L291.819 154.959L291.717 154.844ZM293.226 136.902V136.748H293.072V136.902H293.226ZM295.871 136.902H296.025V136.748H295.871V136.902ZM294.871 154.997L294.736 154.922L294.736 154.923L294.871 154.997ZM292.073 157.71L292.141 157.848L292.142 157.847L292.073 157.71ZM283.509 157.71L283.439 157.847L283.441 157.848L283.509 157.71ZM280.694 154.997L280.559 155.071L280.559 155.071L280.694 154.997ZM279.693 136.902V137.056H282.338V136.902V136.748H279.693V136.902ZM282.338 136.902H282.185V150.503H282.338H282.492V136.902H282.338ZM282.338 150.503H282.185C282.185 152.526 282.693 154.025 283.746 154.959L283.848 154.844L283.95 154.729C282.99 153.877 282.492 152.481 282.492 150.503H282.338ZM283.848 154.844L283.746 154.96C284.786 155.871 286.142 156.32 287.799 156.32V156.167V156.013C286.2 156.013 284.922 155.58 283.949 154.728L283.848 154.844ZM287.799 156.167V156.32C289.445 156.32 290.79 155.871 291.819 154.959L291.717 154.844L291.614 154.729C290.654 155.581 289.387 156.013 287.799 156.013V156.167ZM291.717 154.844L291.819 154.959C292.871 154.025 293.38 152.526 293.38 150.503H293.226H293.072C293.072 152.481 292.574 153.877 291.614 154.729L291.717 154.844ZM293.226 150.503H293.38V136.902H293.226H293.072V150.503H293.226ZM293.226 136.902V137.056H295.871V136.902V136.748H293.226V136.902ZM295.871 136.902H295.718V150.503H295.871H296.025V136.902H295.871ZM295.871 150.503H295.718C295.718 152.27 295.387 153.741 294.736 154.922L294.871 154.997L295.005 155.071C295.688 153.833 296.025 152.307 296.025 150.503H295.871ZM294.871 154.997L294.736 154.923C294.095 156.094 293.185 156.976 292.003 157.573L292.073 157.71L292.142 157.847C293.38 157.223 294.335 156.296 295.006 155.07L294.871 154.997ZM292.073 157.71L292.004 157.572C290.82 158.159 289.42 158.455 287.799 158.455V158.609V158.762C289.457 158.762 290.906 158.459 292.141 157.848L292.073 157.71ZM287.799 158.609V158.455C286.179 158.455 284.772 158.159 283.576 157.572L283.509 157.71L283.441 157.848C284.687 158.459 286.141 158.762 287.799 158.762V158.609ZM283.509 157.71L283.578 157.573C282.396 156.976 281.48 156.094 280.828 154.922L280.694 154.997L280.559 155.071C281.241 156.296 282.202 157.223 283.439 157.847L283.509 157.71ZM280.694 154.997L280.828 154.922C280.177 153.741 279.847 152.27 279.847 150.503H279.693H279.539C279.539 152.307 279.876 153.833 280.559 155.071L280.694 154.997ZM279.693 150.503H279.847V136.902H279.693H279.539V150.503H279.693ZM302.683 157.846L302.621 157.986L302.622 157.987L302.683 157.846ZM299.817 155.556L299.941 155.466L299.817 155.556ZM298.697 151.825V151.671H298.541L298.544 151.828L298.697 151.825ZM301.275 151.825H301.429V151.671H301.275V151.825ZM302.004 154.284L301.881 154.377L301.882 154.378L302.004 154.284ZM303.937 155.709L303.881 155.852L303.883 155.853L303.937 155.709ZM309.245 155.675L309.307 155.816L309.245 155.675ZM310.992 154.386L310.87 154.292L310.87 154.292L310.992 154.386ZM310.789 150.418L310.679 150.525L310.68 150.526L310.789 150.418ZM308.33 149.044L308.279 149.189L308.282 149.19L308.33 149.044ZM304.565 147.721L304.513 147.866L304.514 147.866L304.565 147.721ZM300.563 145.551L300.666 145.436V145.436L300.563 145.551ZM301.105 138.089L301.008 137.97L301.008 137.97L301.105 138.089ZM311.62 138.038L311.522 138.157L311.523 138.157L311.62 138.038ZM313.723 142.057V142.211H313.894L313.875 142.041L313.723 142.057ZM311.111 142.057L310.959 142.083L310.981 142.211H311.111V142.057ZM309.72 139.768L309.629 139.891L309.631 139.893L309.72 139.768ZM303.259 139.87L303.163 139.749L303.259 139.87ZM302.818 144.092L302.712 144.204L302.715 144.206L302.818 144.092ZM305.142 145.313L305.192 145.168L305.192 145.168L305.142 145.313ZM309.551 146.839L309.5 146.985L309.502 146.985L309.551 146.839ZM313.163 148.976L313.052 149.083L313.053 149.084L313.163 148.976ZM313.587 155.607L313.459 155.522L313.458 155.523L313.587 155.607ZM310.924 157.795L310.86 157.655L310.924 157.795ZM306.6 158.609V158.455C305.194 158.455 303.909 158.204 302.743 157.704L302.683 157.846L302.622 157.987C303.83 158.505 305.157 158.762 306.6 158.762V158.609ZM302.683 157.846L302.744 157.705C301.581 157.195 300.648 156.449 299.941 155.466L299.817 155.556L299.692 155.646C300.432 156.676 301.41 157.456 302.621 157.986L302.683 157.846ZM299.817 155.556L299.941 155.466C299.24 154.49 298.873 153.279 298.851 151.823L298.697 151.825L298.544 151.828C298.567 153.334 298.946 154.61 299.692 155.646L299.817 155.556ZM298.697 151.825V151.979H301.275V151.825V151.671H298.697V151.825ZM301.275 151.825H301.121C301.121 152.846 301.371 153.7 301.881 154.377L302.004 154.284L302.127 154.192C301.665 153.58 301.429 152.795 301.429 151.825H301.275ZM302.004 154.284L301.882 154.378C302.387 155.035 303.055 155.526 303.881 155.852L303.937 155.709L303.994 155.566C303.215 155.258 302.594 154.8 302.126 154.191L302.004 154.284ZM303.937 155.709L303.883 155.853C304.705 156.165 305.6 156.32 306.566 156.32V156.167V156.013C305.633 156.013 304.776 155.863 303.992 155.565L303.937 155.709ZM306.566 156.167V156.32C307.611 156.32 308.526 156.154 309.307 155.816L309.245 155.675L309.184 155.534C308.45 155.851 307.579 156.013 306.566 156.013V156.167ZM309.245 155.675L309.307 155.816C310.083 155.48 310.688 155.036 311.114 154.48L310.992 154.386L310.87 154.292C310.482 154.799 309.923 155.214 309.184 155.534L309.245 155.675ZM310.992 154.386L311.114 154.48C311.552 153.912 311.773 153.286 311.773 152.605H311.62H311.466C311.466 153.214 311.269 153.775 310.87 154.292L310.992 154.386ZM311.62 152.605H311.773C311.773 151.667 311.485 150.896 310.897 150.309L310.789 150.418L310.68 150.526C311.201 151.047 311.466 151.735 311.466 152.605H311.62ZM310.789 150.418L310.899 150.31C310.321 149.721 309.476 149.253 308.377 148.898L308.33 149.044L308.282 149.19C309.354 149.536 310.148 149.984 310.679 150.525L310.789 150.418ZM308.33 149.044L308.381 148.899L304.616 147.576L304.565 147.721L304.514 147.866L308.279 149.189L308.33 149.044ZM304.565 147.721L304.617 147.577C302.863 146.947 301.549 146.232 300.666 145.436L300.563 145.551L300.46 145.665C301.385 146.498 302.74 147.229 304.513 147.866L304.565 147.721ZM300.563 145.551L300.666 145.436C299.8 144.657 299.36 143.561 299.36 142.125H299.206H299.052C299.052 143.629 299.516 144.816 300.46 145.665L300.563 145.551ZM299.206 142.125H299.36C299.36 140.52 299.973 139.218 301.203 138.208L301.105 138.089L301.008 137.97C299.706 139.04 299.052 140.429 299.052 142.125H299.206ZM301.105 138.089L301.203 138.208C302.443 137.198 304.213 136.683 306.532 136.683V136.529V136.375C304.171 136.375 302.323 136.899 301.008 137.97L301.105 138.089ZM306.532 136.529V136.683C308.68 136.683 310.337 137.18 311.522 138.157L311.62 138.038L311.717 137.919C310.46 136.883 308.725 136.375 306.532 136.375V136.529ZM311.62 138.038L311.523 138.157C312.71 139.125 313.393 140.426 313.57 142.074L313.723 142.057L313.875 142.041C313.691 140.319 312.972 138.941 311.717 137.919L311.62 138.038ZM313.723 142.057V141.903H311.111V142.057V142.211H313.723V142.057ZM311.111 142.057L311.262 142.031C311.087 141.011 310.603 140.211 309.81 139.643L309.72 139.768L309.631 139.893C310.353 140.41 310.796 141.136 310.959 142.083L311.111 142.057ZM309.72 139.768L309.812 139.644C309.029 139.063 307.929 138.783 306.532 138.783V138.937V139.091C307.894 139.091 308.919 139.364 309.629 139.891L309.72 139.768ZM306.532 138.937V138.783C305.109 138.783 303.98 139.098 303.163 139.749L303.259 139.87L303.355 139.99C304.099 139.397 305.151 139.091 306.532 139.091V138.937ZM303.259 139.87L303.163 139.749C302.349 140.399 301.935 141.228 301.935 142.227H302.089H302.243C302.243 141.327 302.609 140.584 303.355 139.99L303.259 139.87ZM302.089 142.227H301.935C301.935 143.042 302.191 143.706 302.712 144.204L302.818 144.092L302.924 143.981C302.474 143.551 302.243 142.972 302.243 142.227H302.089ZM302.818 144.092L302.715 144.206C303.235 144.679 304.032 145.094 305.091 145.459L305.142 145.313L305.192 145.168C304.149 144.809 303.397 144.41 302.922 143.978L302.818 144.092ZM305.142 145.313L305.091 145.459L309.5 146.985L309.551 146.839L309.601 146.694L305.192 145.168L305.142 145.313ZM309.551 146.839L309.502 146.985C311.011 147.488 312.191 148.189 313.052 149.083L313.163 148.976L313.274 148.87C312.371 147.932 311.143 147.208 309.599 146.694L309.551 146.839ZM313.163 148.976L313.053 149.084C313.914 149.967 314.349 151.113 314.349 152.538H314.503H314.656C314.656 151.045 314.198 149.817 313.273 148.869L313.163 148.976ZM314.503 152.538H314.349C314.349 153.639 314.052 154.632 313.459 155.522L313.587 155.607L313.715 155.692C314.343 154.751 314.656 153.698 314.656 152.538H314.503ZM313.587 155.607L313.458 155.523C312.877 156.41 312.014 157.122 310.86 157.655L310.924 157.795L310.989 157.934C312.186 157.382 313.098 156.635 313.716 155.691L313.587 155.607ZM310.924 157.795L310.86 157.655C309.71 158.186 308.292 158.455 306.6 158.455V158.609V158.762C308.323 158.762 309.787 158.489 310.989 157.934L310.924 157.795ZM317.741 158.202H317.588V158.355H317.741V158.202ZM317.741 136.902V136.748H317.588V136.902H317.741ZM320.387 136.902H320.541V136.748H320.387V136.902ZM320.387 158.202V158.355H320.541V158.202H320.387ZM317.741 158.202H317.895V136.902H317.741H317.588V158.202H317.741ZM317.741 136.902V137.056H320.387V136.902V136.748H317.741V136.902ZM320.387 136.902H320.233V158.202H320.387H320.541V136.902H320.387ZM320.387 158.202V158.048H317.741V158.202V158.355H320.387V158.202ZM327.247 157.201L327.159 157.327L327.16 157.328L327.247 157.201ZM324.11 153.267L323.969 153.328L323.969 153.329L324.11 153.267ZM324.195 141.447L324.057 141.378L324.057 141.379L324.195 141.447ZM327.451 137.784L327.53 137.915L327.531 137.915L327.451 137.784ZM337.575 138.242L337.477 138.36L337.478 138.361L337.575 138.242ZM340.441 142.668L340.472 142.818L340.635 142.785L340.589 142.625L340.441 142.668ZM337.592 143.244L337.446 143.293L337.489 143.422L337.623 143.395L337.592 143.244ZM335.472 140.09L335.375 140.209L335.376 140.21L335.472 140.09ZM328.994 139.87L329.08 139.997L329.081 139.997L328.994 139.87ZM326.722 142.719L326.862 142.782L326.722 142.719ZM326.535 151.944L326.39 151.994L326.39 151.995L326.535 151.944ZM328.604 155.064L328.506 155.183L328.507 155.183L328.604 155.064ZM336.1 154.844L335.996 154.73L335.996 154.731L336.1 154.844ZM337.592 151.283V151.129H337.438V151.283H337.592ZM340.475 151.283H340.629V151.129H340.475V151.283ZM339.424 155.217L339.553 155.3L339.553 155.3L339.424 155.217ZM336.473 157.727L336.408 157.587L336.408 157.588L336.473 157.727ZM332.098 158.609V158.455C330.248 158.455 328.662 157.993 327.335 157.075L327.247 157.201L327.16 157.328C328.546 158.286 330.194 158.762 332.098 158.762V158.609ZM327.247 157.201L327.336 157.075C326.004 156.143 324.976 154.855 324.251 153.205L324.11 153.267L323.969 153.329C324.714 155.025 325.777 156.36 327.159 157.327L327.247 157.201ZM324.11 153.267L324.251 153.205C323.526 151.544 323.162 149.615 323.162 147.416H323.008H322.854C322.854 149.649 323.224 151.621 323.969 153.328L324.11 153.267ZM323.008 147.416H323.162C323.162 145.07 323.555 143.104 324.333 141.514L324.195 141.447L324.057 141.379C323.252 143.022 322.854 145.037 322.854 147.416H323.008ZM324.195 141.447L324.333 141.515C325.124 139.921 326.191 138.724 327.53 137.915L327.451 137.784L327.371 137.652C325.975 138.494 324.871 139.739 324.057 141.378L324.195 141.447ZM327.451 137.784L327.531 137.915C328.884 137.094 330.405 136.683 332.098 136.683V136.529V136.375C330.353 136.375 328.776 136.8 327.371 137.652L327.451 137.784ZM332.098 136.529V136.683C334.344 136.683 336.132 137.247 337.477 138.36L337.575 138.242L337.673 138.123C336.26 136.953 334.396 136.375 332.098 136.375V136.529ZM337.575 138.242L337.478 138.361C338.843 139.47 339.781 140.918 340.293 142.71L340.441 142.668L340.589 142.625C340.061 140.777 339.089 139.274 337.672 138.122L337.575 138.242ZM340.441 142.668L340.411 142.517L337.562 143.094L337.592 143.244L337.623 143.395L340.472 142.818L340.441 142.668ZM337.592 143.244L337.738 143.196C337.289 141.848 336.567 140.771 335.569 139.97L335.472 140.09L335.376 140.21C336.323 140.969 337.013 141.995 337.446 143.293L337.592 143.244ZM335.472 140.09L335.57 139.971C334.581 139.156 333.421 138.749 332.098 138.749V138.903V139.057C333.352 139.057 334.442 139.441 335.375 140.209L335.472 140.09ZM332.098 138.903V138.749C330.947 138.749 329.882 139.081 328.908 139.742L328.994 139.87L329.081 139.997C330.005 139.369 331.01 139.057 332.098 139.057V138.903ZM328.994 139.87L328.908 139.742C327.941 140.394 327.167 141.369 326.582 142.655L326.722 142.719L326.862 142.782C327.429 141.536 328.17 140.611 329.08 139.997L328.994 139.87ZM326.722 142.719L326.582 142.655C325.993 143.947 325.703 145.536 325.703 147.416H325.857H326.011C326.011 145.566 326.297 144.023 326.862 142.782L326.722 142.719ZM325.857 147.416H325.703C325.703 149.125 325.931 150.652 326.39 151.994L326.535 151.944L326.681 151.894C326.235 150.59 326.011 149.098 326.011 147.416H325.857ZM326.535 151.944L326.39 151.995C326.861 153.339 327.565 154.405 328.506 155.183L328.604 155.064L328.702 154.946C327.812 154.209 327.136 153.194 326.68 151.893L326.535 151.944ZM328.604 155.064L328.507 155.183C329.466 155.967 330.667 156.354 332.098 156.354V156.201V156.047C330.725 156.047 329.596 155.677 328.701 154.945L328.604 155.064ZM332.098 156.201V156.354C333.81 156.354 335.185 155.894 336.204 154.957L336.1 154.844L335.996 154.731C335.047 155.603 333.754 156.047 332.098 156.047V156.201ZM336.1 154.844L336.203 154.958C337.233 154.021 337.746 152.791 337.746 151.283H337.592H337.438C337.438 152.714 336.956 153.858 335.996 154.73L336.1 154.844ZM337.592 151.283V151.436H340.475V151.283V151.129H337.592V151.283ZM340.475 151.283H340.321C340.321 152.785 339.977 154.066 339.294 155.134L339.424 155.217L339.553 155.3C340.273 154.174 340.629 152.833 340.629 151.283H340.475ZM339.424 155.217L339.294 155.134C338.61 156.192 337.65 157.011 336.408 157.587L336.473 157.727L336.538 157.866C337.828 157.267 338.835 156.412 339.553 155.3L339.424 155.217ZM336.473 157.727L336.408 157.588C335.177 158.164 333.741 158.455 332.098 158.455V158.609V158.762C333.778 158.762 335.259 158.465 336.538 157.866L336.473 157.727ZM280.168 183.202H280.014V183.355H280.168V183.202ZM280.168 161.902V161.748H280.014V161.902H280.168ZM282.813 161.902H282.967V161.748H282.813V161.902ZM282.813 183.202V183.355H282.967V183.202H282.813ZM280.168 183.202H280.322V161.902H280.168H280.014V183.202H280.168ZM280.168 161.902V162.056H282.813V161.902V161.748H280.168V161.902ZM282.813 161.902H282.66V183.202H282.813H282.967V161.902H282.813ZM282.813 183.202V183.048H280.168V183.202V183.355H282.813V183.202ZM287.096 161.902V161.748H286.942V161.902H287.096ZM290.25 161.902L290.381 161.821L290.336 161.748H290.25V161.902ZM301.07 179.437V179.591H301.346L301.201 179.356L301.07 179.437ZM300.832 179.437H300.679V179.591H300.832V179.437ZM300.832 161.902V161.748H300.679V161.902H300.832ZM303.478 161.902H303.632V161.748H303.478V161.902ZM303.478 183.202V183.355H303.632V183.202H303.478ZM300.527 183.202L300.396 183.283L300.441 183.355H300.527V183.202ZM289.335 165.09V164.936H289.059L289.204 165.171L289.335 165.09ZM289.742 165.09H289.895V164.936H289.742V165.09ZM289.742 183.202V183.355H289.895V183.202H289.742ZM287.096 183.202H286.942V183.355H287.096V183.202ZM287.096 161.902V162.056H290.25V161.902V161.748H287.096V161.902ZM290.25 161.902L290.119 161.983L300.939 179.518L301.07 179.437L301.201 179.356L290.381 161.821L290.25 161.902ZM301.07 179.437V179.283H300.832V179.437V179.591H301.07V179.437ZM300.832 179.437H300.986V161.902H300.832H300.679V179.437H300.832ZM300.832 161.902V162.056H303.478V161.902V161.748H300.832V161.902ZM303.478 161.902H303.324V183.202H303.478H303.632V161.902H303.478ZM303.478 183.202V183.048H300.527V183.202V183.355H303.478V183.202ZM300.527 183.202L300.658 183.121L289.465 165.009L289.335 165.09L289.204 165.171L300.396 183.283L300.527 183.202ZM289.335 165.09V165.244H289.742V165.09V164.936H289.335V165.09ZM289.742 165.09H289.588V183.202H289.742H289.895V165.09H289.742ZM289.742 183.202V183.048H287.096V183.202V183.355H289.742V183.202ZM287.096 183.202H287.25V161.902H287.096H286.942V183.202H287.096ZM307.772 161.902V161.748H307.618V161.902H307.772ZM319.609 163.225L319.534 163.359L319.535 163.359L319.609 163.225ZM323.289 166.922L323.424 166.848L323.289 166.922ZM323.289 178.148L323.424 178.222L323.289 178.148ZM319.609 181.879L319.684 182.013L319.684 182.013L319.609 181.879ZM307.772 183.202H307.618V183.355H307.772V183.202ZM310.417 164.242V164.088H310.263V164.242H310.417ZM310.417 180.895H310.263V181.049H310.417V180.895ZM318.15 179.81L318.069 179.679L318.069 179.68L318.15 179.81ZM320.83 176.842L320.692 176.773L320.692 176.774L320.83 176.842ZM320.83 168.278L320.692 168.347L320.693 168.348L320.83 168.278ZM318.15 165.327L318.069 165.458L318.07 165.459L318.15 165.327ZM307.772 161.902V162.056H314.012V161.902V161.748H307.772V161.902ZM314.012 161.902V162.056C316.139 162.056 317.978 162.492 319.534 163.359L319.609 163.225L319.684 163.09C318.074 162.193 316.182 161.748 314.012 161.748V161.902ZM319.609 163.225L319.535 163.359C321.092 164.216 322.297 165.427 323.154 166.995L323.289 166.922L323.424 166.848C322.539 165.228 321.291 163.975 319.683 163.09L319.609 163.225ZM323.289 166.922L323.154 166.995C324.01 168.563 324.441 170.413 324.441 172.552H324.594H324.748C324.748 170.371 324.309 168.468 323.424 166.848L323.289 166.922ZM324.594 172.552H324.441C324.441 174.667 324.01 176.507 323.154 178.074L323.289 178.148L323.424 178.222C324.309 176.601 324.748 174.71 324.748 172.552H324.594ZM323.289 178.148L323.154 178.074C322.297 179.643 321.091 180.866 319.533 181.745L319.609 181.879L319.684 182.013C321.292 181.106 322.539 179.841 323.424 178.222L323.289 178.148ZM319.609 181.879L319.534 181.745C317.978 182.611 316.139 183.048 314.012 183.048V183.202V183.355C316.182 183.355 318.074 182.91 319.684 182.013L319.609 181.879ZM314.012 183.202V183.048H307.772V183.202V183.355H314.012V183.202ZM307.772 183.202H307.926V161.902H307.772H307.618V183.202H307.772ZM310.417 164.242H310.263V180.895H310.417H310.571V164.242H310.417ZM310.417 180.895V181.049H314.012V180.895V180.741H310.417V180.895ZM314.012 180.895V181.049C315.641 181.049 317.05 180.682 318.232 179.94L318.15 179.81L318.069 179.68C316.944 180.385 315.594 180.741 314.012 180.741V180.895ZM318.15 179.81L318.231 179.941C319.421 179.202 320.333 178.191 320.968 176.911L320.83 176.842L320.692 176.774C320.082 178.004 319.209 178.971 318.069 179.679L318.15 179.81ZM320.83 176.842L320.967 176.911C321.612 175.621 321.933 174.167 321.933 172.552H321.779H321.626C321.626 174.125 321.313 175.531 320.692 176.773L320.83 176.842ZM321.779 172.552H321.933C321.933 170.926 321.612 169.477 320.967 168.208L320.83 168.278L320.693 168.348C321.313 169.567 321.626 170.967 321.626 172.552H321.779ZM320.83 168.278L320.968 168.21C320.333 166.93 319.42 165.924 318.231 165.196L318.15 165.327L318.07 165.459C319.209 166.155 320.083 167.117 320.692 168.346L320.83 168.278ZM318.15 165.327L318.232 165.197C317.05 164.456 315.641 164.088 314.012 164.088V164.242V164.396C315.594 164.396 316.944 164.752 318.069 165.458L318.15 165.327ZM314.012 164.242V164.088H310.417V164.242V164.396H314.012V164.242ZM330.518 182.846L330.457 182.986L330.458 182.987L330.518 182.846ZM327.652 180.556L327.777 180.466L327.652 180.556ZM326.533 176.825V176.671H326.377L326.379 176.828L326.533 176.825ZM329.111 176.825H329.265V176.671H329.111V176.825ZM329.84 179.284L329.717 179.377L329.718 179.378L329.84 179.284ZM331.773 180.709L331.717 180.852L331.719 180.853L331.773 180.709ZM337.081 180.675L337.142 180.816L337.081 180.675ZM338.828 179.386L338.706 179.292L338.706 179.292L338.828 179.386ZM338.624 175.418L338.515 175.525L338.516 175.526L338.624 175.418ZM336.165 174.044L336.114 174.189L336.118 174.19L336.165 174.044ZM332.401 172.721L332.349 172.866L332.35 172.866L332.401 172.721ZM328.398 170.551L328.501 170.436L328.398 170.551ZM328.941 163.089L328.844 162.97L328.844 162.97L328.941 163.089ZM339.455 163.038L339.358 163.157L339.358 163.157L339.455 163.038ZM341.558 167.057V167.211H341.729L341.711 167.041L341.558 167.057ZM338.947 167.057L338.795 167.083L338.817 167.211H338.947V167.057ZM337.556 164.768L337.464 164.891L337.466 164.893L337.556 164.768ZM331.095 164.87L330.999 164.749L331.095 164.87ZM330.654 169.092L330.548 169.204L330.55 169.206L330.654 169.092ZM332.977 170.313L333.028 170.168L333.027 170.168L332.977 170.313ZM337.386 171.839L337.336 171.985L337.338 171.985L337.386 171.839ZM340.999 173.976L340.888 174.083L340.889 174.084L340.999 173.976ZM341.423 180.607L341.295 180.522L341.294 180.523L341.423 180.607ZM338.76 182.795L338.696 182.655L338.76 182.795ZM334.436 183.609V183.455C333.03 183.455 331.745 183.204 330.579 182.704L330.518 182.846L330.458 182.987C331.666 183.505 332.993 183.762 334.436 183.762V183.609ZM330.518 182.846L330.58 182.705C329.417 182.195 328.484 181.449 327.777 180.466L327.652 180.556L327.527 180.646C328.268 181.676 329.245 182.456 330.457 182.986L330.518 182.846ZM327.652 180.556L327.777 180.466C327.075 179.49 326.709 178.279 326.687 176.823L326.533 176.825L326.379 176.828C326.402 178.334 326.782 179.61 327.527 180.646L327.652 180.556ZM326.533 176.825V176.979H329.111V176.825V176.671H326.533V176.825ZM329.111 176.825H328.957C328.957 177.846 329.207 178.7 329.717 179.377L329.84 179.284L329.963 179.192C329.501 178.58 329.265 177.795 329.265 176.825H329.111ZM329.84 179.284L329.718 179.378C330.222 180.035 330.89 180.526 331.717 180.852L331.773 180.709L331.83 180.566C331.051 180.258 330.43 179.8 329.962 179.191L329.84 179.284ZM331.773 180.709L331.719 180.853C332.54 181.165 333.435 181.32 334.402 181.32V181.167V181.013C333.469 181.013 332.611 180.863 331.828 180.565L331.773 180.709ZM334.402 181.167V181.32C335.447 181.32 336.361 181.154 337.142 180.816L337.081 180.675L337.02 180.534C336.286 180.851 335.415 181.013 334.402 181.013V181.167ZM337.081 180.675L337.142 180.816C337.918 180.48 338.524 180.036 338.95 179.48L338.828 179.386L338.706 179.292C338.318 179.799 337.759 180.214 337.02 180.534L337.081 180.675ZM338.828 179.386L338.95 179.48C339.387 178.912 339.609 178.286 339.609 177.605H339.455H339.302C339.302 178.214 339.105 178.775 338.706 179.292L338.828 179.386ZM339.455 177.605H339.609C339.609 176.667 339.321 175.896 338.733 175.309L338.624 175.418L338.516 175.526C339.036 176.047 339.302 176.735 339.302 177.605H339.455ZM338.624 175.418L338.734 175.31C338.157 174.721 337.312 174.253 336.213 173.898L336.165 174.044L336.118 174.19C337.19 174.536 337.984 174.984 338.515 175.525L338.624 175.418ZM336.165 174.044L336.216 173.899L332.452 172.576L332.401 172.721L332.35 172.866L336.114 174.189L336.165 174.044ZM332.401 172.721L332.453 172.577C330.699 171.947 329.385 171.232 328.501 170.436L328.398 170.551L328.296 170.665C329.221 171.498 330.575 172.229 332.349 172.866L332.401 172.721ZM328.398 170.551L328.501 170.436C327.636 169.657 327.196 168.561 327.196 167.125H327.042H326.888C326.888 168.629 327.352 169.816 328.296 170.665L328.398 170.551ZM327.042 167.125H327.196C327.196 165.52 327.808 164.218 329.039 163.208L328.941 163.089L328.844 162.97C327.541 164.04 326.888 165.429 326.888 167.125H327.042ZM328.941 163.089L329.038 163.208C330.279 162.198 332.048 161.683 334.368 161.683V161.529V161.375C332.007 161.375 330.159 161.899 328.844 162.97L328.941 163.089ZM334.368 161.529V161.683C336.516 161.683 338.173 162.18 339.358 163.157L339.455 163.038L339.553 162.919C338.296 161.883 336.561 161.375 334.368 161.375V161.529ZM339.455 163.038L339.358 163.157C340.545 164.125 341.228 165.426 341.405 167.074L341.558 167.057L341.711 167.041C341.526 165.319 340.808 163.941 339.553 162.919L339.455 163.038ZM341.558 167.057V166.903H338.947V167.057V167.211H341.558V167.057ZM338.947 167.057L339.098 167.031C338.922 166.011 338.438 165.211 337.646 164.643L337.556 164.768L337.466 164.893C338.189 165.41 338.632 166.136 338.795 167.083L338.947 167.057ZM337.556 164.768L337.648 164.644C336.865 164.063 335.765 163.783 334.368 163.783V163.937V164.091C335.729 164.091 336.755 164.364 337.464 164.891L337.556 164.768ZM334.368 163.937V163.783C332.945 163.783 331.815 164.098 330.999 164.749L331.095 164.87L331.191 164.99C331.934 164.397 332.987 164.091 334.368 164.091V163.937ZM331.095 164.87L330.999 164.749C330.184 165.399 329.771 166.228 329.771 167.227H329.925H330.079C330.079 166.327 330.445 165.584 331.191 164.99L331.095 164.87ZM329.925 167.227H329.771C329.771 168.042 330.026 168.706 330.548 169.204L330.654 169.092L330.76 168.981C330.309 168.551 330.079 167.972 330.079 167.227H329.925ZM330.654 169.092L330.55 169.206C331.07 169.679 331.867 170.094 332.927 170.459L332.977 170.313L333.027 170.168C331.984 169.809 331.233 169.41 330.757 168.978L330.654 169.092ZM332.977 170.313L332.927 170.459L337.336 171.985L337.386 171.839L337.437 171.694L333.028 170.168L332.977 170.313ZM337.386 171.839L337.338 171.985C338.847 172.488 340.027 173.189 340.888 174.083L340.999 173.976L341.109 173.87C340.206 172.932 338.979 172.208 337.435 171.694L337.386 171.839ZM340.999 173.976L340.889 174.084C341.75 174.967 342.185 176.113 342.185 177.538H342.338H342.492C342.492 176.045 342.034 174.817 341.109 173.869L340.999 173.976ZM342.338 177.538H342.185C342.185 178.639 341.888 179.632 341.295 180.522L341.423 180.607L341.551 180.692C342.178 179.751 342.492 178.698 342.492 177.538H342.338ZM341.423 180.607L341.294 180.523C340.713 181.41 339.85 182.122 338.696 182.655L338.76 182.795L338.825 182.934C340.022 182.382 340.934 181.635 341.551 180.691L341.423 180.607ZM338.76 182.795L338.696 182.655C337.545 183.186 336.127 183.455 334.436 183.455V183.609V183.762C336.158 183.762 337.623 183.489 338.825 182.934L338.76 182.795Z" fill="url(#paint3_linear_5095_69652)" fill-opacity="0.75"/>
<defs>
<filter id="filter0_f_5095_69652" x="0.546051" y="-71.2723" width="524.726" height="524.726" filterUnits="userSpaceOnUse" color-interpolation-filters="sRGB">
<feFlood flood-opacity="0" result="BackgroundImageFix"/>
<feBlend mode="normal" in="SourceGraphic" in2="BackgroundImageFix" result="shape"/>
<feGaussianBlur stdDeviation="80.727" result="effect1_foregroundBlur_5095_69652"/>
</filter>
<filter id="filter1_f_5095_69652" x="88.0011" y="-91.4539" width="457.453" height="457.453" filterUnits="userSpaceOnUse" color-interpolation-filters="sRGB">
<feFlood flood-opacity="0" result="BackgroundImageFix"/>
<feBlend mode="normal" in="SourceGraphic" in2="BackgroundImageFix" result="shape"/>
<feGaussianBlur stdDeviation="80.727" result="effect1_foregroundBlur_5095_69652"/>
</filter>
<linearGradient id="paint0_linear_5095_69652" x1="253.073" y1="133.692" x2="253.073" y2="191.143" gradientUnits="userSpaceOnUse">
<stop stop-color="#FF00DF"/>
<stop offset="0.546875" stop-color="#9F3DF3"/>
<stop offset="0.729167" stop-color="#5243FE"/>
<stop offset="1" stop-color="#5243FE"/>
</linearGradient>
<linearGradient id="paint1_linear_5095_69652" x1="253.073" y1="133.692" x2="253.073" y2="191.143" gradientUnits="userSpaceOnUse">
<stop stop-color="#FF36E6"/>
<stop offset="0.557292" stop-color="#AB3CF2"/>
<stop offset="0.703125" stop-color="#5243FE"/>
</linearGradient>
<linearGradient id="paint2_linear_5095_69652" x1="310.871" y1="134.202" x2="310.871" y2="184.844" gradientUnits="userSpaceOnUse">
<stop stop-color="#FF00DF"/>
<stop offset="0.744792" stop-color="#9F3DF3"/>
<stop offset="1" stop-color="#5243FE"/>
</linearGradient>
<linearGradient id="paint3_linear_5095_69652" x1="310.871" y1="134.202" x2="310.871" y2="184.844" gradientUnits="userSpaceOnUse">
<stop stop-color="#FF36E6"/>
<stop offset="0.739583" stop-color="#9F3DF3"/>
<stop offset="1" stop-color="#5243FE"/>
</linearGradient>
</defs>
</svg>
