<svg width="40" height="40" viewBox="0 0 40 40" fill="none" xmlns="http://www.w3.org/2000/svg">
<path opacity="0.4" d="M26.6673 3.33331H13.334C6.66732 3.33331 3.33398 6.66665 3.33398 13.3333V35C3.33398 35.9166 4.08398 36.6666 5.00065 36.6666H26.6673C33.334 36.6666 36.6673 33.3333 36.6673 26.6666V13.3333C36.6673 6.66665 33.334 3.33331 26.6673 3.33331Z" fill="#5243FE"/>
<path d="M28.3346 14.5834H11.668C10.9846 14.5834 10.418 15.15 10.418 15.8334C10.418 16.5167 10.9846 17.0834 11.668 17.0834H28.3346C29.018 17.0834 29.5846 16.5167 29.5846 15.8334C29.5846 15.15 29.018 14.5834 28.3346 14.5834Z" fill="#5243FE"/>
<path d="M23.3346 22.9167H11.668C10.9846 22.9167 10.418 23.4834 10.418 24.1667C10.418 24.85 10.9846 25.4167 11.668 25.4167H23.3346C24.018 25.4167 24.5846 24.85 24.5846 24.1667C24.5846 23.4834 24.018 22.9167 23.3346 22.9167Z" fill="#5243FE"/>
</svg>
