<svg width="24" height="25" viewBox="0 0 24 25" fill="none" xmlns="http://www.w3.org/2000/svg">
<path d="M19.1197 9.32616C18.7297 9.32616 18.4197 9.63616 18.4197 10.0262V11.6062C18.4197 15.1462 15.5397 18.0262 11.9997 18.0262C8.45969 18.0262 5.57969 15.1462 5.57969 11.6062V10.0162C5.57969 9.62616 5.26969 9.31616 4.87969 9.31616C4.48969 9.31616 4.17969 9.62616 4.17969 10.0162V11.5962C4.17969 15.6662 7.30969 19.0162 11.2997 19.3762V21.5062C11.2997 21.8962 11.6097 22.2062 11.9997 22.2062C12.3897 22.2062 12.6997 21.8962 12.6997 21.5062V19.3762C16.6797 19.0262 19.8197 15.6662 19.8197 11.5962V10.0162C19.8097 9.63616 19.4997 9.32616 19.1197 9.32616Z" fill="url(#paint0_linear_5070_36202)"/>
<path d="M12.0001 2.20605C9.56008 2.20605 7.58008 4.18605 7.58008 6.62605V11.7461C7.58008 14.1861 9.56008 16.1661 12.0001 16.1661C14.4401 16.1661 16.4201 14.1861 16.4201 11.7461V6.62605C16.4201 4.18605 14.4401 2.20605 12.0001 2.20605ZM13.3101 9.15605C13.2401 9.41605 13.0101 9.58605 12.7501 9.58605C12.7001 9.58605 12.6501 9.57605 12.6001 9.56605C12.2101 9.45605 11.8001 9.45605 11.4101 9.56605C11.0901 9.65605 10.7801 9.46605 10.7001 9.15605C10.6101 8.84605 10.8001 8.52605 11.1101 8.44605C11.7001 8.28605 12.3201 8.28605 12.9101 8.44605C13.2101 8.52605 13.3901 8.84605 13.3101 9.15605ZM13.8401 7.21605C13.7501 7.45605 13.5301 7.59605 13.2901 7.59605C13.2201 7.59605 13.1601 7.58605 13.0901 7.56605C12.3901 7.30606 11.6101 7.30606 10.9101 7.56605C10.6101 7.67605 10.2701 7.51606 10.1601 7.21605C10.0501 6.91605 10.2101 6.57605 10.5101 6.47605C11.4701 6.12605 12.5301 6.12605 13.4901 6.47605C13.7901 6.58605 13.9501 6.91605 13.8401 7.21605Z" fill="url(#paint1_linear_5070_36202)"/>
<defs>
<linearGradient id="paint0_linear_5070_36202" x1="4.17969" y1="20.2446" x2="34.9879" y2="19.8407" gradientUnits="userSpaceOnUse">
<stop stop-color="#0065FF"/>
<stop offset="0.594131" stop-color="#952BDA"/>
<stop offset="0.978815" stop-color="#FE02BF"/>
</linearGradient>
<linearGradient id="paint1_linear_5070_36202" x1="7.58008" y1="14.0417" x2="24.9956" y2="13.9225" gradientUnits="userSpaceOnUse">
<stop stop-color="#0065FF"/>
<stop offset="0.594131" stop-color="#952BDA"/>
<stop offset="0.978815" stop-color="#FE02BF"/>
</linearGradient>
</defs>
</svg>
