<svg width="40" height="40" viewBox="0 0 40 40" fill="none" xmlns="http://www.w3.org/2000/svg">
<path d="M17.1483 17.2334V30.6834C17.1483 33.9834 14.4483 36.6667 11.165 36.6667C7.86497 36.6667 5.18164 33.9834 5.18164 30.6834C5.18164 27.4001 7.86497 24.7167 11.165 24.7167C12.5483 24.7167 13.7983 25.2001 14.815 25.9834V17.9001L17.1483 17.2334Z" fill="#5243FE"/>
<path d="M34.8182 12.2V27.4667C34.8182 30.7667 32.1349 33.45 28.8349 33.45C25.5516 33.45 22.8516 30.7667 22.8516 27.4667C22.8516 24.1833 25.5516 21.5 28.8349 21.5C30.2349 21.5 31.4849 21.9833 32.5016 22.7833V12.8667L34.8182 12.2Z" fill="#5243FE"/>
<path opacity="0.4" d="M34.8184 8.63337V12.2L14.8184 17.9V11.25C14.8184 8.80003 16.3017 6.90003 18.6517 6.2667L28.285 3.63337C30.235 3.10003 31.885 3.28337 33.0517 4.18337C34.235 5.0667 34.8184 6.5667 34.8184 8.63337Z" fill="#5243FE"/>
</svg>
