<svg width="128" height="64" viewBox="0 0 128 64" fill="none" xmlns="http://www.w3.org/2000/svg">
<path d="M55.6479 11.8399V46.6627C55.6479 52.7643 50.9875 57.7258 45.256 57.7258C39.5534 57.7258 34.864 52.7643 34.864 46.6627C34.864 40.5918 39.5534 35.6303 45.256 35.6303C47.6875 35.6303 49.8585 36.524 51.6243 38.0032V10.7829L39.5643 22.2809L24.9642 17.6817V52.6103C24.9642 58.712 20.2747 63.6734 14.5722 63.6734C8.84068 63.6734 4.18026 58.712 4.18026 52.6103C4.18026 46.5394 8.84068 41.5779 14.5722 41.5779C16.9748 41.5779 19.1458 42.4716 20.9116 43.92V16.6781C20.9116 12.1481 22.102 8.48337 27.1569 8.94328L32.6713 10.553L38.1857 12.6226L46.4573 4.34413C48.2954 2.31687 51.7835 1.76019 53.8098 3.42429C55.865 5.05757 55.6479 8.01863 55.6479 11.8399Z" fill="url(#paint0_linear_1278_9943)" stroke="url(#paint1_linear_1278_9943)" stroke-opacity="0.75" stroke-width="0.327861"/>
<path d="M58.2896 6.28862H61.1091V20.7835C61.1091 22.9161 61.6453 24.4584 62.7176 25.4102C63.79 26.3501 65.1937 26.82 66.9287 26.82C68.6517 26.82 70.0434 26.3501 71.1037 25.4102C72.176 24.4584 72.7122 22.9161 72.7122 20.7835V6.28862H75.5316V20.7835C75.5316 22.6872 75.1762 24.2837 74.4653 25.5729C73.7665 26.8501 72.7724 27.814 71.4832 28.4646C70.194 29.1032 68.6758 29.4225 66.9287 29.4225C65.1816 29.4225 63.6574 29.1032 62.3561 28.4646C61.0669 27.814 60.0669 26.8501 59.356 25.5729C58.6451 24.2837 58.2896 22.6872 58.2896 20.7835V6.28862ZM86.9656 29.4225C85.4474 29.4225 84.0558 29.1514 82.7906 28.6092C81.5255 28.055 80.5074 27.2417 79.7362 26.1693C78.9651 25.097 78.5675 23.7716 78.5434 22.1932H81.2905C81.2905 23.2535 81.5496 24.127 82.0677 24.8138C82.5858 25.4886 83.2726 25.9946 84.1281 26.332C84.9835 26.6573 85.9173 26.82 86.9294 26.82C88.0259 26.82 88.9777 26.6453 89.785 26.2958C90.5923 25.9464 91.2128 25.4886 91.6466 24.9223C92.0924 24.3439 92.3153 23.7113 92.3153 23.0246C92.3153 22.0606 92.0201 21.2835 91.4297 20.6931C90.8393 20.0906 89.9658 19.6027 88.8091 19.2292L84.7968 17.8194C82.9171 17.1447 81.4954 16.3736 80.5315 15.506C79.5675 14.6385 79.0856 13.4216 79.0856 11.8552C79.0856 10.0961 79.7603 8.66226 81.1098 7.55376C82.4713 6.44526 84.3992 5.89101 86.8933 5.89101C89.2067 5.89101 91.014 6.42719 92.3153 7.49954C93.6166 8.55984 94.3636 9.98764 94.5564 11.7829H91.7731C91.5924 10.7347 91.0984 9.92137 90.2911 9.34302C89.4958 8.75263 88.3632 8.45743 86.8933 8.45743C85.3992 8.45743 84.2365 8.78877 83.4051 9.45146C82.5737 10.1142 82.1581 10.9516 82.1581 11.9637C82.1581 12.795 82.4171 13.4577 82.9352 13.9517C83.4654 14.4337 84.2907 14.8674 85.4113 15.253L90.1103 16.8796C91.7369 17.4218 93.0202 18.1809 93.96 19.1569C94.9118 20.1328 95.3878 21.398 95.3878 22.9523C95.3878 24.1572 95.0624 25.2476 94.4118 26.2235C93.7732 27.1995 92.8274 27.9767 91.5743 28.555C90.3212 29.1334 88.785 29.4225 86.9656 29.4225ZM98.8395 28.9888V6.28862H101.659V28.9888H98.8395ZM114.139 29.4225C112.139 29.4225 110.416 28.9225 108.97 27.9224C107.525 26.9103 106.41 25.5127 105.627 23.7294C104.844 21.9341 104.452 19.8557 104.452 17.4941C104.452 14.9759 104.874 12.8553 105.717 11.1323C106.573 9.40929 107.729 8.10801 109.187 7.22844C110.657 6.33682 112.308 5.89101 114.139 5.89101C116.561 5.89101 118.507 6.49948 119.977 7.71642C121.459 8.92131 122.477 10.4937 123.032 12.4336L119.995 13.0481C119.525 11.6383 118.772 10.5178 117.736 9.68642C116.712 8.84299 115.513 8.42128 114.139 8.42128C112.947 8.42128 111.844 8.76467 110.832 9.45146C109.832 10.1262 109.025 11.1383 108.41 12.4878C107.796 13.8373 107.488 15.506 107.488 17.4941C107.488 19.3014 107.729 20.91 108.211 22.3197C108.705 23.7294 109.44 24.8379 110.416 25.6452C111.404 26.4525 112.645 26.8561 114.139 26.8561C115.935 26.8561 117.357 26.3742 118.405 25.4102C119.465 24.4463 119.995 23.1812 119.995 21.6148H123.068C123.068 23.2414 122.694 24.6391 121.947 25.8079C121.2 26.9646 120.152 27.8562 118.802 28.4827C117.465 29.1093 115.911 29.4225 114.139 29.4225ZM58.7957 55.9888V33.2886H61.6151V55.9888H58.7957ZM66.1795 33.2886H69.5412L81.072 51.9765H80.8189V33.2886H83.6384V55.9888H80.4936L68.5652 36.6864H68.999V55.9888H66.1795V33.2886ZM88.2143 33.2886H94.8653C97.1546 33.2886 99.1427 33.7585 100.83 34.6983C102.516 35.6261 103.824 36.9394 104.751 38.6383C105.679 40.3372 106.143 42.3374 106.143 44.6387C106.143 46.9159 105.679 48.904 104.751 50.6029C103.824 52.3018 102.516 53.6272 100.83 54.579C99.1427 55.5189 97.1546 55.9888 94.8653 55.9888H88.2143V33.2886ZM91.0338 35.7827V53.5308H94.8653C96.5763 53.5308 98.0462 53.1452 99.2752 52.3741C100.516 51.603 101.468 50.5487 102.131 49.2113C102.806 47.8618 103.143 46.3376 103.143 44.6387C103.143 42.9278 102.806 41.4096 102.131 40.0842C101.468 38.7468 100.516 37.6985 99.2752 36.9394C98.0462 36.1683 96.5763 35.7827 94.8653 35.7827H91.0338ZM116.631 56.4225C115.113 56.4225 113.721 56.1514 112.456 55.6092C111.191 55.055 110.173 54.2417 109.402 53.1693C108.631 52.097 108.233 50.7716 108.209 49.1932H110.956C110.956 50.2535 111.215 51.127 111.733 51.8138C112.252 52.4886 112.938 52.9946 113.794 53.332C114.649 53.6573 115.583 53.82 116.595 53.82C117.692 53.82 118.643 53.6453 119.451 53.2958C120.258 52.9464 120.879 52.4886 121.312 51.9223C121.758 51.3439 121.981 50.7113 121.981 50.0246C121.981 49.0606 121.686 48.2835 121.095 47.6931C120.505 47.0906 119.631 46.6027 118.475 46.2292L114.463 44.8194C112.583 44.1447 111.161 43.3736 110.197 42.506C109.233 41.6385 108.751 40.4216 108.751 38.8552C108.751 37.0961 109.426 35.6623 110.776 34.5538C112.137 33.4453 114.065 32.891 116.559 32.891C118.872 32.891 120.68 33.4272 121.981 34.4995C123.282 35.5598 124.029 36.9876 124.222 38.7829H121.439C121.258 37.7347 120.764 36.9214 119.957 36.343C119.162 35.7526 118.029 35.4574 116.559 35.4574C115.065 35.4574 113.902 35.7888 113.071 36.4515C112.239 37.1142 111.824 37.9516 111.824 38.9637C111.824 39.795 112.083 40.4577 112.601 40.9517C113.131 41.4337 113.956 41.8674 115.077 42.253L119.776 43.8796C121.403 44.4218 122.686 45.1809 123.626 46.1569C124.578 47.1328 125.053 48.398 125.053 49.9523C125.053 51.1572 124.728 52.2476 124.078 53.2235C123.439 54.1995 122.493 54.9767 121.24 55.555C119.987 56.1334 118.451 56.4225 116.631 56.4225Z" fill="url(#paint2_linear_1278_9943)"/>
<path d="M58.2896 6.28862V6.12469H58.1257V6.28862H58.2896ZM61.1091 6.28862H61.273V6.12469H61.1091V6.28862ZM62.7176 25.4102L62.6088 25.5328L62.6096 25.5335L62.7176 25.4102ZM71.1037 25.4102L71.2124 25.5329L71.2125 25.5328L71.1037 25.4102ZM72.7122 6.28862V6.12469H72.5483V6.28862H72.7122ZM75.5316 6.28862H75.6956V6.12469H75.5316V6.28862ZM74.4653 25.5729L74.3217 25.4937L74.3215 25.4942L74.4653 25.5729ZM71.4832 28.4646L71.556 28.6115L71.5571 28.611L71.4832 28.4646ZM62.3561 28.4646L62.2823 28.611L62.2839 28.6118L62.3561 28.4646ZM59.356 25.5729L59.2124 25.6521L59.2127 25.6526L59.356 25.5729ZM58.2896 6.45255H61.1091V6.12469H58.2896V6.45255ZM60.9452 6.28862V20.7835H61.273V6.28862H60.9452ZM60.9452 20.7835C60.9452 22.9399 61.4872 24.5373 62.6088 25.5328L62.8264 25.2876C61.8033 24.3795 61.273 22.8923 61.273 20.7835H60.9452ZM62.6096 25.5335C63.718 26.5049 65.1629 26.9839 66.9287 26.9839V26.656C65.2244 26.656 63.862 26.1952 62.8257 25.287L62.6096 25.5335ZM66.9287 26.9839C68.6827 26.9839 70.116 26.5048 71.2124 25.5329L70.9949 25.2876C69.9708 26.1954 68.6207 26.656 66.9287 26.656V26.9839ZM71.2125 25.5328C72.3341 24.5373 72.8761 22.9399 72.8761 20.7835H72.5483C72.5483 22.8923 72.018 24.3795 70.9948 25.2876L71.2125 25.5328ZM72.8761 20.7835V6.28862H72.5483V20.7835H72.8761ZM72.7122 6.45255H75.5316V6.12469H72.7122V6.45255ZM75.3677 6.28862V20.7835H75.6956V6.28862H75.3677ZM75.3677 20.7835C75.3677 22.6674 75.0159 24.2348 74.3217 25.4937L74.6089 25.6521C75.3365 24.3325 75.6956 22.707 75.6956 20.7835H75.3677ZM74.3215 25.4942C73.6384 26.7425 72.6687 27.6827 71.4093 28.3183L71.5571 28.611C72.8762 27.9453 73.8945 26.9576 74.6091 25.6516L74.3215 25.4942ZM71.4104 28.3177C70.1482 28.943 68.6559 29.2586 66.9287 29.2586V29.5865C68.6957 29.5865 70.2398 29.2635 71.556 28.6115L71.4104 28.3177ZM66.9287 29.2586C65.2016 29.2586 63.703 28.943 62.4284 28.3175L62.2839 28.6118C63.6118 29.2635 65.1617 29.5865 66.9287 29.5865V29.2586ZM62.43 28.3183C61.1704 27.6826 60.1944 26.7421 59.4992 25.4932L59.2127 25.6526C59.9394 26.9581 60.9634 27.9454 62.2823 28.611L62.43 28.3183ZM59.4995 25.4937C58.8054 24.2348 58.4536 22.6674 58.4536 20.7835H58.1257C58.1257 22.707 58.4848 24.3325 59.2124 25.6521L59.4995 25.4937ZM58.4536 20.7835V6.28862H58.1257V20.7835H58.4536ZM82.7906 28.6092L82.7248 28.7594L82.7261 28.7599L82.7906 28.6092ZM79.7362 26.1693L79.8693 26.0736L79.7362 26.1693ZM78.5434 22.1932V22.0293H78.3769L78.3795 22.1957L78.5434 22.1932ZM81.2905 22.1932H81.4545V22.0293H81.2905V22.1932ZM82.0677 24.8138L81.9368 24.9126L81.9377 24.9137L82.0677 24.8138ZM84.1281 26.332L84.0679 26.4845L84.0698 26.4852L84.1281 26.332ZM89.785 26.2958L89.8501 26.4463L89.785 26.2958ZM91.6466 24.9223L91.5167 24.8222L91.5164 24.8226L91.6466 24.9223ZM91.4297 20.6931L91.3126 20.8078L91.3138 20.809L91.4297 20.6931ZM88.8091 19.2292L88.7547 19.3839L88.7587 19.3852L88.8091 19.2292ZM84.7968 17.8194L84.7414 17.9737L84.7424 17.9741L84.7968 17.8194ZM80.5315 15.506L80.6411 15.3842V15.3842L80.5315 15.506ZM81.1098 7.55376L81.0063 7.42663L81.0058 7.42708L81.1098 7.55376ZM92.3153 7.49954L92.211 7.62605L92.2117 7.62662L92.3153 7.49954ZM94.5564 11.7829V11.9469H94.7389L94.7194 11.7654L94.5564 11.7829ZM91.7731 11.7829L91.6115 11.8108L91.635 11.9469H91.7731V11.7829ZM90.2911 9.34302L90.1933 9.47466L90.1956 9.47628L90.2911 9.34302ZM83.4051 9.45146L83.3029 9.32327L83.4051 9.45146ZM82.9352 13.9517L82.8221 14.0704L82.8249 14.073L82.9352 13.9517ZM85.4113 15.253L85.4649 15.0981L85.4646 15.098L85.4113 15.253ZM90.1103 16.8796L90.0567 17.0345L90.0585 17.0351L90.1103 16.8796ZM93.96 19.1569L93.8419 19.2706L93.8426 19.2713L93.96 19.1569ZM94.4118 26.2235L94.2754 26.1326L94.2746 26.1338L94.4118 26.2235ZM91.5743 28.555L91.5056 28.4062L91.5743 28.555ZM86.9656 29.2586C85.4673 29.2586 84.0979 28.9911 82.8552 28.4586L82.7261 28.7599C84.0136 29.3117 85.4275 29.5865 86.9656 29.5865V29.2586ZM82.8564 28.4591C81.6169 27.9161 80.6225 27.121 79.8693 26.0736L79.6031 26.265C80.3922 27.3624 81.4341 28.1939 82.7248 28.7594L82.8564 28.4591ZM79.8693 26.0736C79.1213 25.0334 78.731 23.7423 78.7073 22.1907L78.3795 22.1957C78.404 23.8009 78.8089 25.1605 79.6031 26.265L79.8693 26.0736ZM78.5434 22.3571H81.2905V22.0293H78.5434V22.3571ZM81.1266 22.1932C81.1266 23.2807 81.3927 24.1912 81.9368 24.9125L82.1986 24.7151C81.7065 24.0628 81.4545 23.2263 81.4545 22.1932H81.1266ZM81.9377 24.9137C82.4753 25.6139 83.1871 26.1371 84.0679 26.4845L84.1882 26.1795C83.358 25.8521 82.6963 25.3633 82.1977 24.714L81.9377 24.9137ZM84.0698 26.4852C84.9457 26.8183 85.8995 26.9839 86.9294 26.9839V26.656C85.9351 26.656 85.0213 26.4963 84.1863 26.1788L84.0698 26.4852ZM86.9294 26.9839C88.0429 26.9839 89.0179 26.8065 89.8501 26.4463L89.7199 26.1454C88.9376 26.484 88.0088 26.656 86.9294 26.656V26.9839ZM89.8501 26.4463C90.6771 26.0883 91.3224 25.615 91.7767 25.0219L91.5164 24.8226C91.1032 25.3621 90.5075 25.8045 89.7199 26.1454L89.8501 26.4463ZM91.7764 25.0223C92.2428 24.4173 92.4792 23.7499 92.4792 23.0246H92.1514C92.1514 23.6728 91.9419 24.2706 91.5167 24.8222L91.7764 25.0223ZM92.4792 23.0246C92.4792 22.0244 92.1715 21.2031 91.5456 20.5772L91.3138 20.809C91.8686 21.3639 92.1514 22.0968 92.1514 23.0246H92.4792ZM91.5468 20.5784C90.9314 19.9505 90.031 19.4515 88.8594 19.0732L88.7587 19.3852C89.9005 19.7539 90.7472 20.2308 91.3126 20.8078L91.5468 20.5784ZM88.8634 19.0745L84.8511 17.6648L84.7424 17.9741L88.7547 19.3838L88.8634 19.0745ZM84.8522 17.6651C82.9829 16.9941 81.583 16.2319 80.6411 15.3842L80.4218 15.6279C81.4077 16.5152 82.8514 17.2953 84.7414 17.9737L84.8522 17.6651ZM80.6411 15.3842C79.7189 14.5541 79.2495 13.3856 79.2495 11.8552H78.9217C78.9217 13.4576 79.4162 14.7229 80.4218 15.6279L80.6411 15.3842ZM79.2495 11.8552C79.2495 10.1447 79.9026 8.75753 81.2139 7.68043L81.0058 7.42708C79.618 8.56699 78.9217 10.0474 78.9217 11.8552H79.2495ZM81.2133 7.68088C82.5355 6.60444 84.4213 6.05494 86.8933 6.05494V5.72708C84.377 5.72708 82.4072 6.28608 81.0063 7.42663L81.2133 7.68088ZM86.8933 6.05494C89.1827 6.05494 90.9484 6.58554 92.211 7.62605L92.4195 7.37303C91.0796 6.26883 89.2306 5.72708 86.8933 5.72708V6.05494ZM92.2117 7.62662C93.4769 8.65746 94.2048 10.0445 94.3934 11.8004L94.7194 11.7654C94.5224 9.93079 93.7563 8.46223 92.4188 7.37245L92.2117 7.62662ZM94.5564 11.619H91.7731V11.9469H94.5564V11.619ZM91.9346 11.7551C91.7472 10.6677 91.2315 9.8151 90.3865 9.20976L90.1956 9.47628C90.9652 10.0276 91.4376 10.8016 91.6115 11.8108L91.9346 11.7551ZM90.3888 9.2114C89.5546 8.59206 88.3822 8.2935 86.8933 8.2935V8.62136C88.3443 8.62136 89.4371 8.91319 90.1934 9.47464L90.3888 9.2114ZM86.8933 8.2935C85.3769 8.2935 84.1731 8.62966 83.3029 9.32327L83.5073 9.57965C84.2999 8.94788 85.4216 8.62136 86.8933 8.62136V8.2935ZM83.3029 9.32327C82.4348 10.0153 81.9941 10.8988 81.9941 11.9637H82.322C82.322 11.0043 82.7127 10.2131 83.5073 9.57965L83.3029 9.32327ZM81.9941 11.9637C81.9941 12.832 82.2662 13.5404 82.8221 14.0704L83.0483 13.8331C82.568 13.3751 82.322 12.7581 82.322 11.9637H81.9941ZM82.8249 14.073C83.3789 14.5767 84.2283 15.0193 85.3579 15.408L85.4646 15.098C84.3531 14.7156 83.5518 14.2907 83.0455 13.8304L82.8249 14.073ZM85.3576 15.4079L90.0567 17.0345L90.164 16.7247L85.4649 15.0981L85.3576 15.4079ZM90.0585 17.0351C91.6665 17.5711 92.9247 18.3181 93.8419 19.2706L94.078 19.0431C93.1156 18.0437 91.8074 17.2725 90.1622 16.7241L90.0585 17.0351ZM93.8426 19.2713C94.7604 20.2123 95.2238 21.4342 95.2238 22.9523H95.5517C95.5517 21.3617 95.0633 20.0533 94.0773 19.0424L93.8426 19.2713ZM95.2238 22.9523C95.2238 24.1257 94.9076 25.1843 94.2754 26.1326L94.5482 26.3145C95.2173 25.3108 95.5517 24.1886 95.5517 22.9523H95.2238ZM94.2746 26.1338C93.6557 27.0796 92.7359 27.8383 91.5056 28.4062L91.643 28.7039C92.9188 28.115 93.8907 27.3194 94.549 26.3133L94.2746 26.1338ZM91.5056 28.4062C90.2797 28.9719 88.7684 29.2586 86.9656 29.2586V29.5865C88.8015 29.5865 90.3627 29.2948 91.643 28.7039L91.5056 28.4062ZM98.8395 28.9888H98.6756V29.1527H98.8395V28.9888ZM98.8395 6.28862V6.12469H98.6756V6.28862H98.8395ZM101.659 6.28862H101.823V6.12469H101.659V6.28862ZM101.659 28.9888V29.1527H101.823V28.9888H101.659ZM99.0034 28.9888V6.28862H98.6756V28.9888H99.0034ZM98.8395 6.45255H101.659V6.12469H98.8395V6.45255ZM101.495 6.28862V28.9888H101.823V6.28862H101.495ZM101.659 28.8248H98.8395V29.1527H101.659V28.8248ZM108.97 27.9224L108.876 28.0567L108.877 28.0573L108.97 27.9224ZM105.627 23.7294L105.477 23.795L105.477 23.7953L105.627 23.7294ZM105.717 11.1323L105.57 11.0594L105.57 11.0602L105.717 11.1323ZM109.187 7.22844L109.272 7.3688L109.272 7.3686L109.187 7.22844ZM119.977 7.71642L119.873 7.8427L119.874 7.84362L119.977 7.71642ZM123.032 12.4336L123.064 12.5942L123.238 12.5591L123.189 12.3885L123.032 12.4336ZM119.995 13.0481L119.84 13.0999L119.886 13.2375L120.028 13.2087L119.995 13.0481ZM117.736 9.68642L117.632 9.81297L117.633 9.81428L117.736 9.68642ZM110.832 9.45146L110.924 9.58735L110.924 9.58711L110.832 9.45146ZM108.41 12.4878L108.559 12.5557L108.41 12.4878ZM108.211 22.3197L108.056 22.3727L108.057 22.3739L108.211 22.3197ZM110.416 25.6452L110.312 25.7715L110.313 25.7721L110.416 25.6452ZM118.405 25.4102L118.294 25.2889L118.294 25.2896L118.405 25.4102ZM119.995 21.6148V21.4509H119.831V21.6148H119.995ZM123.068 21.6148H123.232V21.4509H123.068V21.6148ZM121.947 25.8079L122.085 25.8968L122.085 25.8961L121.947 25.8079ZM118.802 28.4827L118.733 28.334L118.733 28.3343L118.802 28.4827ZM114.139 29.2586C112.168 29.2586 110.479 28.7662 109.064 27.7876L108.877 28.0573C110.354 29.0788 112.111 29.5865 114.139 29.5865V29.2586ZM109.064 27.7881C107.646 26.795 106.549 25.4222 105.777 23.6635L105.477 23.7953C106.271 25.6031 107.403 27.0257 108.876 28.0567L109.064 27.7881ZM105.777 23.6639C105.005 21.8931 104.616 19.8377 104.616 17.4941H104.288C104.288 19.8737 104.683 21.9752 105.477 23.795L105.777 23.6639ZM104.616 17.4941C104.616 14.9934 105.035 12.899 105.864 11.2044L105.57 11.0602C104.713 12.8115 104.288 14.9584 104.288 17.4941H104.616ZM105.864 11.2052C106.708 9.5064 107.844 8.23023 109.272 7.3688L109.103 7.08807C107.615 7.98578 106.438 9.31218 105.57 11.0594L105.864 11.2052ZM109.272 7.3686C110.715 6.49355 112.336 6.05494 114.139 6.05494V5.72708C112.28 5.72708 110.6 6.18008 109.102 7.08827L109.272 7.3686ZM114.139 6.05494C116.534 6.05494 118.439 6.65604 119.873 7.84269L120.082 7.59015C118.575 6.34292 116.589 5.72708 114.139 5.72708V6.05494ZM119.874 7.84362C121.328 9.02609 122.328 10.5691 122.874 12.4786L123.189 12.3885C122.626 10.4183 121.59 8.81653 120.081 7.58922L119.874 7.84362ZM122.999 12.2729L119.963 12.8874L120.028 13.2087L123.064 12.5942L122.999 12.2729ZM120.151 12.9962C119.672 11.5603 118.902 10.4119 117.839 9.55855L117.633 9.81428C118.642 10.6236 119.379 11.7164 119.84 13.0999L120.151 12.9962ZM117.84 9.55987C116.786 8.69137 115.55 8.25735 114.139 8.25735V8.58521C115.476 8.58521 116.638 8.99462 117.632 9.81296L117.84 9.55987ZM114.139 8.25735C112.913 8.25735 111.779 8.61109 110.74 9.31581L110.924 9.58711C111.91 8.91825 112.98 8.58521 114.139 8.58521V8.25735ZM110.74 9.31557C109.71 10.0107 108.885 11.0491 108.261 12.4199L108.559 12.5557C109.164 11.2275 109.954 10.2417 110.924 9.58735L110.74 9.31557ZM108.261 12.4199C107.634 13.7966 107.325 15.4902 107.325 17.4941H107.652C107.652 15.5219 107.957 13.8779 108.559 12.5557L108.261 12.4199ZM107.325 17.4941C107.325 19.3158 107.567 20.9427 108.056 22.3727L108.366 22.2667C107.891 20.8772 107.652 19.2871 107.652 17.4941H107.325ZM108.057 22.3739C108.559 23.8067 109.309 24.942 110.312 25.7715L110.521 25.5189C109.572 24.7338 108.852 23.6522 108.366 22.2655L108.057 22.3739ZM110.313 25.7721C111.335 26.6073 112.614 27.02 114.139 27.02V26.6922C112.676 26.6922 111.474 26.2976 110.52 25.5183L110.313 25.7721ZM114.139 27.02C115.965 27.02 117.43 26.5294 118.516 25.5309L118.294 25.2896C117.283 26.2189 115.905 26.6922 114.139 26.6922V27.02ZM118.515 25.5315C119.613 24.5335 120.159 23.2226 120.159 21.6148H119.831C119.831 23.1398 119.317 24.3592 118.294 25.2889L118.515 25.5315ZM119.995 21.7788H123.068V21.4509H119.995V21.7788ZM122.904 21.6148C122.904 23.2156 122.536 24.5815 121.809 25.7196L122.085 25.8961C122.852 24.6968 123.232 23.2672 123.232 21.6148H122.904ZM121.809 25.7189C121.081 26.8475 120.057 27.7194 118.733 28.334L118.871 28.6314C120.247 27.9929 121.32 27.0816 122.085 25.8968L121.809 25.7189ZM118.733 28.3343C117.421 28.9488 115.891 29.2586 114.139 29.2586V29.5865C115.93 29.5865 117.509 29.2697 118.872 28.6312L118.733 28.3343ZM58.7957 55.9888H58.6318V56.1527H58.7957V55.9888ZM58.7957 33.2886V33.1247H58.6318V33.2886H58.7957ZM61.6151 33.2886H61.7791V33.1247H61.6151V33.2886ZM61.6151 55.9888V56.1527H61.7791V55.9888H61.6151ZM58.9596 55.9888V33.2886H58.6318V55.9888H58.9596ZM58.7957 33.4526H61.6151V33.1247H58.7957V33.4526ZM61.4512 33.2886V55.9888H61.7791V33.2886H61.4512ZM61.6151 55.8248H58.7957V56.1527H61.6151V55.8248ZM66.1795 33.2886V33.1247H66.0156V33.2886H66.1795ZM69.5412 33.2886L69.6807 33.2025L69.6326 33.1247H69.5412V33.2886ZM81.072 51.9765V52.1404H81.3657L81.2115 51.8904L81.072 51.9765ZM80.8189 51.9765H80.655V52.1404H80.8189V51.9765ZM80.8189 33.2886V33.1247H80.655V33.2886H80.8189ZM83.6384 33.2886H83.8023V33.1247H83.6384V33.2886ZM83.6384 55.9888V56.1527H83.8023V55.9888H83.6384ZM80.4936 55.9888L80.3542 56.0749L80.4022 56.1527H80.4936V55.9888ZM68.5652 36.6864V36.5225H68.2712L68.4257 36.7726L68.5652 36.6864ZM68.999 36.6864H69.1629V36.5225H68.999V36.6864ZM68.999 55.9888V56.1527H69.1629V55.9888H68.999ZM66.1795 55.9888H66.0156V56.1527H66.1795V55.9888ZM66.1795 33.4526H69.5412V33.1247H66.1795V33.4526ZM69.4016 33.3747L80.9325 52.0626L81.2115 51.8904L69.6807 33.2025L69.4016 33.3747ZM81.072 51.8126H80.8189V52.1404H81.072V51.8126ZM80.9829 51.9765V33.2886H80.655V51.9765H80.9829ZM80.8189 33.4526H83.6384V33.1247H80.8189V33.4526ZM83.4744 33.2886V55.9888H83.8023V33.2886H83.4744ZM83.6384 55.8248H80.4936V56.1527H83.6384V55.8248ZM80.6331 55.9026L68.7046 36.6002L68.4257 36.7726L80.3542 56.0749L80.6331 55.9026ZM68.5652 36.8503H68.999V36.5225H68.5652V36.8503ZM68.835 36.6864V55.9888H69.1629V36.6864H68.835ZM68.999 55.8248H66.1795V56.1527H68.999V55.8248ZM66.3434 55.9888V33.2886H66.0156V55.9888H66.3434ZM88.2143 33.2886V33.1247H88.0504V33.2886H88.2143ZM100.83 34.6983L100.75 34.8416L100.751 34.842L100.83 34.6983ZM104.751 38.6383L104.895 38.5598L104.751 38.6383ZM104.751 50.6029L104.895 50.6815L104.751 50.6029ZM100.83 54.579L100.909 54.7223L100.91 54.7218L100.83 54.579ZM88.2143 55.9888H88.0504V56.1527H88.2143V55.9888ZM91.0338 35.7827V35.6188H90.8698V35.7827H91.0338ZM91.0338 53.5308H90.8698V53.6947H91.0338V53.5308ZM99.2752 52.3741L99.1887 52.2349L99.1881 52.2352L99.2752 52.3741ZM102.131 49.2113L101.984 49.1379L101.984 49.1385L102.131 49.2113ZM102.131 40.0842L101.984 40.157L101.985 40.1586L102.131 40.0842ZM99.2752 36.9394L99.1881 37.0783L99.1897 37.0793L99.2752 36.9394ZM88.2143 33.4526H94.8653V33.1247H88.2143V33.4526ZM94.8653 33.4526C97.1319 33.4526 99.0915 33.9176 100.75 34.8415L100.909 34.5551C99.1939 33.5994 97.1774 33.1247 94.8653 33.1247V33.4526ZM100.751 34.842C102.41 35.7546 103.695 37.0453 104.608 38.7169L104.895 38.5598C103.953 36.8336 102.623 35.4976 100.909 34.5547L100.751 34.842ZM104.608 38.7169C105.52 40.3875 105.979 42.3596 105.979 44.6387H106.307C106.307 42.3151 105.839 40.2869 104.895 38.5598L104.608 38.7169ZM105.979 44.6387C105.979 46.8933 105.52 48.8535 104.608 50.5243L104.895 50.6815C105.838 48.9546 106.307 46.9385 106.307 44.6387H105.979ZM104.608 50.5243C103.695 52.1963 102.409 53.4995 100.749 54.4363L100.91 54.7218C102.624 53.7549 103.953 52.4073 104.895 50.6815L104.608 50.5243ZM100.75 54.4358C99.0915 55.3597 97.1319 55.8248 94.8653 55.8248V56.1527C97.1774 56.1527 99.1939 55.678 100.909 54.7223L100.75 54.4358ZM94.8653 55.8248H88.2143V56.1527H94.8653V55.8248ZM88.3783 55.9888V33.2886H88.0504V55.9888H88.3783ZM90.8698 35.7827V53.5308H91.1977V35.7827H90.8698ZM91.0338 53.6947H94.8653V53.3669H91.0338V53.6947ZM94.8653 53.6947C96.6015 53.6947 98.1029 53.3032 99.3624 52.513L99.1881 52.2352C97.9896 52.9872 96.5511 53.3669 94.8653 53.3669V53.6947ZM99.3617 52.5133C100.629 51.7257 101.602 50.6482 102.278 49.284L101.984 49.1385C101.334 50.4492 100.403 51.4802 99.1887 52.2349L99.3617 52.5133ZM102.277 49.2846C102.965 47.9096 103.307 46.3598 103.307 44.6387H102.979C102.979 46.3154 102.646 47.814 101.984 49.1379L102.277 49.2846ZM103.307 44.6387C103.307 42.9058 102.965 41.3615 102.277 40.0098L101.985 40.1586C102.646 41.4577 102.979 42.9497 102.979 44.6387H103.307ZM102.278 40.0114C101.602 38.6471 100.629 37.5752 99.3608 36.7996L99.1897 37.0793C100.404 37.8218 101.335 38.8465 101.984 40.157L102.278 40.0114ZM99.3624 36.8006C98.1029 36.0103 96.6015 35.6188 94.8653 35.6188V35.9467C96.5511 35.9467 97.9896 36.3263 99.1881 37.0783L99.3624 36.8006ZM94.8653 35.6188H91.0338V35.9467H94.8653V35.6188ZM112.456 55.6092L112.391 55.7594L112.392 55.7599L112.456 55.6092ZM109.402 53.1693L109.535 53.0736L109.402 53.1693ZM108.209 49.1932V49.0293H108.043L108.045 49.1957L108.209 49.1932ZM110.956 49.1932H111.12V49.0293H110.956V49.1932ZM111.733 51.8138L111.603 51.9126L111.603 51.9137L111.733 51.8138ZM113.794 53.332L113.734 53.4845L113.736 53.4852L113.794 53.332ZM119.451 53.2958L119.516 53.4463L119.451 53.2958ZM121.312 51.9223L121.182 51.8222L121.182 51.8226L121.312 51.9223ZM121.095 47.6931L120.978 47.8078L120.98 47.809L121.095 47.6931ZM118.475 46.2292L118.42 46.3839L118.424 46.3852L118.475 46.2292ZM114.463 44.8194L114.407 44.9737L114.408 44.9741L114.463 44.8194ZM110.197 42.506L110.307 42.3842L110.197 42.506ZM110.776 34.5538L110.672 34.4266L110.671 34.4271L110.776 34.5538ZM121.981 34.4995L121.877 34.6261L121.877 34.6266L121.981 34.4995ZM124.222 38.7829V38.9469H124.405L124.385 38.7654L124.222 38.7829ZM121.439 38.7829L121.277 38.8108L121.301 38.9469H121.439V38.7829ZM119.957 36.343L119.859 36.4747L119.861 36.4763L119.957 36.343ZM113.071 36.4515L112.969 36.3233H112.969L113.071 36.4515ZM112.601 40.9517L112.488 41.0704L112.491 41.073L112.601 40.9517ZM115.077 42.253L115.131 42.0981L115.13 42.098L115.077 42.253ZM119.776 43.8796L119.722 44.0345L119.724 44.0351L119.776 43.8796ZM123.626 46.1569L123.508 46.2706L123.508 46.2713L123.626 46.1569ZM124.078 53.2235L123.941 53.1326L123.94 53.1338L124.078 53.2235ZM121.24 55.555L121.171 55.4062L121.24 55.555ZM116.631 56.2586C115.133 56.2586 113.764 55.9911 112.521 55.4586L112.392 55.7599C113.679 56.3117 115.093 56.5865 116.631 56.5865V56.2586ZM112.522 55.4591C111.283 54.9161 110.288 54.121 109.535 53.0736L109.269 53.265C110.058 54.3624 111.1 55.1939 112.391 55.7594L112.522 55.4591ZM109.535 53.0736C108.787 52.0334 108.397 50.7423 108.373 49.1907L108.045 49.1957C108.07 50.8009 108.475 52.1605 109.269 53.265L109.535 53.0736ZM108.209 49.3571H110.956V49.0293H108.209V49.3571ZM110.792 49.1932C110.792 50.2807 111.058 51.1912 111.603 51.9125L111.864 51.7151C111.372 51.0628 111.12 50.2263 111.12 49.1932H110.792ZM111.603 51.9137C112.141 52.6139 112.853 53.1371 113.734 53.4845L113.854 53.1795C113.024 52.8521 112.362 52.3633 111.863 51.714L111.603 51.9137ZM113.736 53.4852C114.611 53.8183 115.565 53.9839 116.595 53.9839V53.656C115.601 53.656 114.687 53.4963 113.852 53.1788L113.736 53.4852ZM116.595 53.9839C117.709 53.9839 118.684 53.8065 119.516 53.4463L119.386 53.1454C118.603 53.484 117.675 53.656 116.595 53.656V53.9839ZM119.516 53.4463C120.343 53.0883 120.988 52.615 121.442 52.0219L121.182 51.8226C120.769 52.3621 120.173 52.8045 119.386 53.1454L119.516 53.4463ZM121.442 52.0223C121.909 51.4173 122.145 50.7499 122.145 50.0246H121.817C121.817 50.6728 121.608 51.2706 121.182 51.8222L121.442 52.0223ZM122.145 50.0246C122.145 49.0244 121.837 48.2031 121.211 47.5772L120.98 47.809C121.534 48.3639 121.817 49.0968 121.817 50.0246H122.145ZM121.213 47.5784C120.597 46.9505 119.697 46.4515 118.525 46.0732L118.424 46.3852C119.566 46.7539 120.413 47.2308 120.978 47.8078L121.213 47.5784ZM118.529 46.0745L114.517 44.6648L114.408 44.9741L118.42 46.3838L118.529 46.0745ZM114.518 44.6651C112.649 43.9941 111.249 43.2319 110.307 42.3842L110.088 42.6279C111.073 43.5152 112.517 44.2953 114.407 44.9737L114.518 44.6651ZM110.307 42.3842C109.385 41.5541 108.915 40.3856 108.915 38.8552H108.587C108.587 40.4576 109.082 41.7229 110.088 42.6279L110.307 42.3842ZM108.915 38.8552C108.915 37.1447 109.568 35.7575 110.88 34.6804L110.671 34.4271C109.284 35.567 108.587 37.0474 108.587 38.8552H108.915ZM110.879 34.6809C112.201 33.6044 114.087 33.0549 116.559 33.0549V32.7271C114.043 32.7271 112.073 33.2861 110.672 34.4266L110.879 34.6809ZM116.559 33.0549C118.848 33.0549 120.614 33.5855 121.877 34.626L122.085 34.373C120.745 33.2688 118.896 32.7271 116.559 32.7271V33.0549ZM121.877 34.6266C123.143 35.6575 123.871 37.0445 124.059 38.8004L124.385 38.7654C124.188 36.9308 123.422 35.4622 122.085 34.3725L121.877 34.6266ZM124.222 38.619H121.439V38.9469H124.222V38.619ZM121.6 38.7551C121.413 37.6677 120.897 36.8151 120.052 36.2098L119.861 36.4763C120.631 37.0276 121.103 37.8016 121.277 38.8108L121.6 38.7551ZM120.055 36.2114C119.22 35.5921 118.048 35.2935 116.559 35.2935V35.6214C118.01 35.6214 119.103 35.9132 119.859 36.4746L120.055 36.2114ZM116.559 35.2935C115.043 35.2935 113.839 35.6297 112.969 36.3233L113.173 36.5797C113.966 35.9479 115.087 35.6214 116.559 35.6214V35.2935ZM112.969 36.3233C112.101 37.0153 111.66 37.8988 111.66 38.9637H111.988C111.988 38.0043 112.378 37.2131 113.173 36.5797L112.969 36.3233ZM111.66 38.9637C111.66 39.832 111.932 40.5404 112.488 41.0704L112.714 40.8331C112.234 40.3751 111.988 39.7581 111.988 38.9637H111.66ZM112.491 41.073C113.045 41.5766 113.894 42.0193 115.024 42.408L115.13 42.098C114.019 41.7155 113.218 41.2907 112.711 40.8304L112.491 41.073ZM115.023 42.4079L119.722 44.0345L119.83 43.7247L115.131 42.0981L115.023 42.4079ZM119.724 44.0351C121.332 44.5711 122.59 45.3181 123.508 46.2706L123.744 46.0431C122.781 45.0437 121.473 44.2725 119.828 43.7241L119.724 44.0351ZM123.508 46.2713C124.426 47.2123 124.89 48.4342 124.89 49.9523H125.217C125.217 48.3617 124.729 47.0533 123.743 46.0424L123.508 46.2713ZM124.89 49.9523C124.89 51.1257 124.573 52.1843 123.941 53.1326L124.214 53.3145C124.883 52.3108 125.217 51.1886 125.217 49.9523H124.89ZM123.94 53.1338C123.321 54.0796 122.402 54.8383 121.171 55.4062L121.309 55.7038C122.585 55.115 123.556 54.3194 124.215 53.3133L123.94 53.1338ZM121.171 55.4062C119.945 55.9719 118.434 56.2586 116.631 56.2586V56.5865C118.467 56.5865 120.028 56.2948 121.309 55.7038L121.171 55.4062Z" fill="url(#paint3_linear_1278_9943)" fill-opacity="0.75"/>
<defs>
<linearGradient id="paint0_linear_1278_9943" x1="29.9174" y1="2.44531" x2="29.9174" y2="63.6734" gradientUnits="userSpaceOnUse">
<stop stop-color="#FF00DF"/>
<stop offset="0.546875" stop-color="#9F3DF3"/>
<stop offset="0.729167" stop-color="#5243FE"/>
<stop offset="1" stop-color="#5243FE"/>
</linearGradient>
<linearGradient id="paint1_linear_1278_9943" x1="29.9174" y1="2.44531" x2="29.9174" y2="63.6734" gradientUnits="userSpaceOnUse">
<stop stop-color="#FF36E6"/>
<stop offset="0.557292" stop-color="#AB3CF2"/>
<stop offset="0.703125" stop-color="#5243FE"/>
</linearGradient>
<linearGradient id="paint2_linear_1278_9943" x1="91.517" y1="2.98877" x2="91.517" y2="56.9603" gradientUnits="userSpaceOnUse">
<stop stop-color="#FF00DF"/>
<stop offset="0.744792" stop-color="#9F3DF3"/>
<stop offset="1" stop-color="#5243FE"/>
</linearGradient>
<linearGradient id="paint3_linear_1278_9943" x1="91.517" y1="2.98877" x2="91.517" y2="56.9603" gradientUnits="userSpaceOnUse">
<stop stop-color="#FF36E6"/>
<stop offset="0.739583" stop-color="#9F3DF3"/>
<stop offset="1" stop-color="#5243FE"/>
</linearGradient>
</defs>
</svg>
