<svg width="24" height="25" viewBox="0 0 24 25" fill="none" xmlns="http://www.w3.org/2000/svg">
<path d="M19.4792 3.02603L19.7592 3.59603C19.8992 3.87603 20.2492 4.13603 20.5592 4.19603L20.9392 4.25603C22.0792 4.44603 22.3492 5.28603 21.5292 6.11603L21.1792 6.46603C20.9492 6.70603 20.8192 7.16603 20.8892 7.48603L20.9392 7.69603C21.2492 9.07603 20.5192 9.60603 19.3192 8.88603L19.0592 8.73603C18.7492 8.55603 18.2492 8.55603 17.9392 8.73603L17.6792 8.88603C16.4692 9.61603 15.7392 9.07603 16.0592 7.69603L16.1092 7.48603C16.1792 7.16603 16.0492 6.70603 15.8192 6.46603L15.4692 6.10603C14.6492 5.27603 14.9192 4.43603 16.0592 4.24603L16.4392 4.18603C16.7392 4.13603 17.0992 3.86603 17.2392 3.58603L17.5192 3.01603C18.0592 1.93603 18.9392 1.93603 19.4792 3.02603Z" fill="url(#paint0_linear_5070_32982)"/>
<path d="M21.57 10.2961C21.21 10.5561 20.2 11.0361 18.76 10.2961C18.6 10.2161 18.4 10.2061 18.24 10.2961C17.67 10.5861 17.15 10.7061 16.74 10.7061C16.1 10.7061 15.65 10.4561 15.43 10.2961C15.06 10.0261 14.28 9.25605 14.55 7.62605C14.58 7.45605 14.53 7.28605 14.42 7.15605C13.73 6.36605 13.35 5.30605 13.62 4.47605C13.72 4.14605 13.51 3.70605 13.17 3.70605H7C4 3.70605 2 5.20605 2 8.70605V15.7061C2 19.2061 4 20.7061 7 20.7061H17C20 20.7061 22 19.2061 22 15.7061V10.4761C22 10.2861 21.73 10.1861 21.57 10.2961ZM14.34 12.2961C13.68 12.8261 12.84 13.0861 12 13.0861C11.16 13.0861 10.31 12.8261 9.66 12.2961L6.53 9.79605C6.21 9.53605 6.16 9.05605 6.41 8.73605C6.67 8.41605 7.14 8.35605 7.46 8.61605L10.59 11.1161C11.35 11.7261 12.64 11.7261 13.4 11.1161C13.72 10.8561 14.19 10.9061 14.45 11.2361C14.72 11.5561 14.67 12.0361 14.34 12.2961Z" fill="url(#paint1_linear_5070_32982)"/>
<defs>
<linearGradient id="paint0_linear_5070_32982" x1="14.9941" y1="8.14586" x2="28.8038" y2="7.9965" gradientUnits="userSpaceOnUse">
<stop stop-color="#0065FF"/>
<stop offset="0.594131" stop-color="#952BDA"/>
<stop offset="0.978815" stop-color="#FE02BF"/>
</linearGradient>
<linearGradient id="paint1_linear_5070_32982" x1="2" y1="18.1191" x2="41.3972" y2="17.6182" gradientUnits="userSpaceOnUse">
<stop stop-color="#0065FF"/>
<stop offset="0.594131" stop-color="#952BDA"/>
<stop offset="0.978815" stop-color="#FE02BF"/>
</linearGradient>
</defs>
</svg>
