<svg width="100" height="77" viewBox="0 0 100 77" fill="none" xmlns="http://www.w3.org/2000/svg">
<path d="M7.94163 9.13106C10.1485 3.8462 15.405 0.630371 21.1321 0.630371H78.6983C84.3118 0.630371 89.4828 3.71659 91.7349 8.85844C95.4259 17.2852 100.343 30.5783 99.9812 40.9217C99.6677 49.8903 95.2272 61.1825 91.8013 68.6445C89.4959 73.6657 84.3901 76.6518 78.8649 76.6518H20.9127C15.3008 76.6518 10.1297 73.5712 7.85815 68.4396C4.52904 60.9188 0.260142 49.6616 0.0125292 40.9217C-0.273468 30.827 4.39613 17.6216 7.94163 9.13106Z" fill="#EDE3FF"/>
<path d="M57.6979 25.2738V22.8031C57.6979 22.1537 57.1594 21.6152 56.5101 21.6152C55.8607 21.6152 55.3222 22.1537 55.3222 22.8031V25.1787H45.0276V22.8031C45.0276 22.1537 44.4892 21.6152 43.8398 21.6152C43.1905 21.6152 42.652 22.1537 42.652 22.8031V25.2738C38.3758 25.6697 36.301 28.2196 35.9843 32.0048C35.9526 32.4641 36.3327 32.8442 36.7762 32.8442H63.5737C64.033 32.8442 64.4131 32.4483 64.3656 32.0048C64.0488 28.2196 61.9741 25.6697 57.6979 25.2738Z" fill="#5243FE"/>
<path opacity="0.4" d="M64.4299 36.8042V39.56C64.4299 40.5261 63.5747 41.2705 62.6244 41.1121C62.1809 41.0488 61.7216 41.0012 61.2623 41.0012C56.4635 41.0012 52.5516 44.9132 52.5516 49.712C52.5516 50.4406 52.8366 51.4542 53.1376 52.3728C53.486 53.4023 52.7258 54.4634 51.633 54.4634H43.8408C38.2975 54.4634 35.9219 51.2958 35.9219 46.5445V36.7884C35.9219 35.9173 36.6346 35.2046 37.5057 35.2046H62.8461C63.7172 35.2204 64.4299 35.9331 64.4299 36.8042Z" fill="#5243FE"/>
<path d="M61.2609 43.3926C57.7607 43.3926 54.9258 46.2275 54.9258 49.7277C54.9258 50.9155 55.2584 52.04 55.8444 52.9903C56.9372 54.8275 58.9486 56.0628 61.2609 56.0628C63.5732 56.0628 65.5846 54.8275 66.6774 52.9903C67.2634 52.04 67.596 50.9155 67.596 49.7277C67.596 46.2275 64.7611 43.3926 61.2609 43.3926ZM64.5393 49.0467L61.1659 52.1667C60.9441 52.3726 60.6432 52.4835 60.3581 52.4835C60.0572 52.4835 59.7563 52.3726 59.5187 52.135L57.9508 50.5671C57.4915 50.1078 57.4915 49.3476 57.9508 48.8883C58.4101 48.429 59.1703 48.429 59.6296 48.8883L60.3898 49.6485L62.9239 47.3045C63.399 46.8611 64.1592 46.8927 64.6027 47.3679C65.0461 47.843 65.0145 48.5874 64.5393 49.0467Z" fill="#5243FE"/>
<path d="M44.6326 43.3921C44.2208 43.3921 43.809 43.2179 43.5081 42.9328C43.223 42.6319 43.0488 42.2201 43.0488 41.8083C43.0488 41.3966 43.223 40.9848 43.5081 40.6839C43.8724 40.3196 44.4267 40.1453 44.9494 40.2562C45.0444 40.272 45.1394 40.3037 45.2344 40.3512C45.3295 40.3829 45.4245 40.4305 45.5195 40.4938C45.5987 40.5572 45.6779 40.6205 45.7571 40.6839C46.0422 40.9848 46.2164 41.3966 46.2164 41.8083C46.2164 42.2201 46.0422 42.6319 45.7571 42.9328C45.6779 42.9962 45.5987 43.0595 45.5195 43.1228C45.4245 43.1862 45.3295 43.2338 45.2344 43.2654C45.1394 43.3129 45.0444 43.3446 44.9494 43.3605C44.8385 43.3763 44.7276 43.3921 44.6326 43.3921Z" fill="#5243FE"/>
<path d="M50.1756 43.3929C49.7638 43.3929 49.352 43.2186 49.0511 42.9336C48.766 42.6326 48.5918 42.2209 48.5918 41.8091C48.5918 41.3973 48.766 40.9855 49.0511 40.6846C49.6529 40.0986 50.7141 40.0986 51.3001 40.6846C51.5851 40.9855 51.7594 41.3973 51.7594 41.8091C51.7594 42.2209 51.5851 42.6326 51.3001 42.9336C50.9991 43.2186 50.5874 43.3929 50.1756 43.3929Z" fill="#5243FE"/>
<path d="M44.6326 48.9353C44.2208 48.9353 43.809 48.7611 43.5081 48.476C43.223 48.1751 43.0488 47.7633 43.0488 47.3516C43.0488 46.9398 43.223 46.528 43.5081 46.2271C43.6665 46.0846 43.8249 45.9737 44.0308 45.8945C44.6168 45.6411 45.3136 45.7836 45.7571 46.2271C46.0422 46.528 46.2164 46.9398 46.2164 47.3516C46.2164 47.7633 46.0422 48.1751 45.7571 48.476C45.4562 48.7611 45.0444 48.9353 44.6326 48.9353Z" fill="#5243FE"/>
</svg>
