<svg width="100" height="77" viewBox="0 0 100 77" fill="none" xmlns="http://www.w3.org/2000/svg">
<path d="M7.94163 9.13106C10.1485 3.8462 15.405 0.630371 21.1321 0.630371H78.6983C84.3118 0.630371 89.4828 3.71659 91.7349 8.85844C95.4259 17.2852 100.343 30.5783 99.9812 40.9217C99.6677 49.8903 95.2272 61.1825 91.8013 68.6445C89.4959 73.6657 84.3901 76.6518 78.8649 76.6518H20.9127C15.3008 76.6518 10.1297 73.5712 7.85815 68.4396C4.52904 60.9188 0.260142 49.6616 0.0125292 40.9217C-0.273468 30.827 4.39613 17.6216 7.94163 9.13106Z" fill="#EDE3FF"/>
<path d="M59.6789 40.2251C58.1901 40.2251 56.8122 40.7478 55.7194 41.6188C54.2623 42.775 53.3438 44.5647 53.3438 46.5602C53.3438 47.7481 53.6763 48.8725 54.2623 49.8228C55.3551 51.66 57.3665 52.8953 59.6789 52.8953C61.2785 52.8953 62.7356 52.3093 63.8442 51.3116C64.3352 50.8998 64.7628 50.393 65.0954 49.8228C65.6814 48.8725 66.014 47.7481 66.014 46.5602C66.014 43.0601 63.179 40.2251 59.6789 40.2251ZM62.9573 45.8792L59.5838 48.9992C59.3621 49.2051 59.0612 49.316 58.7761 49.316C58.4752 49.316 58.1743 49.2052 57.9367 48.9676L56.3688 47.3997C55.9095 46.9404 55.9095 46.1801 56.3688 45.7208C56.8281 45.2615 57.5883 45.2615 58.0476 45.7208L58.8078 46.481L61.3418 44.137C61.817 43.6935 62.5772 43.7253 63.0206 44.2004C63.4641 44.6755 63.4324 45.4199 62.9573 45.8792Z" fill="#5243FE"/>
<path opacity="0.4" d="M64.5724 53.6869C64.5724 54.1304 64.224 54.4788 63.7805 54.4788H36.5712C36.1277 54.4788 35.7793 54.1304 35.7793 53.6869C35.7793 47.1301 42.2411 41.8086 50.1758 41.8086C51.8071 41.8086 53.3909 42.0303 54.848 42.4579C53.9136 43.5665 53.3434 45.0078 53.3434 46.5599C53.3434 47.7478 53.676 48.8722 54.262 49.8225C54.5787 50.361 54.9905 50.8519 55.4657 51.2637C56.5743 52.2773 58.0472 52.8951 59.6785 52.8951C61.4524 52.8951 63.052 52.1665 64.1923 50.9945C64.4457 51.8497 64.5724 52.7525 64.5724 53.6869Z" fill="#5243FE"/>
<path d="M50.1748 38.641C54.5482 38.641 58.0937 35.0956 58.0937 30.7221C58.0937 26.3486 54.5482 22.8032 50.1748 22.8032C45.8013 22.8032 42.2559 26.3486 42.2559 30.7221C42.2559 35.0956 45.8013 38.641 50.1748 38.641Z" fill="#5243FE"/>
</svg>
