<svg width="100" height="77" viewBox="0 0 100 77" fill="none" xmlns="http://www.w3.org/2000/svg">
<path d="M7.94163 9.13106C10.1485 3.8462 15.405 0.630371 21.1321 0.630371H78.6983C84.3118 0.630371 89.4828 3.71659 91.7349 8.85844C95.4259 17.2852 100.343 30.5783 99.9812 40.9217C99.6677 49.8903 95.2272 61.1825 91.8013 68.6445C89.4959 73.6657 84.3901 76.6518 78.8649 76.6518H20.9127C15.3008 76.6518 10.1297 73.5712 7.85815 68.4396C4.52904 60.9188 0.260142 49.6616 0.0125292 40.9217C-0.273468 30.827 4.39613 17.6216 7.94163 9.13106Z" fill="#EDE3FF"/>
<path d="M66.0138 54.4787H34.3382C33.6889 54.4787 33.1504 53.9402 33.1504 53.2909C33.1504 52.6415 33.6889 52.103 34.3382 52.103H66.0138C66.6632 52.103 67.2017 52.6415 67.2017 53.2909C67.2017 53.9402 66.6632 54.4787 66.0138 54.4787Z" fill="#5243FE"/>
<path d="M46.6113 25.9708V54.4788H53.7383V25.9708C53.7383 24.2286 53.0256 22.8032 50.8875 22.8032H49.4621C47.324 22.8032 46.6113 24.2286 46.6113 25.9708Z" fill="#5243FE"/>
<path opacity="0.4" d="M35.9219 35.4737V54.4791H42.257V35.4737C42.257 33.7316 41.6235 32.3062 39.7229 32.3062H38.4559C36.5554 32.3062 35.9219 33.7316 35.9219 35.4737Z" fill="#5243FE"/>
<path opacity="0.4" d="M58.0938 43.3927V54.4791H64.4289V43.3927C64.4289 41.6505 63.7954 40.2251 61.8948 40.2251H60.6278C58.7273 40.2251 58.0938 41.6505 58.0938 43.3927Z" fill="#5243FE"/>
</svg>
