<svg width="100" height="77" viewBox="0 0 100 77" fill="none" xmlns="http://www.w3.org/2000/svg">
<path d="M7.94163 9.13106C10.1485 3.8462 15.405 0.630371 21.1321 0.630371H78.6983C84.3118 0.630371 89.4828 3.71659 91.7349 8.85844C95.4259 17.2852 100.343 30.5783 99.9812 40.9217C99.6677 49.8903 95.2272 61.1825 91.8013 68.6445C89.4959 73.6657 84.3901 76.6518 78.8649 76.6518H20.9127C15.3008 76.6518 10.1297 73.5712 7.85815 68.4396C4.52904 60.9188 0.260142 49.6616 0.0125292 40.9217C-0.273468 30.827 4.39613 17.6216 7.94163 9.13106Z" fill="#EDE3FF"/>
<path opacity="0.4" d="M66.0135 32.005V45.2771C66.0135 49.7275 63.9704 52.7841 60.3752 53.9403C59.3299 54.3046 58.1263 54.4788 56.8117 54.4788H43.5396C42.2251 54.4788 41.0214 54.3046 39.9761 53.9403C36.381 52.7841 34.3379 49.7275 34.3379 45.2771V32.005C34.3379 26.24 37.7747 22.8032 43.5396 22.8032H56.8117C62.5767 22.8032 66.0135 26.24 66.0135 32.005Z" fill="#5243FE"/>
<path d="M60.3757 53.9406C59.3304 54.3049 58.1267 54.4792 56.8121 54.4792H43.5401C42.2255 54.4792 41.0219 54.3049 39.9766 53.9406C40.5309 49.7594 44.9021 46.5127 50.1761 46.5127C55.4501 46.5127 59.8213 49.7594 60.3757 53.9406Z" fill="#5243FE"/>
<path d="M55.8457 37.9761C55.8457 41.112 53.3117 43.6618 50.1758 43.6618C47.0399 43.6618 44.5059 41.112 44.5059 37.9761C44.5059 34.8402 47.0399 32.3062 50.1758 32.3062C53.3117 32.3062 55.8457 34.8402 55.8457 37.9761Z" fill="#5243FE"/>
</svg>
