<svg width="122" height="92" viewBox="0 0 122 92" fill="none" xmlns="http://www.w3.org/2000/svg">
<path d="M9.61084 10.2874C12.2816 3.89175 18.6429 0 25.5737 0H95.2395C102.033 0 108.291 3.73489 111.016 9.95749C115.483 20.1554 121.433 36.2426 120.996 48.76C120.616 59.6137 115.243 73.2793 111.097 82.3097C108.307 88.3863 102.128 92 95.4412 92H25.3083C18.5169 92 12.2588 88.2719 9.50982 82.0617C5.48098 72.9602 0.31482 59.3369 0.0151627 48.76C-0.330947 36.5435 5.32013 20.5625 9.61084 10.2874Z" fill="#EDE3FF"/>
<path d="M72.2227 26.8335H49.2227C46.041 26.8335 43.4727 29.3827 43.4727 32.526V53.4368C43.4727 56.5802 46.041 59.1293 49.2227 59.1293H50.6793C52.2127 59.1293 53.6693 59.7235 54.7427 60.7968L58.0202 64.036C59.5152 65.5118 61.9493 65.5118 63.4443 64.036L66.7218 60.7968C67.7952 59.7235 69.271 59.1293 70.7852 59.1293H72.2227C75.4043 59.1293 77.9727 56.5802 77.9727 53.4368V32.526C77.9727 29.3827 75.4043 26.8335 72.2227 26.8335ZM57.6177 47.936C58.4035 47.936 59.0552 48.5877 59.0552 49.3735C59.0552 50.1593 58.4035 50.811 57.6177 50.811H52.481C51.6377 50.811 50.8518 50.4085 50.3535 49.7185C49.8743 49.0668 49.7593 48.2618 49.9893 47.4952C50.6602 45.4443 52.3085 44.3327 53.7652 43.336C55.2985 42.301 56.161 41.6493 56.161 40.5377C56.161 39.541 55.356 38.736 54.3593 38.736C53.3627 38.736 52.5768 39.5602 52.5768 40.5568C52.5768 41.3427 51.9252 41.9943 51.1393 41.9943C50.3535 41.9943 49.7018 41.3427 49.7018 40.5568C49.7018 37.9885 51.791 35.8802 54.3785 35.8802C56.966 35.8802 59.0552 37.9693 59.0552 40.5568C59.0552 43.2593 57.0235 44.6393 55.3943 45.751C54.3785 46.441 53.4202 47.0927 52.941 47.9552H57.6177V47.936ZM70.306 48.0702H69.9035V49.3927C69.9035 50.1785 69.2518 50.8302 68.466 50.8302C67.6802 50.8302 67.0285 50.1785 67.0285 49.3927V48.0702H63.2718C63.2718 48.0702 63.2718 48.0702 63.2527 48.0702C62.3135 48.0702 61.451 47.5718 60.9718 46.7668C60.4927 45.9427 60.4927 44.9268 60.9718 44.1218C62.2752 41.8793 63.7893 39.3302 65.1693 37.1068C65.7827 36.1293 66.9518 35.6885 68.0443 35.9952C69.1368 36.321 69.9035 37.3177 69.8843 38.4677V45.2143H70.306C71.0918 45.2143 71.7435 45.866 71.7435 46.6518C71.7435 47.4377 71.0918 48.0702 70.306 48.0702Z" fill="#5243FE"/>
<path d="M67.026 45.1951V39.5601C65.8952 41.4001 64.726 43.3742 63.6719 45.1759H67.026V45.1951Z" fill="#5243FE"/>
</svg>
