<svg width="24" height="24" viewBox="0 0 24 24" fill="none" xmlns="http://www.w3.org/2000/svg">
<path d="M21.5609 10.74L20.2009 9.16C19.9409 8.86 19.7309 8.3 19.7309 7.9V6.2C19.7309 5.14 18.8609 4.27 17.8009 4.27H16.1009C15.7109 4.27 15.1409 4.06 14.8409 3.8L13.2609 2.44C12.5709 1.85 11.4409 1.85 10.7409 2.44L9.17086 3.81C8.87086 4.06 8.30086 4.27 7.91086 4.27H6.18086C5.12086 4.27 4.25086 5.14 4.25086 6.2V7.91C4.25086 8.3 4.04086 8.86 3.79086 9.16L2.44086 10.75C1.86086 11.44 1.86086 12.56 2.44086 13.25L3.79086 14.84C4.04086 15.14 4.25086 15.7 4.25086 16.09V17.8C4.25086 18.86 5.12086 19.73 6.18086 19.73H7.91086C8.30086 19.73 8.87086 19.94 9.17086 20.2L10.7509 21.56C11.4409 22.15 12.5709 22.15 13.2709 21.56L14.8509 20.2C15.1509 19.94 15.7109 19.73 16.1109 19.73H17.8109C18.8709 19.73 19.7409 18.86 19.7409 17.8V16.1C19.7409 15.71 19.9509 15.14 20.2109 14.84L21.5709 13.26C22.1509 12.57 22.1509 11.43 21.5609 10.74ZM16.1609 10.11L11.3309 14.94C11.1909 15.08 11.0009 15.16 10.8009 15.16C10.6009 15.16 10.4109 15.08 10.2709 14.94L7.85086 12.52C7.56086 12.23 7.56086 11.75 7.85086 11.46C8.14086 11.17 8.62086 11.17 8.91086 11.46L10.8009 13.35L15.1009 9.05C15.3909 8.76 15.8709 8.76 16.1609 9.05C16.4509 9.34 16.4509 9.82 16.1609 10.11Z" fill="url(#paint0_linear_4962_58775)"/>
<defs>
<linearGradient id="paint0_linear_4962_58775" x1="2.00586" y1="18.9582" x2="41.4023" y2="18.5326" gradientUnits="userSpaceOnUse">
<stop stop-color="#0065FF"/>
<stop offset="0.594131" stop-color="#952BDA"/>
<stop offset="0.978815" stop-color="#FE02BF"/>
</linearGradient>
</defs>
</svg>
